<svg xmlns="http://www.w3.org/2000/svg" width="980" height="460">
<rect x="0" y="0" width="100%" height="100%" fill="white"/>
<text x="490.0" y="32" text-anchor="middle" font-size="20" font-family="Arial">Label Distribution: gemini-3.1-pro-preview</text>
<line x1="70" y1="70" x2="70" y2="340" stroke="#333" stroke-width="1"/>
<line x1="70" y1="340" x2="950" y2="340" stroke="#333" stroke-width="1"/>
<line x1="66" y1="340.0" x2="950" y2="340.0" stroke="#e5e5e5" stroke-width="1"/>
<text x="62" y="344.0" text-anchor="end" font-size="11" font-family="Arial" fill="#444">0</text>
<line x1="66" y1="286.0" x2="950" y2="286.0" stroke="#e5e5e5" stroke-width="1"/>
<text x="62" y="290.0" text-anchor="end" font-size="11" font-family="Arial" fill="#444">88</text>
<line x1="66" y1="232.0" x2="950" y2="232.0" stroke="#e5e5e5" stroke-width="1"/>
<text x="62" y="236.0" text-anchor="end" font-size="11" font-family="Arial" fill="#444">175</text>
<line x1="66" y1="178.0" x2="950" y2="178.0" stroke="#e5e5e5" stroke-width="1"/>
<text x="62" y="182.0" text-anchor="end" font-size="11" font-family="Arial" fill="#444">263</text>
<line x1="66" y1="124.0" x2="950" y2="124.0" stroke="#e5e5e5" stroke-width="1"/>
<text x="62" y="128.0" text-anchor="end" font-size="11" font-family="Arial" fill="#444">350</text>
<line x1="66" y1="70.0" x2="950" y2="70.0" stroke="#e5e5e5" stroke-width="1"/>
<text x="62" y="74.0" text-anchor="end" font-size="11" font-family="Arial" fill="#444">438</text>
<rect x="108.5" y="128.6" width="143.0" height="211.4" fill="#2ca25f" stroke="white" stroke-width="1"/>
<rect x="108.5" y="70.0" width="143.0" height="58.6" fill="#de2d26" stroke="white" stroke-width="1"/>
<text x="180.0" y="398.0" text-anchor="end" font-size="11" font-family="Arial" transform="rotate(-28 180.0 398.0)">coherence</text>
<text x="180.0" y="64.0" text-anchor="middle" font-size="10" font-family="Arial" fill="#333">438</text>
<rect x="328.5" y="206.8" width="143.0" height="133.2" fill="#2ca25f" stroke="white" stroke-width="1"/>
<rect x="328.5" y="190.8" width="143.0" height="16.0" fill="#de2d26" stroke="white" stroke-width="1"/>
<rect x="328.5" y="70.0" width="143.0" height="120.8" fill="#636363" stroke="white" stroke-width="1"/>
<text x="400.0" y="398.0" text-anchor="end" font-size="11" font-family="Arial" transform="rotate(-28 400.0 398.0)">signaling</text>
<text x="400.0" y="64.0" text-anchor="middle" font-size="10" font-family="Arial" fill="#333">438</text>
<rect x="548.5" y="190.8" width="143.0" height="149.2" fill="#2ca25f" stroke="white" stroke-width="1"/>
<rect x="548.5" y="147.1" width="143.0" height="43.8" fill="#de2d26" stroke="white" stroke-width="1"/>
<rect x="548.5" y="70.0" width="143.0" height="77.1" fill="#636363" stroke="white" stroke-width="1"/>
<text x="620.0" y="398.0" text-anchor="end" font-size="11" font-family="Arial" transform="rotate(-28 620.0 398.0)">label_accuracy</text>
<text x="620.0" y="64.0" text-anchor="middle" font-size="10" font-family="Arial" fill="#333">438</text>
<rect x="768.5" y="164.9" width="143.0" height="175.1" fill="#2ca25f" stroke="white" stroke-width="1"/>
<rect x="768.5" y="143.4" width="143.0" height="21.6" fill="#de2d26" stroke="white" stroke-width="1"/>
<rect x="768.5" y="70.0" width="143.0" height="73.4" fill="#636363" stroke="white" stroke-width="1"/>
<text x="840.0" y="398.0" text-anchor="end" font-size="11" font-family="Arial" transform="rotate(-28 840.0 398.0)">labeling</text>
<text x="840.0" y="64.0" text-anchor="middle" font-size="10" font-family="Arial" fill="#333">438</text>
<rect x="70" y="428" width="14" height="14" fill="#2ca25f"/>
<text x="90" y="440" font-size="12" font-family="Arial">Yes</text>
<rect x="200" y="428" width="14" height="14" fill="#de2d26"/>
<text x="220" y="440" font-size="12" font-family="Arial">No</text>
<rect x="330" y="428" width="14" height="14" fill="#636363"/>
<text x="350" y="440" font-size="12" font-family="Arial">N/A</text>
</svg>