<svg xmlns="http://www.w3.org/2000/svg" width="980" height="460">
<rect x="0" y="0" width="100%" height="100%" fill="white"/>
<text x="490.0" y="32" text-anchor="middle" font-size="20" font-family="Arial">Label Distribution: human_consensus</text>
<line x1="70" y1="70" x2="70" y2="340" stroke="#333" stroke-width="1"/>
<line x1="70" y1="340" x2="950" y2="340" stroke="#333" stroke-width="1"/>
<line x1="66" y1="340.0" x2="950" y2="340.0" stroke="#e5e5e5" stroke-width="1"/>
<text x="62" y="344.0" text-anchor="end" font-size="11" font-family="Arial" fill="#444">0</text>
<line x1="66" y1="286.0" x2="950" y2="286.0" stroke="#e5e5e5" stroke-width="1"/>
<text x="62" y="290.0" text-anchor="end" font-size="11" font-family="Arial" fill="#444">90</text>
<line x1="66" y1="232.0" x2="950" y2="232.0" stroke="#e5e5e5" stroke-width="1"/>
<text x="62" y="236.0" text-anchor="end" font-size="11" font-family="Arial" fill="#444">180</text>
<line x1="66" y1="178.0" x2="950" y2="178.0" stroke="#e5e5e5" stroke-width="1"/>
<text x="62" y="182.0" text-anchor="end" font-size="11" font-family="Arial" fill="#444">270</text>
<line x1="66" y1="124.0" x2="950" y2="124.0" stroke="#e5e5e5" stroke-width="1"/>
<text x="62" y="128.0" text-anchor="end" font-size="11" font-family="Arial" fill="#444">360</text>
<line x1="66" y1="70.0" x2="950" y2="70.0" stroke="#e5e5e5" stroke-width="1"/>
<text x="62" y="74.0" text-anchor="end" font-size="11" font-family="Arial" fill="#444">450</text>
<rect x="108.5" y="88.0" width="143.0" height="252.0" fill="#2ca25f" stroke="white" stroke-width="1"/>
<rect x="108.5" y="70.0" width="143.0" height="18.0" fill="#de2d26" stroke="white" stroke-width="1"/>
<text x="180.0" y="398.0" text-anchor="end" font-size="11" font-family="Arial" transform="rotate(-28 180.0 398.0)">coherence</text>
<text x="180.0" y="64.0" text-anchor="middle" font-size="10" font-family="Arial" fill="#333">450</text>
<rect x="328.5" y="224.2" width="143.0" height="115.8" fill="#2ca25f" stroke="white" stroke-width="1"/>
<rect x="328.5" y="91.0" width="143.0" height="133.2" fill="#de2d26" stroke="white" stroke-width="1"/>
<rect x="328.5" y="70.0" width="143.0" height="21.0" fill="#636363" stroke="white" stroke-width="1"/>
<text x="400.0" y="398.0" text-anchor="end" font-size="11" font-family="Arial" transform="rotate(-28 400.0 398.0)">signaling</text>
<text x="400.0" y="64.0" text-anchor="middle" font-size="10" font-family="Arial" fill="#333">450</text>
<rect x="548.5" y="160.0" width="143.0" height="180.0" fill="#2ca25f" stroke="white" stroke-width="1"/>
<rect x="548.5" y="125.2" width="143.0" height="34.8" fill="#de2d26" stroke="white" stroke-width="1"/>
<rect x="548.5" y="70.0" width="143.0" height="55.2" fill="#636363" stroke="white" stroke-width="1"/>
<text x="620.0" y="398.0" text-anchor="end" font-size="11" font-family="Arial" transform="rotate(-28 620.0 398.0)">label_accuracy</text>
<text x="620.0" y="64.0" text-anchor="middle" font-size="10" font-family="Arial" fill="#333">450</text>
<rect x="768.5" y="158.2" width="143.0" height="181.8" fill="#2ca25f" stroke="white" stroke-width="1"/>
<rect x="768.5" y="104.8" width="143.0" height="53.4" fill="#de2d26" stroke="white" stroke-width="1"/>
<rect x="768.5" y="70.0" width="143.0" height="34.8" fill="#636363" stroke="white" stroke-width="1"/>
<text x="840.0" y="398.0" text-anchor="end" font-size="11" font-family="Arial" transform="rotate(-28 840.0 398.0)">labeling</text>
<text x="840.0" y="64.0" text-anchor="middle" font-size="10" font-family="Arial" fill="#333">450</text>
<rect x="70" y="428" width="14" height="14" fill="#2ca25f"/>
<text x="90" y="440" font-size="12" font-family="Arial">Yes</text>
<rect x="200" y="428" width="14" height="14" fill="#de2d26"/>
<text x="220" y="440" font-size="12" font-family="Arial">No</text>
<rect x="330" y="428" width="14" height="14" fill="#636363"/>
<text x="350" y="440" font-size="12" font-family="Arial">N/A</text>
</svg>