<?xml version="1.0" encoding="utf-8" standalone="no"?>
<!DOCTYPE svg PUBLIC "-//W3C//DTD SVG 1.1//EN"
  "http://www.w3.org/Graphics/SVG/1.1/DTD/svg11.dtd">
<svg xmlns:xlink="http://www.w3.org/1999/xlink" width="1287.388438pt" height="310.636437pt" viewBox="0 0 1287.388438 310.636437" xmlns="http://www.w3.org/2000/svg" version="1.1">
 <metadata>
  <rdf:RDF xmlns:dc="http://purl.org/dc/elements/1.1/" xmlns:cc="http://creativecommons.org/ns#" xmlns:rdf="http://www.w3.org/1999/02/22-rdf-syntax-ns#">
   <cc:Work>
    <dc:type rdf:resource="http://purl.org/dc/dcmitype/StillImage"/>
    <dc:date>2026-03-17T09:21:30.940812</dc:date>
    <dc:format>image/svg+xml</dc:format>
    <dc:creator>
     <cc:Agent>
      <dc:title>Matplotlib v3.10.7, https://matplotlib.org/</dc:title>
     </cc:Agent>
    </dc:creator>
   </cc:Work>
  </rdf:RDF>
 </metadata>
 <defs>
  <style type="text/css">*{stroke-linejoin: round; stroke-linecap: butt}</style>
 </defs>
 <g id="figure_1">
  <g id="patch_1">
   <path d="M 0 310.636437 
L 1287.388438 310.636437 
L 1287.388438 0 
L 0 0 
z
" style="fill: #ffffff"/>
  </g>
  <g id="axes_1">
   <g id="patch_2">
    <path d="M 36.588438 274.048 
L 316.288437 274.048 
L 316.288437 73.728 
L 36.588438 73.728 
z
" style="fill: #ffffff"/>
   </g>
   <g id="QuadMesh_1">
    <path d="M 36.588438 73.728 
L 129.821771 73.728 
L 129.821771 140.501333 
L 36.588438 140.501333 
L 36.588438 73.728 
" clip-path="url(#pa5cb2d3533)" style="fill: #08306b; stroke: #ffffff; stroke-width: 0.5"/>
    <path d="M 129.821771 73.728 
L 223.055104 73.728 
L 223.055104 140.501333 
L 129.821771 140.501333 
L 129.821771 73.728 
" clip-path="url(#pa5cb2d3533)" style="fill: #d3e3f3; stroke: #ffffff; stroke-width: 0.5"/>
    <path d="M 223.055104 73.728 
L 316.288437 73.728 
L 316.288437 140.501333 
L 223.055104 140.501333 
L 223.055104 73.728 
" clip-path="url(#pa5cb2d3533)" style="fill: #f7fbff; stroke: #ffffff; stroke-width: 0.5"/>
    <path d="M 36.588438 140.501333 
L 129.821771 140.501333 
L 129.821771 207.274667 
L 36.588438 207.274667 
L 36.588438 140.501333 
" clip-path="url(#pa5cb2d3533)" style="fill: #eff6fc; stroke: #ffffff; stroke-width: 0.5"/>
    <path d="M 129.821771 140.501333 
L 223.055104 140.501333 
L 223.055104 207.274667 
L 129.821771 207.274667 
L 129.821771 140.501333 
" clip-path="url(#pa5cb2d3533)" style="fill: #eff6fc; stroke: #ffffff; stroke-width: 0.5"/>
    <path d="M 223.055104 140.501333 
L 316.288437 140.501333 
L 316.288437 207.274667 
L 223.055104 207.274667 
L 223.055104 140.501333 
" clip-path="url(#pa5cb2d3533)" style="fill: #f7fbff; stroke: #ffffff; stroke-width: 0.5"/>
    <path d="M 36.588438 207.274667 
L 129.821771 207.274667 
L 129.821771 274.048 
L 36.588438 274.048 
L 36.588438 207.274667 
" clip-path="url(#pa5cb2d3533)" style="fill: #f7fbff; stroke: #ffffff; stroke-width: 0.5"/>
    <path d="M 129.821771 207.274667 
L 223.055104 207.274667 
L 223.055104 274.048 
L 129.821771 274.048 
L 129.821771 207.274667 
" clip-path="url(#pa5cb2d3533)" style="fill: #f7fbff; stroke: #ffffff; stroke-width: 0.5"/>
    <path d="M 223.055104 207.274667 
L 316.288437 207.274667 
L 316.288437 274.048 
L 223.055104 274.048 
L 223.055104 207.274667 
" clip-path="url(#pa5cb2d3533)" style="fill: #f7fbff; stroke: #ffffff; stroke-width: 0.5"/>
   </g>
   <g id="matplotlib.axis_1">
    <g id="xtick_1">
     <g id="line2d_1">
      <defs>
       <path id="m8a52a22405" d="M 0 0 
L 0 3.5 
" style="stroke: #000000; stroke-width: 0.8"/>
      </defs>
      <g>
       <use xlink:href="#m8a52a22405" x="83.205104" y="274.048" style="stroke: #000000; stroke-width: 0.8"/>
      </g>
     </g>
     <g id="text_1">
      <!-- Yes -->
      <g transform="translate(75.132448 288.646437) scale(0.1 -0.1)">
       <defs>
        <path id="DejaVuSans-59" d="M -13 4666 
L 666 4666 
L 1959 2747 
L 3244 4666 
L 3922 4666 
L 2272 2222 
L 2272 0 
L 1638 0 
L 1638 2222 
L -13 4666 
z
" transform="scale(0.015625)"/>
        <path id="DejaVuSans-65" d="M 3597 1894 
L 3597 1613 
L 953 1613 
Q 991 1019 1311 708 
Q 1631 397 2203 397 
Q 2534 397 2845 478 
Q 3156 559 3463 722 
L 3463 178 
Q 3153 47 2828 -22 
Q 2503 -91 2169 -91 
Q 1331 -91 842 396 
Q 353 884 353 1716 
Q 353 2575 817 3079 
Q 1281 3584 2069 3584 
Q 2775 3584 3186 3129 
Q 3597 2675 3597 1894 
z
M 3022 2063 
Q 3016 2534 2758 2815 
Q 2500 3097 2075 3097 
Q 1594 3097 1305 2825 
Q 1016 2553 972 2059 
L 3022 2063 
z
" transform="scale(0.015625)"/>
        <path id="DejaVuSans-73" d="M 2834 3397 
L 2834 2853 
Q 2591 2978 2328 3040 
Q 2066 3103 1784 3103 
Q 1356 3103 1142 2972 
Q 928 2841 928 2578 
Q 928 2378 1081 2264 
Q 1234 2150 1697 2047 
L 1894 2003 
Q 2506 1872 2764 1633 
Q 3022 1394 3022 966 
Q 3022 478 2636 193 
Q 2250 -91 1575 -91 
Q 1294 -91 989 -36 
Q 684 19 347 128 
L 347 722 
Q 666 556 975 473 
Q 1284 391 1588 391 
Q 1994 391 2212 530 
Q 2431 669 2431 922 
Q 2431 1156 2273 1281 
Q 2116 1406 1581 1522 
L 1381 1569 
Q 847 1681 609 1914 
Q 372 2147 372 2553 
Q 372 3047 722 3315 
Q 1072 3584 1716 3584 
Q 2034 3584 2315 3537 
Q 2597 3491 2834 3397 
z
" transform="scale(0.015625)"/>
       </defs>
       <use xlink:href="#DejaVuSans-59"/>
       <use xlink:href="#DejaVuSans-65" transform="translate(47.833984 0)"/>
       <use xlink:href="#DejaVuSans-73" transform="translate(109.357422 0)"/>
      </g>
     </g>
    </g>
    <g id="xtick_2">
     <g id="line2d_2">
      <g>
       <use xlink:href="#m8a52a22405" x="176.438437" y="274.048" style="stroke: #000000; stroke-width: 0.8"/>
      </g>
     </g>
     <g id="text_2">
      <!-- No -->
      <g transform="translate(169.638437 288.646437) scale(0.1 -0.1)">
       <defs>
        <path id="DejaVuSans-4e" d="M 628 4666 
L 1478 4666 
L 3547 763 
L 3547 4666 
L 4159 4666 
L 4159 0 
L 3309 0 
L 1241 3903 
L 1241 0 
L 628 0 
L 628 4666 
z
" transform="scale(0.015625)"/>
        <path id="DejaVuSans-6f" d="M 1959 3097 
Q 1497 3097 1228 2736 
Q 959 2375 959 1747 
Q 959 1119 1226 758 
Q 1494 397 1959 397 
Q 2419 397 2687 759 
Q 2956 1122 2956 1747 
Q 2956 2369 2687 2733 
Q 2419 3097 1959 3097 
z
M 1959 3584 
Q 2709 3584 3137 3096 
Q 3566 2609 3566 1747 
Q 3566 888 3137 398 
Q 2709 -91 1959 -91 
Q 1206 -91 779 398 
Q 353 888 353 1747 
Q 353 2609 779 3096 
Q 1206 3584 1959 3584 
z
" transform="scale(0.015625)"/>
       </defs>
       <use xlink:href="#DejaVuSans-4e"/>
       <use xlink:href="#DejaVuSans-6f" transform="translate(74.804688 0)"/>
      </g>
     </g>
    </g>
    <g id="xtick_3">
     <g id="line2d_3">
      <g>
       <use xlink:href="#m8a52a22405" x="269.671771" y="274.048" style="stroke: #000000; stroke-width: 0.8"/>
      </g>
     </g>
     <g id="text_3">
      <!-- N/A -->
      <g transform="translate(260.826458 288.646437) scale(0.1 -0.1)">
       <defs>
        <path id="DejaVuSans-2f" d="M 1625 4666 
L 2156 4666 
L 531 -594 
L 0 -594 
L 1625 4666 
z
" transform="scale(0.015625)"/>
        <path id="DejaVuSans-41" d="M 2188 4044 
L 1331 1722 
L 3047 1722 
L 2188 4044 
z
M 1831 4666 
L 2547 4666 
L 4325 0 
L 3669 0 
L 3244 1197 
L 1141 1197 
L 716 0 
L 50 0 
L 1831 4666 
z
" transform="scale(0.015625)"/>
       </defs>
       <use xlink:href="#DejaVuSans-4e"/>
       <use xlink:href="#DejaVuSans-2f" transform="translate(74.804688 0)"/>
       <use xlink:href="#DejaVuSans-41" transform="translate(108.496094 0)"/>
      </g>
     </g>
    </g>
    <g id="text_4">
     <!-- Ensemble -->
     <g transform="translate(154.370859 301.564719) scale(0.09 -0.09)">
      <defs>
       <path id="DejaVuSans-45" d="M 628 4666 
L 3578 4666 
L 3578 4134 
L 1259 4134 
L 1259 2753 
L 3481 2753 
L 3481 2222 
L 1259 2222 
L 1259 531 
L 3634 531 
L 3634 0 
L 628 0 
L 628 4666 
z
" transform="scale(0.015625)"/>
       <path id="DejaVuSans-6e" d="M 3513 2113 
L 3513 0 
L 2938 0 
L 2938 2094 
Q 2938 2591 2744 2837 
Q 2550 3084 2163 3084 
Q 1697 3084 1428 2787 
Q 1159 2491 1159 1978 
L 1159 0 
L 581 0 
L 581 3500 
L 1159 3500 
L 1159 2956 
Q 1366 3272 1645 3428 
Q 1925 3584 2291 3584 
Q 2894 3584 3203 3211 
Q 3513 2838 3513 2113 
z
" transform="scale(0.015625)"/>
       <path id="DejaVuSans-6d" d="M 3328 2828 
Q 3544 3216 3844 3400 
Q 4144 3584 4550 3584 
Q 5097 3584 5394 3201 
Q 5691 2819 5691 2113 
L 5691 0 
L 5113 0 
L 5113 2094 
Q 5113 2597 4934 2840 
Q 4756 3084 4391 3084 
Q 3944 3084 3684 2787 
Q 3425 2491 3425 1978 
L 3425 0 
L 2847 0 
L 2847 2094 
Q 2847 2600 2669 2842 
Q 2491 3084 2119 3084 
Q 1678 3084 1418 2786 
Q 1159 2488 1159 1978 
L 1159 0 
L 581 0 
L 581 3500 
L 1159 3500 
L 1159 2956 
Q 1356 3278 1631 3431 
Q 1906 3584 2284 3584 
Q 2666 3584 2933 3390 
Q 3200 3197 3328 2828 
z
" transform="scale(0.015625)"/>
       <path id="DejaVuSans-62" d="M 3116 1747 
Q 3116 2381 2855 2742 
Q 2594 3103 2138 3103 
Q 1681 3103 1420 2742 
Q 1159 2381 1159 1747 
Q 1159 1113 1420 752 
Q 1681 391 2138 391 
Q 2594 391 2855 752 
Q 3116 1113 3116 1747 
z
M 1159 2969 
Q 1341 3281 1617 3432 
Q 1894 3584 2278 3584 
Q 2916 3584 3314 3078 
Q 3713 2572 3713 1747 
Q 3713 922 3314 415 
Q 2916 -91 2278 -91 
Q 1894 -91 1617 61 
Q 1341 213 1159 525 
L 1159 0 
L 581 0 
L 581 4863 
L 1159 4863 
L 1159 2969 
z
" transform="scale(0.015625)"/>
       <path id="DejaVuSans-6c" d="M 603 4863 
L 1178 4863 
L 1178 0 
L 603 0 
L 603 4863 
z
" transform="scale(0.015625)"/>
      </defs>
      <use xlink:href="#DejaVuSans-45"/>
      <use xlink:href="#DejaVuSans-6e" transform="translate(63.183594 0)"/>
      <use xlink:href="#DejaVuSans-73" transform="translate(126.5625 0)"/>
      <use xlink:href="#DejaVuSans-65" transform="translate(178.662109 0)"/>
      <use xlink:href="#DejaVuSans-6d" transform="translate(240.185547 0)"/>
      <use xlink:href="#DejaVuSans-62" transform="translate(337.597656 0)"/>
      <use xlink:href="#DejaVuSans-6c" transform="translate(401.074219 0)"/>
      <use xlink:href="#DejaVuSans-65" transform="translate(428.857422 0)"/>
     </g>
    </g>
   </g>
   <g id="matplotlib.axis_2">
    <g id="ytick_1">
     <g id="line2d_4">
      <defs>
       <path id="m3e59719ac3" d="M 0 0 
L -3.5 0 
" style="stroke: #000000; stroke-width: 0.8"/>
      </defs>
      <g>
       <use xlink:href="#m3e59719ac3" x="36.588438" y="107.114667" style="stroke: #000000; stroke-width: 0.8"/>
      </g>
     </g>
     <g id="text_5">
      <!-- Yes -->
      <g transform="translate(27.50875 115.187323) rotate(-90) scale(0.1 -0.1)">
       <use xlink:href="#DejaVuSans-59"/>
       <use xlink:href="#DejaVuSans-65" transform="translate(47.833984 0)"/>
       <use xlink:href="#DejaVuSans-73" transform="translate(109.357422 0)"/>
      </g>
     </g>
    </g>
    <g id="ytick_2">
     <g id="line2d_5">
      <g>
       <use xlink:href="#m3e59719ac3" x="36.588438" y="173.888" style="stroke: #000000; stroke-width: 0.8"/>
      </g>
     </g>
     <g id="text_6">
      <!-- No -->
      <g transform="translate(27.50875 180.688) rotate(-90) scale(0.1 -0.1)">
       <use xlink:href="#DejaVuSans-4e"/>
       <use xlink:href="#DejaVuSans-6f" transform="translate(74.804688 0)"/>
      </g>
     </g>
    </g>
    <g id="ytick_3">
     <g id="line2d_6">
      <g>
       <use xlink:href="#m3e59719ac3" x="36.588438" y="240.661333" style="stroke: #000000; stroke-width: 0.8"/>
      </g>
     </g>
     <g id="text_7">
      <!-- N/A -->
      <g transform="translate(27.50875 249.506646) rotate(-90) scale(0.1 -0.1)">
       <use xlink:href="#DejaVuSans-4e"/>
       <use xlink:href="#DejaVuSans-2f" transform="translate(74.804688 0)"/>
       <use xlink:href="#DejaVuSans-41" transform="translate(108.496094 0)"/>
      </g>
     </g>
    </g>
    <g id="text_8">
     <!-- Human -->
     <g transform="translate(14.038594 190.116828) rotate(-90) scale(0.09 -0.09)">
      <defs>
       <path id="DejaVuSans-48" d="M 628 4666 
L 1259 4666 
L 1259 2753 
L 3553 2753 
L 3553 4666 
L 4184 4666 
L 4184 0 
L 3553 0 
L 3553 2222 
L 1259 2222 
L 1259 0 
L 628 0 
L 628 4666 
z
" transform="scale(0.015625)"/>
       <path id="DejaVuSans-75" d="M 544 1381 
L 544 3500 
L 1119 3500 
L 1119 1403 
Q 1119 906 1312 657 
Q 1506 409 1894 409 
Q 2359 409 2629 706 
Q 2900 1003 2900 1516 
L 2900 3500 
L 3475 3500 
L 3475 0 
L 2900 0 
L 2900 538 
Q 2691 219 2414 64 
Q 2138 -91 1772 -91 
Q 1169 -91 856 284 
Q 544 659 544 1381 
z
M 1991 3584 
L 1991 3584 
z
" transform="scale(0.015625)"/>
       <path id="DejaVuSans-61" d="M 2194 1759 
Q 1497 1759 1228 1600 
Q 959 1441 959 1056 
Q 959 750 1161 570 
Q 1363 391 1709 391 
Q 2188 391 2477 730 
Q 2766 1069 2766 1631 
L 2766 1759 
L 2194 1759 
z
M 3341 1997 
L 3341 0 
L 2766 0 
L 2766 531 
Q 2569 213 2275 61 
Q 1981 -91 1556 -91 
Q 1019 -91 701 211 
Q 384 513 384 1019 
Q 384 1609 779 1909 
Q 1175 2209 1959 2209 
L 2766 2209 
L 2766 2266 
Q 2766 2663 2505 2880 
Q 2244 3097 1772 3097 
Q 1472 3097 1187 3025 
Q 903 2953 641 2809 
L 641 3341 
Q 956 3463 1253 3523 
Q 1550 3584 1831 3584 
Q 2591 3584 2966 3190 
Q 3341 2797 3341 1997 
z
" transform="scale(0.015625)"/>
      </defs>
      <use xlink:href="#DejaVuSans-48"/>
      <use xlink:href="#DejaVuSans-75" transform="translate(75.195312 0)"/>
      <use xlink:href="#DejaVuSans-6d" transform="translate(138.574219 0)"/>
      <use xlink:href="#DejaVuSans-61" transform="translate(235.986328 0)"/>
      <use xlink:href="#DejaVuSans-6e" transform="translate(297.265625 0)"/>
     </g>
    </g>
   </g>
   <g id="text_9">
    <!-- 353 -->
    <g style="fill: #ffffff" transform="translate(72.706979 110.149979) scale(0.11 -0.11)">
     <defs>
      <path id="DejaVuSans-33" d="M 2597 2516 
Q 3050 2419 3304 2112 
Q 3559 1806 3559 1356 
Q 3559 666 3084 287 
Q 2609 -91 1734 -91 
Q 1441 -91 1130 -33 
Q 819 25 488 141 
L 488 750 
Q 750 597 1062 519 
Q 1375 441 1716 441 
Q 2309 441 2620 675 
Q 2931 909 2931 1356 
Q 2931 1769 2642 2001 
Q 2353 2234 1838 2234 
L 1294 2234 
L 1294 2753 
L 1863 2753 
Q 2328 2753 2575 2939 
Q 2822 3125 2822 3475 
Q 2822 3834 2567 4026 
Q 2313 4219 1838 4219 
Q 1578 4219 1281 4162 
Q 984 4106 628 3988 
L 628 4550 
Q 988 4650 1302 4700 
Q 1616 4750 1894 4750 
Q 2613 4750 3031 4423 
Q 3450 4097 3450 3541 
Q 3450 3153 3228 2886 
Q 3006 2619 2597 2516 
z
" transform="scale(0.015625)"/>
      <path id="DejaVuSans-35" d="M 691 4666 
L 3169 4666 
L 3169 4134 
L 1269 4134 
L 1269 2991 
Q 1406 3038 1543 3061 
Q 1681 3084 1819 3084 
Q 2600 3084 3056 2656 
Q 3513 2228 3513 1497 
Q 3513 744 3044 326 
Q 2575 -91 1722 -91 
Q 1428 -91 1123 -41 
Q 819 9 494 109 
L 494 744 
Q 775 591 1075 516 
Q 1375 441 1709 441 
Q 2250 441 2565 725 
Q 2881 1009 2881 1497 
Q 2881 1984 2565 2268 
Q 2250 2553 1709 2553 
Q 1456 2553 1204 2497 
Q 953 2441 691 2322 
L 691 4666 
z
" transform="scale(0.015625)"/>
     </defs>
     <use xlink:href="#DejaVuSans-33"/>
     <use xlink:href="#DejaVuSans-35" transform="translate(63.623047 0)"/>
     <use xlink:href="#DejaVuSans-33" transform="translate(127.246094 0)"/>
    </g>
   </g>
   <g id="text_10">
    <!-- 65 -->
    <g style="fill: #262626" transform="translate(169.439687 110.149979) scale(0.11 -0.11)">
     <defs>
      <path id="DejaVuSans-36" d="M 2113 2584 
Q 1688 2584 1439 2293 
Q 1191 2003 1191 1497 
Q 1191 994 1439 701 
Q 1688 409 2113 409 
Q 2538 409 2786 701 
Q 3034 994 3034 1497 
Q 3034 2003 2786 2293 
Q 2538 2584 2113 2584 
z
M 3366 4563 
L 3366 3988 
Q 3128 4100 2886 4159 
Q 2644 4219 2406 4219 
Q 1781 4219 1451 3797 
Q 1122 3375 1075 2522 
Q 1259 2794 1537 2939 
Q 1816 3084 2150 3084 
Q 2853 3084 3261 2657 
Q 3669 2231 3669 1497 
Q 3669 778 3244 343 
Q 2819 -91 2113 -91 
Q 1303 -91 875 529 
Q 447 1150 447 2328 
Q 447 3434 972 4092 
Q 1497 4750 2381 4750 
Q 2619 4750 2861 4703 
Q 3103 4656 3366 4563 
z
" transform="scale(0.015625)"/>
     </defs>
     <use xlink:href="#DejaVuSans-36"/>
     <use xlink:href="#DejaVuSans-35" transform="translate(63.623047 0)"/>
    </g>
   </g>
   <g id="text_11">
    <!-- 0 -->
    <g style="fill: #262626" transform="translate(266.172396 110.149979) scale(0.11 -0.11)">
     <defs>
      <path id="DejaVuSans-30" d="M 2034 4250 
Q 1547 4250 1301 3770 
Q 1056 3291 1056 2328 
Q 1056 1369 1301 889 
Q 1547 409 2034 409 
Q 2525 409 2770 889 
Q 3016 1369 3016 2328 
Q 3016 3291 2770 3770 
Q 2525 4250 2034 4250 
z
M 2034 4750 
Q 2819 4750 3233 4129 
Q 3647 3509 3647 2328 
Q 3647 1150 3233 529 
Q 2819 -91 2034 -91 
Q 1250 -91 836 529 
Q 422 1150 422 2328 
Q 422 3509 836 4129 
Q 1250 4750 2034 4750 
z
" transform="scale(0.015625)"/>
     </defs>
     <use xlink:href="#DejaVuSans-30"/>
    </g>
   </g>
   <g id="text_12">
    <!-- 15 -->
    <g style="fill: #262626" transform="translate(76.206354 176.923312) scale(0.11 -0.11)">
     <defs>
      <path id="DejaVuSans-31" d="M 794 531 
L 1825 531 
L 1825 4091 
L 703 3866 
L 703 4441 
L 1819 4666 
L 2450 4666 
L 2450 531 
L 3481 531 
L 3481 0 
L 794 0 
L 794 531 
z
" transform="scale(0.015625)"/>
     </defs>
     <use xlink:href="#DejaVuSans-31"/>
     <use xlink:href="#DejaVuSans-35" transform="translate(63.623047 0)"/>
    </g>
   </g>
   <g id="text_13">
    <!-- 15 -->
    <g style="fill: #262626" transform="translate(169.439687 176.923312) scale(0.11 -0.11)">
     <use xlink:href="#DejaVuSans-31"/>
     <use xlink:href="#DejaVuSans-35" transform="translate(63.623047 0)"/>
    </g>
   </g>
   <g id="text_14">
    <!-- 0 -->
    <g style="fill: #262626" transform="translate(266.172396 176.923312) scale(0.11 -0.11)">
     <use xlink:href="#DejaVuSans-30"/>
    </g>
   </g>
   <g id="text_15">
    <!-- 0 -->
    <g style="fill: #262626" transform="translate(79.705729 243.696646) scale(0.11 -0.11)">
     <use xlink:href="#DejaVuSans-30"/>
    </g>
   </g>
   <g id="text_16">
    <!-- 0 -->
    <g style="fill: #262626" transform="translate(172.939062 243.696646) scale(0.11 -0.11)">
     <use xlink:href="#DejaVuSans-30"/>
    </g>
   </g>
   <g id="text_17">
    <!-- 0 -->
    <g style="fill: #262626" transform="translate(266.172396 243.696646) scale(0.11 -0.11)">
     <use xlink:href="#DejaVuSans-30"/>
    </g>
   </g>
   <g id="text_18">
    <!-- coherence -->
    <g transform="translate(147.316562 56.530187) scale(0.1 -0.1)">
     <defs>
      <path id="DejaVuSans-Bold-63" d="M 3366 3391 
L 3366 2478 
Q 3138 2634 2908 2709 
Q 2678 2784 2431 2784 
Q 1963 2784 1702 2511 
Q 1441 2238 1441 1747 
Q 1441 1256 1702 982 
Q 1963 709 2431 709 
Q 2694 709 2930 787 
Q 3166 866 3366 1019 
L 3366 103 
Q 3103 6 2833 -42 
Q 2563 -91 2291 -91 
Q 1344 -91 809 395 
Q 275 881 275 1747 
Q 275 2613 809 3098 
Q 1344 3584 2291 3584 
Q 2566 3584 2833 3536 
Q 3100 3488 3366 3391 
z
" transform="scale(0.015625)"/>
      <path id="DejaVuSans-Bold-6f" d="M 2203 2784 
Q 1831 2784 1636 2517 
Q 1441 2250 1441 1747 
Q 1441 1244 1636 976 
Q 1831 709 2203 709 
Q 2569 709 2762 976 
Q 2956 1244 2956 1747 
Q 2956 2250 2762 2517 
Q 2569 2784 2203 2784 
z
M 2203 3584 
Q 3106 3584 3614 3096 
Q 4122 2609 4122 1747 
Q 4122 884 3614 396 
Q 3106 -91 2203 -91 
Q 1297 -91 786 396 
Q 275 884 275 1747 
Q 275 2609 786 3096 
Q 1297 3584 2203 3584 
z
" transform="scale(0.015625)"/>
      <path id="DejaVuSans-Bold-68" d="M 4056 2131 
L 4056 0 
L 2931 0 
L 2931 347 
L 2931 1625 
Q 2931 2084 2911 2256 
Q 2891 2428 2841 2509 
Q 2775 2619 2662 2680 
Q 2550 2741 2406 2741 
Q 2056 2741 1856 2470 
Q 1656 2200 1656 1722 
L 1656 0 
L 538 0 
L 538 4863 
L 1656 4863 
L 1656 2988 
Q 1909 3294 2193 3439 
Q 2478 3584 2822 3584 
Q 3428 3584 3742 3212 
Q 4056 2841 4056 2131 
z
" transform="scale(0.015625)"/>
      <path id="DejaVuSans-Bold-65" d="M 4031 1759 
L 4031 1441 
L 1416 1441 
Q 1456 1047 1700 850 
Q 1944 653 2381 653 
Q 2734 653 3104 758 
Q 3475 863 3866 1075 
L 3866 213 
Q 3469 63 3072 -14 
Q 2675 -91 2278 -91 
Q 1328 -91 801 392 
Q 275 875 275 1747 
Q 275 2603 792 3093 
Q 1309 3584 2216 3584 
Q 3041 3584 3536 3087 
Q 4031 2591 4031 1759 
z
M 2881 2131 
Q 2881 2450 2695 2645 
Q 2509 2841 2209 2841 
Q 1884 2841 1681 2658 
Q 1478 2475 1428 2131 
L 2881 2131 
z
" transform="scale(0.015625)"/>
      <path id="DejaVuSans-Bold-72" d="M 3138 2547 
Q 2991 2616 2845 2648 
Q 2700 2681 2553 2681 
Q 2122 2681 1889 2404 
Q 1656 2128 1656 1613 
L 1656 0 
L 538 0 
L 538 3500 
L 1656 3500 
L 1656 2925 
Q 1872 3269 2151 3426 
Q 2431 3584 2822 3584 
Q 2878 3584 2943 3579 
Q 3009 3575 3134 3559 
L 3138 2547 
z
" transform="scale(0.015625)"/>
      <path id="DejaVuSans-Bold-6e" d="M 4056 2131 
L 4056 0 
L 2931 0 
L 2931 347 
L 2931 1631 
Q 2931 2084 2911 2256 
Q 2891 2428 2841 2509 
Q 2775 2619 2662 2680 
Q 2550 2741 2406 2741 
Q 2056 2741 1856 2470 
Q 1656 2200 1656 1722 
L 1656 0 
L 538 0 
L 538 3500 
L 1656 3500 
L 1656 2988 
Q 1909 3294 2193 3439 
Q 2478 3584 2822 3584 
Q 3428 3584 3742 3212 
Q 4056 2841 4056 2131 
z
" transform="scale(0.015625)"/>
     </defs>
     <use xlink:href="#DejaVuSans-Bold-63"/>
     <use xlink:href="#DejaVuSans-Bold-6f" transform="translate(59.277344 0)"/>
     <use xlink:href="#DejaVuSans-Bold-68" transform="translate(127.978516 0)"/>
     <use xlink:href="#DejaVuSans-Bold-65" transform="translate(199.169922 0)"/>
     <use xlink:href="#DejaVuSans-Bold-72" transform="translate(266.992188 0)"/>
     <use xlink:href="#DejaVuSans-Bold-65" transform="translate(316.308594 0)"/>
     <use xlink:href="#DejaVuSans-Bold-6e" transform="translate(384.130859 0)"/>
     <use xlink:href="#DejaVuSans-Bold-63" transform="translate(455.322266 0)"/>
     <use xlink:href="#DejaVuSans-Bold-65" transform="translate(514.599609 0)"/>
    </g>
    <!-- Exact=0.82  κ=0.194 -->
    <g transform="translate(117.505625 67.728) scale(0.1 -0.1)">
     <defs>
      <path id="DejaVuSans-Bold-45" d="M 588 4666 
L 3834 4666 
L 3834 3756 
L 1791 3756 
L 1791 2888 
L 3713 2888 
L 3713 1978 
L 1791 1978 
L 1791 909 
L 3903 909 
L 3903 0 
L 588 0 
L 588 4666 
z
" transform="scale(0.015625)"/>
      <path id="DejaVuSans-Bold-78" d="M 1422 1791 
L 159 3500 
L 1344 3500 
L 2059 2463 
L 2784 3500 
L 3969 3500 
L 2706 1797 
L 4031 0 
L 2847 0 
L 2059 1106 
L 1281 0 
L 97 0 
L 1422 1791 
z
" transform="scale(0.015625)"/>
      <path id="DejaVuSans-Bold-61" d="M 2106 1575 
Q 1756 1575 1579 1456 
Q 1403 1338 1403 1106 
Q 1403 894 1545 773 
Q 1688 653 1941 653 
Q 2256 653 2472 879 
Q 2688 1106 2688 1447 
L 2688 1575 
L 2106 1575 
z
M 3816 1997 
L 3816 0 
L 2688 0 
L 2688 519 
Q 2463 200 2181 54 
Q 1900 -91 1497 -91 
Q 953 -91 614 226 
Q 275 544 275 1050 
Q 275 1666 698 1953 
Q 1122 2241 2028 2241 
L 2688 2241 
L 2688 2328 
Q 2688 2594 2478 2717 
Q 2269 2841 1825 2841 
Q 1466 2841 1156 2769 
Q 847 2697 581 2553 
L 581 3406 
Q 941 3494 1303 3539 
Q 1666 3584 2028 3584 
Q 2975 3584 3395 3211 
Q 3816 2838 3816 1997 
z
" transform="scale(0.015625)"/>
      <path id="DejaVuSans-Bold-74" d="M 1759 4494 
L 1759 3500 
L 2913 3500 
L 2913 2700 
L 1759 2700 
L 1759 1216 
Q 1759 972 1856 886 
Q 1953 800 2241 800 
L 2816 800 
L 2816 0 
L 1856 0 
Q 1194 0 917 276 
Q 641 553 641 1216 
L 641 2700 
L 84 2700 
L 84 3500 
L 641 3500 
L 641 4494 
L 1759 4494 
z
" transform="scale(0.015625)"/>
      <path id="DejaVuSans-Bold-3d" d="M 678 3084 
L 4684 3084 
L 4684 2350 
L 678 2350 
L 678 3084 
z
M 678 1663 
L 4684 1663 
L 4684 922 
L 678 922 
L 678 1663 
z
" transform="scale(0.015625)"/>
      <path id="DejaVuSans-Bold-30" d="M 2944 2338 
Q 2944 3213 2780 3570 
Q 2616 3928 2228 3928 
Q 1841 3928 1675 3570 
Q 1509 3213 1509 2338 
Q 1509 1453 1675 1090 
Q 1841 728 2228 728 
Q 2613 728 2778 1090 
Q 2944 1453 2944 2338 
z
M 4147 2328 
Q 4147 1169 3647 539 
Q 3147 -91 2228 -91 
Q 1306 -91 806 539 
Q 306 1169 306 2328 
Q 306 3491 806 4120 
Q 1306 4750 2228 4750 
Q 3147 4750 3647 4120 
Q 4147 3491 4147 2328 
z
" transform="scale(0.015625)"/>
      <path id="DejaVuSans-Bold-2e" d="M 653 1209 
L 1778 1209 
L 1778 0 
L 653 0 
L 653 1209 
z
" transform="scale(0.015625)"/>
      <path id="DejaVuSans-Bold-38" d="M 2228 2088 
Q 1891 2088 1709 1903 
Q 1528 1719 1528 1375 
Q 1528 1031 1709 848 
Q 1891 666 2228 666 
Q 2563 666 2741 848 
Q 2919 1031 2919 1375 
Q 2919 1722 2741 1905 
Q 2563 2088 2228 2088 
z
M 1350 2484 
Q 925 2613 709 2878 
Q 494 3144 494 3541 
Q 494 4131 934 4440 
Q 1375 4750 2228 4750 
Q 3075 4750 3515 4442 
Q 3956 4134 3956 3541 
Q 3956 3144 3739 2878 
Q 3522 2613 3097 2484 
Q 3572 2353 3814 2058 
Q 4056 1763 4056 1313 
Q 4056 619 3595 264 
Q 3134 -91 2228 -91 
Q 1319 -91 855 264 
Q 391 619 391 1313 
Q 391 1763 633 2058 
Q 875 2353 1350 2484 
z
M 1631 3419 
Q 1631 3141 1786 2991 
Q 1941 2841 2228 2841 
Q 2509 2841 2662 2991 
Q 2816 3141 2816 3419 
Q 2816 3697 2662 3845 
Q 2509 3994 2228 3994 
Q 1941 3994 1786 3844 
Q 1631 3694 1631 3419 
z
" transform="scale(0.015625)"/>
      <path id="DejaVuSans-Bold-32" d="M 1844 884 
L 3897 884 
L 3897 0 
L 506 0 
L 506 884 
L 2209 2388 
Q 2438 2594 2547 2791 
Q 2656 2988 2656 3200 
Q 2656 3528 2436 3728 
Q 2216 3928 1850 3928 
Q 1569 3928 1234 3808 
Q 900 3688 519 3450 
L 519 4475 
Q 925 4609 1322 4679 
Q 1719 4750 2100 4750 
Q 2938 4750 3402 4381 
Q 3866 4013 3866 3353 
Q 3866 2972 3669 2642 
Q 3472 2313 2841 1759 
L 1844 884 
z
" transform="scale(0.015625)"/>
      <path id="DejaVuSans-Bold-20" transform="scale(0.015625)"/>
      <path id="DejaVuSans-Bold-3ba" d="M 1656 1344 
L 1656 0 
L 538 0 
L 538 3500 
L 1656 3500 
L 1656 2497 
L 2763 3500 
L 4006 3500 
L 2663 2266 
L 4191 0 
L 2863 0 
L 1841 1513 
L 1656 1344 
z
" transform="scale(0.015625)"/>
      <path id="DejaVuSans-Bold-31" d="M 750 831 
L 1813 831 
L 1813 3847 
L 722 3622 
L 722 4441 
L 1806 4666 
L 2950 4666 
L 2950 831 
L 4013 831 
L 4013 0 
L 750 0 
L 750 831 
z
" transform="scale(0.015625)"/>
      <path id="DejaVuSans-Bold-39" d="M 641 103 
L 641 966 
Q 928 831 1190 764 
Q 1453 697 1709 697 
Q 2247 697 2547 995 
Q 2847 1294 2900 1881 
Q 2688 1725 2447 1647 
Q 2206 1569 1925 1569 
Q 1209 1569 770 1986 
Q 331 2403 331 3084 
Q 331 3838 820 4291 
Q 1309 4744 2131 4744 
Q 3044 4744 3544 4128 
Q 4044 3513 4044 2388 
Q 4044 1231 3459 570 
Q 2875 -91 1856 -91 
Q 1528 -91 1228 -42 
Q 928 6 641 103 
z
M 2125 2350 
Q 2441 2350 2600 2554 
Q 2759 2759 2759 3169 
Q 2759 3575 2600 3781 
Q 2441 3988 2125 3988 
Q 1809 3988 1650 3781 
Q 1491 3575 1491 3169 
Q 1491 2759 1650 2554 
Q 1809 2350 2125 2350 
z
" transform="scale(0.015625)"/>
      <path id="DejaVuSans-Bold-34" d="M 2356 3675 
L 1038 1722 
L 2356 1722 
L 2356 3675 
z
M 2156 4666 
L 3494 4666 
L 3494 1722 
L 4159 1722 
L 4159 850 
L 3494 850 
L 3494 0 
L 2356 0 
L 2356 850 
L 288 850 
L 288 1881 
L 2156 4666 
z
" transform="scale(0.015625)"/>
     </defs>
     <use xlink:href="#DejaVuSans-Bold-45"/>
     <use xlink:href="#DejaVuSans-Bold-78" transform="translate(68.310547 0)"/>
     <use xlink:href="#DejaVuSans-Bold-61" transform="translate(132.8125 0)"/>
     <use xlink:href="#DejaVuSans-Bold-63" transform="translate(200.292969 0)"/>
     <use xlink:href="#DejaVuSans-Bold-74" transform="translate(259.570312 0)"/>
     <use xlink:href="#DejaVuSans-Bold-3d" transform="translate(307.373047 0)"/>
     <use xlink:href="#DejaVuSans-Bold-30" transform="translate(391.162109 0)"/>
     <use xlink:href="#DejaVuSans-Bold-2e" transform="translate(460.742188 0)"/>
     <use xlink:href="#DejaVuSans-Bold-38" transform="translate(498.730469 0)"/>
     <use xlink:href="#DejaVuSans-Bold-32" transform="translate(568.310547 0)"/>
     <use xlink:href="#DejaVuSans-Bold-20" transform="translate(637.890625 0)"/>
     <use xlink:href="#DejaVuSans-Bold-20" transform="translate(672.705078 0)"/>
     <use xlink:href="#DejaVuSans-Bold-3ba" transform="translate(707.519531 0)"/>
     <use xlink:href="#DejaVuSans-Bold-3d" transform="translate(778.564453 0)"/>
     <use xlink:href="#DejaVuSans-Bold-30" transform="translate(862.353516 0)"/>
     <use xlink:href="#DejaVuSans-Bold-2e" transform="translate(931.933594 0)"/>
     <use xlink:href="#DejaVuSans-Bold-31" transform="translate(969.921875 0)"/>
     <use xlink:href="#DejaVuSans-Bold-39" transform="translate(1039.501953 0)"/>
     <use xlink:href="#DejaVuSans-Bold-34" transform="translate(1109.082031 0)"/>
    </g>
   </g>
  </g>
  <g id="axes_2">
   <g id="patch_3">
    <path d="M 357.888438 274.048 
L 637.588437 274.048 
L 637.588437 73.728 
L 357.888438 73.728 
z
" style="fill: #ffffff"/>
   </g>
   <g id="QuadMesh_2">
    <path d="M 357.888438 73.728 
L 451.121771 73.728 
L 451.121771 140.501333 
L 357.888438 140.501333 
L 357.888438 73.728 
" clip-path="url(#pc4cd07f98e)" style="fill: #08306b; stroke: #ffffff; stroke-width: 0.5"/>
    <path d="M 451.121771 73.728 
L 544.355104 73.728 
L 544.355104 140.501333 
L 451.121771 140.501333 
L 451.121771 73.728 
" clip-path="url(#pc4cd07f98e)" style="fill: #d4e4f4; stroke: #ffffff; stroke-width: 0.5"/>
    <path d="M 544.355104 73.728 
L 637.588437 73.728 
L 637.588437 140.501333 
L 544.355104 140.501333 
L 544.355104 73.728 
" clip-path="url(#pc4cd07f98e)" style="fill: #aed1e7; stroke: #ffffff; stroke-width: 0.5"/>
    <path d="M 357.888438 140.501333 
L 451.121771 140.501333 
L 451.121771 207.274667 
L 357.888438 207.274667 
L 357.888438 140.501333 
" clip-path="url(#pc4cd07f98e)" style="fill: #66abd4; stroke: #ffffff; stroke-width: 0.5"/>
    <path d="M 451.121771 140.501333 
L 544.355104 140.501333 
L 544.355104 207.274667 
L 451.121771 207.274667 
L 451.121771 140.501333 
" clip-path="url(#pc4cd07f98e)" style="fill: #9dcae1; stroke: #ffffff; stroke-width: 0.5"/>
    <path d="M 544.355104 140.501333 
L 637.588437 140.501333 
L 637.588437 207.274667 
L 544.355104 207.274667 
L 544.355104 140.501333 
" clip-path="url(#pc4cd07f98e)" style="fill: #1c6bb0; stroke: #ffffff; stroke-width: 0.5"/>
    <path d="M 357.888438 207.274667 
L 451.121771 207.274667 
L 451.121771 274.048 
L 357.888438 274.048 
L 357.888438 207.274667 
" clip-path="url(#pc4cd07f98e)" style="fill: #f7fbff; stroke: #ffffff; stroke-width: 0.5"/>
    <path d="M 451.121771 207.274667 
L 544.355104 207.274667 
L 544.355104 274.048 
L 451.121771 274.048 
L 451.121771 207.274667 
" clip-path="url(#pc4cd07f98e)" style="fill: #eff6fc; stroke: #ffffff; stroke-width: 0.5"/>
    <path d="M 544.355104 207.274667 
L 637.588437 207.274667 
L 637.588437 274.048 
L 544.355104 274.048 
L 544.355104 207.274667 
" clip-path="url(#pc4cd07f98e)" style="fill: #d1e2f3; stroke: #ffffff; stroke-width: 0.5"/>
   </g>
   <g id="matplotlib.axis_3">
    <g id="xtick_4">
     <g id="line2d_7">
      <g>
       <use xlink:href="#m8a52a22405" x="404.505104" y="274.048" style="stroke: #000000; stroke-width: 0.8"/>
      </g>
     </g>
     <g id="text_19">
      <!-- Yes -->
      <g transform="translate(396.432448 288.646437) scale(0.1 -0.1)">
       <use xlink:href="#DejaVuSans-59"/>
       <use xlink:href="#DejaVuSans-65" transform="translate(47.833984 0)"/>
       <use xlink:href="#DejaVuSans-73" transform="translate(109.357422 0)"/>
      </g>
     </g>
    </g>
    <g id="xtick_5">
     <g id="line2d_8">
      <g>
       <use xlink:href="#m8a52a22405" x="497.738438" y="274.048" style="stroke: #000000; stroke-width: 0.8"/>
      </g>
     </g>
     <g id="text_20">
      <!-- No -->
      <g transform="translate(490.938438 288.646437) scale(0.1 -0.1)">
       <use xlink:href="#DejaVuSans-4e"/>
       <use xlink:href="#DejaVuSans-6f" transform="translate(74.804688 0)"/>
      </g>
     </g>
    </g>
    <g id="xtick_6">
     <g id="line2d_9">
      <g>
       <use xlink:href="#m8a52a22405" x="590.971771" y="274.048" style="stroke: #000000; stroke-width: 0.8"/>
      </g>
     </g>
     <g id="text_21">
      <!-- N/A -->
      <g transform="translate(582.126458 288.646437) scale(0.1 -0.1)">
       <use xlink:href="#DejaVuSans-4e"/>
       <use xlink:href="#DejaVuSans-2f" transform="translate(74.804688 0)"/>
       <use xlink:href="#DejaVuSans-41" transform="translate(108.496094 0)"/>
      </g>
     </g>
    </g>
    <g id="text_22">
     <!-- Ensemble -->
     <g transform="translate(475.670859 301.564719) scale(0.09 -0.09)">
      <use xlink:href="#DejaVuSans-45"/>
      <use xlink:href="#DejaVuSans-6e" transform="translate(63.183594 0)"/>
      <use xlink:href="#DejaVuSans-73" transform="translate(126.5625 0)"/>
      <use xlink:href="#DejaVuSans-65" transform="translate(178.662109 0)"/>
      <use xlink:href="#DejaVuSans-6d" transform="translate(240.185547 0)"/>
      <use xlink:href="#DejaVuSans-62" transform="translate(337.597656 0)"/>
      <use xlink:href="#DejaVuSans-6c" transform="translate(401.074219 0)"/>
      <use xlink:href="#DejaVuSans-65" transform="translate(428.857422 0)"/>
     </g>
    </g>
   </g>
   <g id="matplotlib.axis_4">
    <g id="ytick_4">
     <g id="line2d_10">
      <g>
       <use xlink:href="#m3e59719ac3" x="357.888438" y="107.114667" style="stroke: #000000; stroke-width: 0.8"/>
      </g>
     </g>
     <g id="text_23">
      <!-- Yes -->
      <g transform="translate(348.80875 115.187323) rotate(-90) scale(0.1 -0.1)">
       <use xlink:href="#DejaVuSans-59"/>
       <use xlink:href="#DejaVuSans-65" transform="translate(47.833984 0)"/>
       <use xlink:href="#DejaVuSans-73" transform="translate(109.357422 0)"/>
      </g>
     </g>
    </g>
    <g id="ytick_5">
     <g id="line2d_11">
      <g>
       <use xlink:href="#m3e59719ac3" x="357.888438" y="173.888" style="stroke: #000000; stroke-width: 0.8"/>
      </g>
     </g>
     <g id="text_24">
      <!-- No -->
      <g transform="translate(348.80875 180.688) rotate(-90) scale(0.1 -0.1)">
       <use xlink:href="#DejaVuSans-4e"/>
       <use xlink:href="#DejaVuSans-6f" transform="translate(74.804688 0)"/>
      </g>
     </g>
    </g>
    <g id="ytick_6">
     <g id="line2d_12">
      <g>
       <use xlink:href="#m3e59719ac3" x="357.888438" y="240.661333" style="stroke: #000000; stroke-width: 0.8"/>
      </g>
     </g>
     <g id="text_25">
      <!-- N/A -->
      <g transform="translate(348.80875 249.506646) rotate(-90) scale(0.1 -0.1)">
       <use xlink:href="#DejaVuSans-4e"/>
       <use xlink:href="#DejaVuSans-2f" transform="translate(74.804688 0)"/>
       <use xlink:href="#DejaVuSans-41" transform="translate(108.496094 0)"/>
      </g>
     </g>
    </g>
    <g id="text_26">
     <!-- Human -->
     <g transform="translate(335.338594 190.116828) rotate(-90) scale(0.09 -0.09)">
      <use xlink:href="#DejaVuSans-48"/>
      <use xlink:href="#DejaVuSans-75" transform="translate(75.195312 0)"/>
      <use xlink:href="#DejaVuSans-6d" transform="translate(138.574219 0)"/>
      <use xlink:href="#DejaVuSans-61" transform="translate(235.986328 0)"/>
      <use xlink:href="#DejaVuSans-6e" transform="translate(297.265625 0)"/>
     </g>
    </g>
   </g>
   <g id="text_27">
    <!-- 121 -->
    <g style="fill: #ffffff" transform="translate(394.006979 110.149979) scale(0.11 -0.11)">
     <defs>
      <path id="DejaVuSans-32" d="M 1228 531 
L 3431 531 
L 3431 0 
L 469 0 
L 469 531 
Q 828 903 1448 1529 
Q 2069 2156 2228 2338 
Q 2531 2678 2651 2914 
Q 2772 3150 2772 3378 
Q 2772 3750 2511 3984 
Q 2250 4219 1831 4219 
Q 1534 4219 1204 4116 
Q 875 4013 500 3803 
L 500 4441 
Q 881 4594 1212 4672 
Q 1544 4750 1819 4750 
Q 2544 4750 2975 4387 
Q 3406 4025 3406 3419 
Q 3406 3131 3298 2873 
Q 3191 2616 2906 2266 
Q 2828 2175 2409 1742 
Q 1991 1309 1228 531 
z
" transform="scale(0.015625)"/>
     </defs>
     <use xlink:href="#DejaVuSans-31"/>
     <use xlink:href="#DejaVuSans-32" transform="translate(63.623047 0)"/>
     <use xlink:href="#DejaVuSans-31" transform="translate(127.246094 0)"/>
    </g>
   </g>
   <g id="text_28">
    <!-- 23 -->
    <g style="fill: #262626" transform="translate(490.739688 110.149979) scale(0.11 -0.11)">
     <use xlink:href="#DejaVuSans-32"/>
     <use xlink:href="#DejaVuSans-33" transform="translate(63.623047 0)"/>
    </g>
   </g>
   <g id="text_29">
    <!-- 41 -->
    <g style="fill: #262626" transform="translate(583.973021 110.149979) scale(0.11 -0.11)">
     <defs>
      <path id="DejaVuSans-34" d="M 2419 4116 
L 825 1625 
L 2419 1625 
L 2419 4116 
z
M 2253 4666 
L 3047 4666 
L 3047 1625 
L 3713 1625 
L 3713 1100 
L 3047 1100 
L 3047 0 
L 2419 0 
L 2419 1100 
L 313 1100 
L 313 1709 
L 2253 4666 
z
" transform="scale(0.015625)"/>
     </defs>
     <use xlink:href="#DejaVuSans-34"/>
     <use xlink:href="#DejaVuSans-31" transform="translate(63.623047 0)"/>
    </g>
   </g>
   <g id="text_30">
    <!-- 63 -->
    <g style="fill: #ffffff" transform="translate(397.506354 176.923312) scale(0.11 -0.11)">
     <use xlink:href="#DejaVuSans-36"/>
     <use xlink:href="#DejaVuSans-33" transform="translate(63.623047 0)"/>
    </g>
   </g>
   <g id="text_31">
    <!-- 47 -->
    <g style="fill: #262626" transform="translate(490.739688 176.923312) scale(0.11 -0.11)">
     <defs>
      <path id="DejaVuSans-37" d="M 525 4666 
L 3525 4666 
L 3525 4397 
L 1831 0 
L 1172 0 
L 2766 4134 
L 525 4134 
L 525 4666 
z
" transform="scale(0.015625)"/>
     </defs>
     <use xlink:href="#DejaVuSans-34"/>
     <use xlink:href="#DejaVuSans-37" transform="translate(63.623047 0)"/>
    </g>
   </g>
   <g id="text_32">
    <!-- 94 -->
    <g style="fill: #ffffff" transform="translate(583.973021 176.923312) scale(0.11 -0.11)">
     <defs>
      <path id="DejaVuSans-39" d="M 703 97 
L 703 672 
Q 941 559 1184 500 
Q 1428 441 1663 441 
Q 2288 441 2617 861 
Q 2947 1281 2994 2138 
Q 2813 1869 2534 1725 
Q 2256 1581 1919 1581 
Q 1219 1581 811 2004 
Q 403 2428 403 3163 
Q 403 3881 828 4315 
Q 1253 4750 1959 4750 
Q 2769 4750 3195 4129 
Q 3622 3509 3622 2328 
Q 3622 1225 3098 567 
Q 2575 -91 1691 -91 
Q 1453 -91 1209 -44 
Q 966 3 703 97 
z
M 1959 2075 
Q 2384 2075 2632 2365 
Q 2881 2656 2881 3163 
Q 2881 3666 2632 3958 
Q 2384 4250 1959 4250 
Q 1534 4250 1286 3958 
Q 1038 3666 1038 3163 
Q 1038 2656 1286 2365 
Q 1534 2075 1959 2075 
z
" transform="scale(0.015625)"/>
     </defs>
     <use xlink:href="#DejaVuSans-39"/>
     <use xlink:href="#DejaVuSans-34" transform="translate(63.623047 0)"/>
    </g>
   </g>
   <g id="text_33">
    <!-- 2 -->
    <g style="fill: #262626" transform="translate(401.005729 243.696646) scale(0.11 -0.11)">
     <use xlink:href="#DejaVuSans-32"/>
    </g>
   </g>
   <g id="text_34">
    <!-- 7 -->
    <g style="fill: #262626" transform="translate(494.239063 243.696646) scale(0.11 -0.11)">
     <use xlink:href="#DejaVuSans-37"/>
    </g>
   </g>
   <g id="text_35">
    <!-- 25 -->
    <g style="fill: #262626" transform="translate(583.973021 243.696646) scale(0.11 -0.11)">
     <use xlink:href="#DejaVuSans-32"/>
     <use xlink:href="#DejaVuSans-35" transform="translate(63.623047 0)"/>
    </g>
   </g>
   <g id="text_36">
    <!-- signaling -->
    <g transform="translate(471.969688 56.452062) scale(0.1 -0.1)">
     <defs>
      <path id="DejaVuSans-Bold-73" d="M 3272 3391 
L 3272 2541 
Q 2913 2691 2578 2766 
Q 2244 2841 1947 2841 
Q 1628 2841 1473 2761 
Q 1319 2681 1319 2516 
Q 1319 2381 1436 2309 
Q 1553 2238 1856 2203 
L 2053 2175 
Q 2913 2066 3209 1816 
Q 3506 1566 3506 1031 
Q 3506 472 3093 190 
Q 2681 -91 1863 -91 
Q 1516 -91 1145 -36 
Q 775 19 384 128 
L 384 978 
Q 719 816 1070 734 
Q 1422 653 1784 653 
Q 2113 653 2278 743 
Q 2444 834 2444 1013 
Q 2444 1163 2330 1236 
Q 2216 1309 1875 1350 
L 1678 1375 
Q 931 1469 631 1722 
Q 331 1975 331 2491 
Q 331 3047 712 3315 
Q 1094 3584 1881 3584 
Q 2191 3584 2531 3537 
Q 2872 3491 3272 3391 
z
" transform="scale(0.015625)"/>
      <path id="DejaVuSans-Bold-69" d="M 538 3500 
L 1656 3500 
L 1656 0 
L 538 0 
L 538 3500 
z
M 538 4863 
L 1656 4863 
L 1656 3950 
L 538 3950 
L 538 4863 
z
" transform="scale(0.015625)"/>
      <path id="DejaVuSans-Bold-67" d="M 2919 594 
Q 2688 288 2409 144 
Q 2131 0 1766 0 
Q 1125 0 706 504 
Q 288 1009 288 1791 
Q 288 2575 706 3076 
Q 1125 3578 1766 3578 
Q 2131 3578 2409 3434 
Q 2688 3291 2919 2981 
L 2919 3500 
L 4044 3500 
L 4044 353 
Q 4044 -491 3511 -936 
Q 2978 -1381 1966 -1381 
Q 1638 -1381 1331 -1331 
Q 1025 -1281 716 -1178 
L 716 -306 
Q 1009 -475 1290 -558 
Q 1572 -641 1856 -641 
Q 2406 -641 2662 -400 
Q 2919 -159 2919 353 
L 2919 594 
z
M 2181 2772 
Q 1834 2772 1640 2515 
Q 1447 2259 1447 1791 
Q 1447 1309 1634 1061 
Q 1822 813 2181 813 
Q 2531 813 2725 1069 
Q 2919 1325 2919 1791 
Q 2919 2259 2725 2515 
Q 2531 2772 2181 2772 
z
" transform="scale(0.015625)"/>
      <path id="DejaVuSans-Bold-6c" d="M 538 4863 
L 1656 4863 
L 1656 0 
L 538 0 
L 538 4863 
z
" transform="scale(0.015625)"/>
     </defs>
     <use xlink:href="#DejaVuSans-Bold-73"/>
     <use xlink:href="#DejaVuSans-Bold-69" transform="translate(59.521484 0)"/>
     <use xlink:href="#DejaVuSans-Bold-67" transform="translate(93.798828 0)"/>
     <use xlink:href="#DejaVuSans-Bold-6e" transform="translate(165.380859 0)"/>
     <use xlink:href="#DejaVuSans-Bold-61" transform="translate(236.572266 0)"/>
     <use xlink:href="#DejaVuSans-Bold-6c" transform="translate(304.052734 0)"/>
     <use xlink:href="#DejaVuSans-Bold-69" transform="translate(338.330078 0)"/>
     <use xlink:href="#DejaVuSans-Bold-6e" transform="translate(372.607422 0)"/>
     <use xlink:href="#DejaVuSans-Bold-67" transform="translate(443.798828 0)"/>
    </g>
    <!-- Exact=0.46  κ=0.211 -->
    <g transform="translate(438.805625 67.728) scale(0.1 -0.1)">
     <defs>
      <path id="DejaVuSans-Bold-36" d="M 2316 2303 
Q 2000 2303 1842 2098 
Q 1684 1894 1684 1484 
Q 1684 1075 1842 870 
Q 2000 666 2316 666 
Q 2634 666 2792 870 
Q 2950 1075 2950 1484 
Q 2950 1894 2792 2098 
Q 2634 2303 2316 2303 
z
M 3803 4544 
L 3803 3681 
Q 3506 3822 3243 3889 
Q 2981 3956 2731 3956 
Q 2194 3956 1894 3657 
Q 1594 3359 1544 2772 
Q 1750 2925 1990 3001 
Q 2231 3078 2516 3078 
Q 3231 3078 3670 2659 
Q 4109 2241 4109 1563 
Q 4109 813 3618 361 
Q 3128 -91 2303 -91 
Q 1394 -91 895 523 
Q 397 1138 397 2266 
Q 397 3422 980 4083 
Q 1563 4744 2578 4744 
Q 2900 4744 3203 4694 
Q 3506 4644 3803 4544 
z
" transform="scale(0.015625)"/>
     </defs>
     <use xlink:href="#DejaVuSans-Bold-45"/>
     <use xlink:href="#DejaVuSans-Bold-78" transform="translate(68.310547 0)"/>
     <use xlink:href="#DejaVuSans-Bold-61" transform="translate(132.8125 0)"/>
     <use xlink:href="#DejaVuSans-Bold-63" transform="translate(200.292969 0)"/>
     <use xlink:href="#DejaVuSans-Bold-74" transform="translate(259.570312 0)"/>
     <use xlink:href="#DejaVuSans-Bold-3d" transform="translate(307.373047 0)"/>
     <use xlink:href="#DejaVuSans-Bold-30" transform="translate(391.162109 0)"/>
     <use xlink:href="#DejaVuSans-Bold-2e" transform="translate(460.742188 0)"/>
     <use xlink:href="#DejaVuSans-Bold-34" transform="translate(498.730469 0)"/>
     <use xlink:href="#DejaVuSans-Bold-36" transform="translate(568.310547 0)"/>
     <use xlink:href="#DejaVuSans-Bold-20" transform="translate(637.890625 0)"/>
     <use xlink:href="#DejaVuSans-Bold-20" transform="translate(672.705078 0)"/>
     <use xlink:href="#DejaVuSans-Bold-3ba" transform="translate(707.519531 0)"/>
     <use xlink:href="#DejaVuSans-Bold-3d" transform="translate(778.564453 0)"/>
     <use xlink:href="#DejaVuSans-Bold-30" transform="translate(862.353516 0)"/>
     <use xlink:href="#DejaVuSans-Bold-2e" transform="translate(931.933594 0)"/>
     <use xlink:href="#DejaVuSans-Bold-32" transform="translate(969.921875 0)"/>
     <use xlink:href="#DejaVuSans-Bold-31" transform="translate(1039.501953 0)"/>
     <use xlink:href="#DejaVuSans-Bold-31" transform="translate(1109.082031 0)"/>
    </g>
   </g>
  </g>
  <g id="axes_3">
   <g id="patch_4">
    <path d="M 679.188438 274.048 
L 958.888437 274.048 
L 958.888437 73.728 
L 679.188438 73.728 
z
" style="fill: #ffffff"/>
   </g>
   <g id="QuadMesh_3">
    <path d="M 679.188438 73.728 
L 772.421771 73.728 
L 772.421771 140.501333 
L 679.188438 140.501333 
L 679.188438 73.728 
" clip-path="url(#pb6212062f7)" style="fill: #08306b; stroke: #ffffff; stroke-width: 0.5"/>
    <path d="M 772.421771 73.728 
L 865.655104 73.728 
L 865.655104 140.501333 
L 772.421771 140.501333 
L 772.421771 73.728 
" clip-path="url(#pb6212062f7)" style="fill: #d7e6f5; stroke: #ffffff; stroke-width: 0.5"/>
    <path d="M 865.655104 73.728 
L 958.888437 73.728 
L 958.888437 140.501333 
L 865.655104 140.501333 
L 865.655104 73.728 
" clip-path="url(#pb6212062f7)" style="fill: #eef5fc; stroke: #ffffff; stroke-width: 0.5"/>
    <path d="M 679.188438 140.501333 
L 772.421771 140.501333 
L 772.421771 207.274667 
L 679.188438 207.274667 
L 679.188438 140.501333 
" clip-path="url(#pb6212062f7)" style="fill: #e9f2fa; stroke: #ffffff; stroke-width: 0.5"/>
    <path d="M 772.421771 140.501333 
L 865.655104 140.501333 
L 865.655104 207.274667 
L 772.421771 207.274667 
L 772.421771 140.501333 
" clip-path="url(#pb6212062f7)" style="fill: #ebf3fb; stroke: #ffffff; stroke-width: 0.5"/>
    <path d="M 865.655104 140.501333 
L 958.888437 140.501333 
L 958.888437 207.274667 
L 865.655104 207.274667 
L 865.655104 140.501333 
" clip-path="url(#pb6212062f7)" style="fill: #e3eef9; stroke: #ffffff; stroke-width: 0.5"/>
    <path d="M 679.188438 207.274667 
L 772.421771 207.274667 
L 772.421771 274.048 
L 679.188438 274.048 
L 679.188438 207.274667 
" clip-path="url(#pb6212062f7)" style="fill: #f7fbff; stroke: #ffffff; stroke-width: 0.5"/>
    <path d="M 772.421771 207.274667 
L 865.655104 207.274667 
L 865.655104 274.048 
L 772.421771 274.048 
L 772.421771 207.274667 
" clip-path="url(#pb6212062f7)" style="fill: #f7fbff; stroke: #ffffff; stroke-width: 0.5"/>
    <path d="M 865.655104 207.274667 
L 958.888437 207.274667 
L 958.888437 274.048 
L 865.655104 274.048 
L 865.655104 207.274667 
" clip-path="url(#pb6212062f7)" style="fill: #a0cbe2; stroke: #ffffff; stroke-width: 0.5"/>
   </g>
   <g id="matplotlib.axis_5">
    <g id="xtick_7">
     <g id="line2d_13">
      <g>
       <use xlink:href="#m8a52a22405" x="725.805104" y="274.048" style="stroke: #000000; stroke-width: 0.8"/>
      </g>
     </g>
     <g id="text_37">
      <!-- Yes -->
      <g transform="translate(717.732448 288.646437) scale(0.1 -0.1)">
       <use xlink:href="#DejaVuSans-59"/>
       <use xlink:href="#DejaVuSans-65" transform="translate(47.833984 0)"/>
       <use xlink:href="#DejaVuSans-73" transform="translate(109.357422 0)"/>
      </g>
     </g>
    </g>
    <g id="xtick_8">
     <g id="line2d_14">
      <g>
       <use xlink:href="#m8a52a22405" x="819.038437" y="274.048" style="stroke: #000000; stroke-width: 0.8"/>
      </g>
     </g>
     <g id="text_38">
      <!-- No -->
      <g transform="translate(812.238438 288.646437) scale(0.1 -0.1)">
       <use xlink:href="#DejaVuSans-4e"/>
       <use xlink:href="#DejaVuSans-6f" transform="translate(74.804688 0)"/>
      </g>
     </g>
    </g>
    <g id="xtick_9">
     <g id="line2d_15">
      <g>
       <use xlink:href="#m8a52a22405" x="912.271771" y="274.048" style="stroke: #000000; stroke-width: 0.8"/>
      </g>
     </g>
     <g id="text_39">
      <!-- N/A -->
      <g transform="translate(903.426458 288.646437) scale(0.1 -0.1)">
       <use xlink:href="#DejaVuSans-4e"/>
       <use xlink:href="#DejaVuSans-2f" transform="translate(74.804688 0)"/>
       <use xlink:href="#DejaVuSans-41" transform="translate(108.496094 0)"/>
      </g>
     </g>
    </g>
    <g id="text_40">
     <!-- Ensemble -->
     <g transform="translate(796.970859 301.564719) scale(0.09 -0.09)">
      <use xlink:href="#DejaVuSans-45"/>
      <use xlink:href="#DejaVuSans-6e" transform="translate(63.183594 0)"/>
      <use xlink:href="#DejaVuSans-73" transform="translate(126.5625 0)"/>
      <use xlink:href="#DejaVuSans-65" transform="translate(178.662109 0)"/>
      <use xlink:href="#DejaVuSans-6d" transform="translate(240.185547 0)"/>
      <use xlink:href="#DejaVuSans-62" transform="translate(337.597656 0)"/>
      <use xlink:href="#DejaVuSans-6c" transform="translate(401.074219 0)"/>
      <use xlink:href="#DejaVuSans-65" transform="translate(428.857422 0)"/>
     </g>
    </g>
   </g>
   <g id="matplotlib.axis_6">
    <g id="ytick_7">
     <g id="line2d_16">
      <g>
       <use xlink:href="#m3e59719ac3" x="679.188438" y="107.114667" style="stroke: #000000; stroke-width: 0.8"/>
      </g>
     </g>
     <g id="text_41">
      <!-- Yes -->
      <g transform="translate(670.10875 115.187323) rotate(-90) scale(0.1 -0.1)">
       <use xlink:href="#DejaVuSans-59"/>
       <use xlink:href="#DejaVuSans-65" transform="translate(47.833984 0)"/>
       <use xlink:href="#DejaVuSans-73" transform="translate(109.357422 0)"/>
      </g>
     </g>
    </g>
    <g id="ytick_8">
     <g id="line2d_17">
      <g>
       <use xlink:href="#m3e59719ac3" x="679.188438" y="173.888" style="stroke: #000000; stroke-width: 0.8"/>
      </g>
     </g>
     <g id="text_42">
      <!-- No -->
      <g transform="translate(670.10875 180.688) rotate(-90) scale(0.1 -0.1)">
       <use xlink:href="#DejaVuSans-4e"/>
       <use xlink:href="#DejaVuSans-6f" transform="translate(74.804688 0)"/>
      </g>
     </g>
    </g>
    <g id="ytick_9">
     <g id="line2d_18">
      <g>
       <use xlink:href="#m3e59719ac3" x="679.188438" y="240.661333" style="stroke: #000000; stroke-width: 0.8"/>
      </g>
     </g>
     <g id="text_43">
      <!-- N/A -->
      <g transform="translate(670.10875 249.506646) rotate(-90) scale(0.1 -0.1)">
       <use xlink:href="#DejaVuSans-4e"/>
       <use xlink:href="#DejaVuSans-2f" transform="translate(74.804688 0)"/>
       <use xlink:href="#DejaVuSans-41" transform="translate(108.496094 0)"/>
      </g>
     </g>
    </g>
    <g id="text_44">
     <!-- Human -->
     <g transform="translate(656.638594 190.116828) rotate(-90) scale(0.09 -0.09)">
      <use xlink:href="#DejaVuSans-48"/>
      <use xlink:href="#DejaVuSans-75" transform="translate(75.195312 0)"/>
      <use xlink:href="#DejaVuSans-6d" transform="translate(138.574219 0)"/>
      <use xlink:href="#DejaVuSans-61" transform="translate(235.986328 0)"/>
      <use xlink:href="#DejaVuSans-6e" transform="translate(297.265625 0)"/>
     </g>
    </g>
   </g>
   <g id="text_45">
    <!-- 248 -->
    <g style="fill: #ffffff" transform="translate(715.306979 110.149979) scale(0.11 -0.11)">
     <defs>
      <path id="DejaVuSans-38" d="M 2034 2216 
Q 1584 2216 1326 1975 
Q 1069 1734 1069 1313 
Q 1069 891 1326 650 
Q 1584 409 2034 409 
Q 2484 409 2743 651 
Q 3003 894 3003 1313 
Q 3003 1734 2745 1975 
Q 2488 2216 2034 2216 
z
M 1403 2484 
Q 997 2584 770 2862 
Q 544 3141 544 3541 
Q 544 4100 942 4425 
Q 1341 4750 2034 4750 
Q 2731 4750 3128 4425 
Q 3525 4100 3525 3541 
Q 3525 3141 3298 2862 
Q 3072 2584 2669 2484 
Q 3125 2378 3379 2068 
Q 3634 1759 3634 1313 
Q 3634 634 3220 271 
Q 2806 -91 2034 -91 
Q 1263 -91 848 271 
Q 434 634 434 1313 
Q 434 1759 690 2068 
Q 947 2378 1403 2484 
z
M 1172 3481 
Q 1172 3119 1398 2916 
Q 1625 2713 2034 2713 
Q 2441 2713 2670 2916 
Q 2900 3119 2900 3481 
Q 2900 3844 2670 4047 
Q 2441 4250 2034 4250 
Q 1625 4250 1398 4047 
Q 1172 3844 1172 3481 
z
" transform="scale(0.015625)"/>
     </defs>
     <use xlink:href="#DejaVuSans-32"/>
     <use xlink:href="#DejaVuSans-34" transform="translate(63.623047 0)"/>
     <use xlink:href="#DejaVuSans-38" transform="translate(127.246094 0)"/>
    </g>
   </g>
   <g id="text_46">
    <!-- 40 -->
    <g style="fill: #262626" transform="translate(812.039688 110.149979) scale(0.11 -0.11)">
     <use xlink:href="#DejaVuSans-34"/>
     <use xlink:href="#DejaVuSans-30" transform="translate(63.623047 0)"/>
    </g>
   </g>
   <g id="text_47">
    <!-- 11 -->
    <g style="fill: #262626" transform="translate(905.273021 110.149979) scale(0.11 -0.11)">
     <use xlink:href="#DejaVuSans-31"/>
     <use xlink:href="#DejaVuSans-31" transform="translate(63.623047 0)"/>
    </g>
   </g>
   <g id="text_48">
    <!-- 18 -->
    <g style="fill: #262626" transform="translate(718.806354 176.923312) scale(0.11 -0.11)">
     <use xlink:href="#DejaVuSans-31"/>
     <use xlink:href="#DejaVuSans-38" transform="translate(63.623047 0)"/>
    </g>
   </g>
   <g id="text_49">
    <!-- 15 -->
    <g style="fill: #262626" transform="translate(812.039688 176.923312) scale(0.11 -0.11)">
     <use xlink:href="#DejaVuSans-31"/>
     <use xlink:href="#DejaVuSans-35" transform="translate(63.623047 0)"/>
    </g>
   </g>
   <g id="text_50">
    <!-- 25 -->
    <g style="fill: #262626" transform="translate(905.273021 176.923312) scale(0.11 -0.11)">
     <use xlink:href="#DejaVuSans-32"/>
     <use xlink:href="#DejaVuSans-35" transform="translate(63.623047 0)"/>
    </g>
   </g>
   <g id="text_51">
    <!-- 0 -->
    <g style="fill: #262626" transform="translate(722.305729 243.696646) scale(0.11 -0.11)">
     <use xlink:href="#DejaVuSans-30"/>
    </g>
   </g>
   <g id="text_52">
    <!-- 0 -->
    <g style="fill: #262626" transform="translate(815.539062 243.696646) scale(0.11 -0.11)">
     <use xlink:href="#DejaVuSans-30"/>
    </g>
   </g>
   <g id="text_53">
    <!-- 92 -->
    <g style="fill: #262626" transform="translate(905.273021 243.696646) scale(0.11 -0.11)">
     <use xlink:href="#DejaVuSans-39"/>
     <use xlink:href="#DejaVuSans-32" transform="translate(63.623047 0)"/>
    </g>
   </g>
   <g id="text_54">
    <!-- label_accuracy -->
    <g transform="translate(777.840781 56.252062) scale(0.1 -0.1)">
     <defs>
      <path id="DejaVuSans-Bold-62" d="M 2400 722 
Q 2759 722 2948 984 
Q 3138 1247 3138 1747 
Q 3138 2247 2948 2509 
Q 2759 2772 2400 2772 
Q 2041 2772 1848 2508 
Q 1656 2244 1656 1747 
Q 1656 1250 1848 986 
Q 2041 722 2400 722 
z
M 1656 2988 
Q 1888 3294 2169 3439 
Q 2450 3584 2816 3584 
Q 3463 3584 3878 3070 
Q 4294 2556 4294 1747 
Q 4294 938 3878 423 
Q 3463 -91 2816 -91 
Q 2450 -91 2169 54 
Q 1888 200 1656 506 
L 1656 0 
L 538 0 
L 538 4863 
L 1656 4863 
L 1656 2988 
z
" transform="scale(0.015625)"/>
      <path id="DejaVuSans-Bold-5f" d="M 3200 -916 
L 3200 -1509 
L 0 -1509 
L 0 -916 
L 3200 -916 
z
" transform="scale(0.015625)"/>
      <path id="DejaVuSans-Bold-75" d="M 500 1363 
L 500 3500 
L 1625 3500 
L 1625 3150 
Q 1625 2866 1622 2436 
Q 1619 2006 1619 1863 
Q 1619 1441 1641 1255 
Q 1663 1069 1716 984 
Q 1784 875 1895 815 
Q 2006 756 2150 756 
Q 2500 756 2700 1025 
Q 2900 1294 2900 1772 
L 2900 3500 
L 4019 3500 
L 4019 0 
L 2900 0 
L 2900 506 
Q 2647 200 2364 54 
Q 2081 -91 1741 -91 
Q 1134 -91 817 281 
Q 500 653 500 1363 
z
" transform="scale(0.015625)"/>
      <path id="DejaVuSans-Bold-79" d="M 78 3500 
L 1197 3500 
L 2138 1125 
L 2938 3500 
L 4056 3500 
L 2584 -331 
Q 2363 -916 2067 -1148 
Q 1772 -1381 1288 -1381 
L 641 -1381 
L 641 -647 
L 991 -647 
Q 1275 -647 1404 -556 
Q 1534 -466 1606 -231 
L 1638 -134 
L 78 3500 
z
" transform="scale(0.015625)"/>
     </defs>
     <use xlink:href="#DejaVuSans-Bold-6c"/>
     <use xlink:href="#DejaVuSans-Bold-61" transform="translate(34.277344 0)"/>
     <use xlink:href="#DejaVuSans-Bold-62" transform="translate(101.757812 0)"/>
     <use xlink:href="#DejaVuSans-Bold-65" transform="translate(173.339844 0)"/>
     <use xlink:href="#DejaVuSans-Bold-6c" transform="translate(241.162109 0)"/>
     <use xlink:href="#DejaVuSans-Bold-5f" transform="translate(275.439453 0)"/>
     <use xlink:href="#DejaVuSans-Bold-61" transform="translate(325.439453 0)"/>
     <use xlink:href="#DejaVuSans-Bold-63" transform="translate(392.919922 0)"/>
     <use xlink:href="#DejaVuSans-Bold-63" transform="translate(452.197266 0)"/>
     <use xlink:href="#DejaVuSans-Bold-75" transform="translate(511.474609 0)"/>
     <use xlink:href="#DejaVuSans-Bold-72" transform="translate(582.666016 0)"/>
     <use xlink:href="#DejaVuSans-Bold-61" transform="translate(631.982422 0)"/>
     <use xlink:href="#DejaVuSans-Bold-63" transform="translate(699.462891 0)"/>
     <use xlink:href="#DejaVuSans-Bold-79" transform="translate(758.740234 0)"/>
    </g>
    <!-- Exact=0.79  κ=0.606 -->
    <g transform="translate(760.105625 67.728) scale(0.1 -0.1)">
     <defs>
      <path id="DejaVuSans-Bold-37" d="M 428 4666 
L 3944 4666 
L 3944 3988 
L 2125 0 
L 953 0 
L 2675 3781 
L 428 3781 
L 428 4666 
z
" transform="scale(0.015625)"/>
     </defs>
     <use xlink:href="#DejaVuSans-Bold-45"/>
     <use xlink:href="#DejaVuSans-Bold-78" transform="translate(68.310547 0)"/>
     <use xlink:href="#DejaVuSans-Bold-61" transform="translate(132.8125 0)"/>
     <use xlink:href="#DejaVuSans-Bold-63" transform="translate(200.292969 0)"/>
     <use xlink:href="#DejaVuSans-Bold-74" transform="translate(259.570312 0)"/>
     <use xlink:href="#DejaVuSans-Bold-3d" transform="translate(307.373047 0)"/>
     <use xlink:href="#DejaVuSans-Bold-30" transform="translate(391.162109 0)"/>
     <use xlink:href="#DejaVuSans-Bold-2e" transform="translate(460.742188 0)"/>
     <use xlink:href="#DejaVuSans-Bold-37" transform="translate(498.730469 0)"/>
     <use xlink:href="#DejaVuSans-Bold-39" transform="translate(568.310547 0)"/>
     <use xlink:href="#DejaVuSans-Bold-20" transform="translate(637.890625 0)"/>
     <use xlink:href="#DejaVuSans-Bold-20" transform="translate(672.705078 0)"/>
     <use xlink:href="#DejaVuSans-Bold-3ba" transform="translate(707.519531 0)"/>
     <use xlink:href="#DejaVuSans-Bold-3d" transform="translate(778.564453 0)"/>
     <use xlink:href="#DejaVuSans-Bold-30" transform="translate(862.353516 0)"/>
     <use xlink:href="#DejaVuSans-Bold-2e" transform="translate(931.933594 0)"/>
     <use xlink:href="#DejaVuSans-Bold-36" transform="translate(969.921875 0)"/>
     <use xlink:href="#DejaVuSans-Bold-30" transform="translate(1039.501953 0)"/>
     <use xlink:href="#DejaVuSans-Bold-36" transform="translate(1109.082031 0)"/>
    </g>
   </g>
  </g>
  <g id="axes_4">
   <g id="patch_5">
    <path d="M 1000.488438 274.048 
L 1280.188437 274.048 
L 1280.188437 73.728 
L 1000.488438 73.728 
z
" style="fill: #ffffff"/>
   </g>
   <g id="QuadMesh_4">
    <path d="M 1000.488438 73.728 
L 1093.721771 73.728 
L 1093.721771 140.501333 
L 1000.488438 140.501333 
L 1000.488438 73.728 
" clip-path="url(#p245f15146d)" style="fill: #08306b; stroke: #ffffff; stroke-width: 0.5"/>
    <path d="M 1093.721771 73.728 
L 1186.955104 73.728 
L 1186.955104 140.501333 
L 1093.721771 140.501333 
L 1093.721771 73.728 
" clip-path="url(#p245f15146d)" style="fill: #cbdef1; stroke: #ffffff; stroke-width: 0.5"/>
    <path d="M 1186.955104 73.728 
L 1280.188437 73.728 
L 1280.188437 140.501333 
L 1186.955104 140.501333 
L 1186.955104 73.728 
" clip-path="url(#p245f15146d)" style="fill: #f2f7fd; stroke: #ffffff; stroke-width: 0.5"/>
    <path d="M 1000.488438 140.501333 
L 1093.721771 140.501333 
L 1093.721771 207.274667 
L 1000.488438 207.274667 
L 1000.488438 140.501333 
" clip-path="url(#p245f15146d)" style="fill: #e4eff9; stroke: #ffffff; stroke-width: 0.5"/>
    <path d="M 1093.721771 140.501333 
L 1186.955104 140.501333 
L 1186.955104 207.274667 
L 1093.721771 207.274667 
L 1093.721771 140.501333 
" clip-path="url(#p245f15146d)" style="fill: #e0ecf8; stroke: #ffffff; stroke-width: 0.5"/>
    <path d="M 1186.955104 140.501333 
L 1280.188437 140.501333 
L 1280.188437 207.274667 
L 1186.955104 207.274667 
L 1186.955104 140.501333 
" clip-path="url(#p245f15146d)" style="fill: #dce9f6; stroke: #ffffff; stroke-width: 0.5"/>
    <path d="M 1000.488438 207.274667 
L 1093.721771 207.274667 
L 1093.721771 274.048 
L 1000.488438 274.048 
L 1000.488438 207.274667 
" clip-path="url(#p245f15146d)" style="fill: #f7fbff; stroke: #ffffff; stroke-width: 0.5"/>
    <path d="M 1093.721771 207.274667 
L 1186.955104 207.274667 
L 1186.955104 274.048 
L 1093.721771 274.048 
L 1093.721771 207.274667 
" clip-path="url(#p245f15146d)" style="fill: #edf4fc; stroke: #ffffff; stroke-width: 0.5"/>
    <path d="M 1186.955104 207.274667 
L 1280.188437 207.274667 
L 1280.188437 274.048 
L 1186.955104 274.048 
L 1186.955104 207.274667 
" clip-path="url(#p245f15146d)" style="fill: #d3e4f3; stroke: #ffffff; stroke-width: 0.5"/>
   </g>
   <g id="matplotlib.axis_7">
    <g id="xtick_10">
     <g id="line2d_19">
      <g>
       <use xlink:href="#m8a52a22405" x="1047.105104" y="274.048" style="stroke: #000000; stroke-width: 0.8"/>
      </g>
     </g>
     <g id="text_55">
      <!-- Yes -->
      <g transform="translate(1039.032448 288.646437) scale(0.1 -0.1)">
       <use xlink:href="#DejaVuSans-59"/>
       <use xlink:href="#DejaVuSans-65" transform="translate(47.833984 0)"/>
       <use xlink:href="#DejaVuSans-73" transform="translate(109.357422 0)"/>
      </g>
     </g>
    </g>
    <g id="xtick_11">
     <g id="line2d_20">
      <g>
       <use xlink:href="#m8a52a22405" x="1140.338437" y="274.048" style="stroke: #000000; stroke-width: 0.8"/>
      </g>
     </g>
     <g id="text_56">
      <!-- No -->
      <g transform="translate(1133.538437 288.646437) scale(0.1 -0.1)">
       <use xlink:href="#DejaVuSans-4e"/>
       <use xlink:href="#DejaVuSans-6f" transform="translate(74.804688 0)"/>
      </g>
     </g>
    </g>
    <g id="xtick_12">
     <g id="line2d_21">
      <g>
       <use xlink:href="#m8a52a22405" x="1233.571771" y="274.048" style="stroke: #000000; stroke-width: 0.8"/>
      </g>
     </g>
     <g id="text_57">
      <!-- N/A -->
      <g transform="translate(1224.726458 288.646437) scale(0.1 -0.1)">
       <use xlink:href="#DejaVuSans-4e"/>
       <use xlink:href="#DejaVuSans-2f" transform="translate(74.804688 0)"/>
       <use xlink:href="#DejaVuSans-41" transform="translate(108.496094 0)"/>
      </g>
     </g>
    </g>
    <g id="text_58">
     <!-- Ensemble -->
     <g transform="translate(1118.270859 301.564719) scale(0.09 -0.09)">
      <use xlink:href="#DejaVuSans-45"/>
      <use xlink:href="#DejaVuSans-6e" transform="translate(63.183594 0)"/>
      <use xlink:href="#DejaVuSans-73" transform="translate(126.5625 0)"/>
      <use xlink:href="#DejaVuSans-65" transform="translate(178.662109 0)"/>
      <use xlink:href="#DejaVuSans-6d" transform="translate(240.185547 0)"/>
      <use xlink:href="#DejaVuSans-62" transform="translate(337.597656 0)"/>
      <use xlink:href="#DejaVuSans-6c" transform="translate(401.074219 0)"/>
      <use xlink:href="#DejaVuSans-65" transform="translate(428.857422 0)"/>
     </g>
    </g>
   </g>
   <g id="matplotlib.axis_8">
    <g id="ytick_10">
     <g id="line2d_22">
      <g>
       <use xlink:href="#m3e59719ac3" x="1000.488438" y="107.114667" style="stroke: #000000; stroke-width: 0.8"/>
      </g>
     </g>
     <g id="text_59">
      <!-- Yes -->
      <g transform="translate(991.40875 115.187323) rotate(-90) scale(0.1 -0.1)">
       <use xlink:href="#DejaVuSans-59"/>
       <use xlink:href="#DejaVuSans-65" transform="translate(47.833984 0)"/>
       <use xlink:href="#DejaVuSans-73" transform="translate(109.357422 0)"/>
      </g>
     </g>
    </g>
    <g id="ytick_11">
     <g id="line2d_23">
      <g>
       <use xlink:href="#m3e59719ac3" x="1000.488438" y="173.888" style="stroke: #000000; stroke-width: 0.8"/>
      </g>
     </g>
     <g id="text_60">
      <!-- No -->
      <g transform="translate(991.40875 180.688) rotate(-90) scale(0.1 -0.1)">
       <use xlink:href="#DejaVuSans-4e"/>
       <use xlink:href="#DejaVuSans-6f" transform="translate(74.804688 0)"/>
      </g>
     </g>
    </g>
    <g id="ytick_12">
     <g id="line2d_24">
      <g>
       <use xlink:href="#m3e59719ac3" x="1000.488438" y="240.661333" style="stroke: #000000; stroke-width: 0.8"/>
      </g>
     </g>
     <g id="text_61">
      <!-- N/A -->
      <g transform="translate(991.40875 249.506646) rotate(-90) scale(0.1 -0.1)">
       <use xlink:href="#DejaVuSans-4e"/>
       <use xlink:href="#DejaVuSans-2f" transform="translate(74.804688 0)"/>
       <use xlink:href="#DejaVuSans-41" transform="translate(108.496094 0)"/>
      </g>
     </g>
    </g>
    <g id="text_62">
     <!-- Human -->
     <g transform="translate(977.938594 190.116828) rotate(-90) scale(0.09 -0.09)">
      <use xlink:href="#DejaVuSans-48"/>
      <use xlink:href="#DejaVuSans-75" transform="translate(75.195312 0)"/>
      <use xlink:href="#DejaVuSans-6d" transform="translate(138.574219 0)"/>
      <use xlink:href="#DejaVuSans-61" transform="translate(235.986328 0)"/>
      <use xlink:href="#DejaVuSans-6e" transform="translate(297.265625 0)"/>
     </g>
    </g>
   </g>
   <g id="text_63">
    <!-- 241 -->
    <g style="fill: #ffffff" transform="translate(1036.606979 110.149979) scale(0.11 -0.11)">
     <use xlink:href="#DejaVuSans-32"/>
     <use xlink:href="#DejaVuSans-34" transform="translate(63.623047 0)"/>
     <use xlink:href="#DejaVuSans-31" transform="translate(127.246094 0)"/>
    </g>
   </g>
   <g id="text_64">
    <!-- 54 -->
    <g style="fill: #262626" transform="translate(1133.339687 110.149979) scale(0.11 -0.11)">
     <use xlink:href="#DejaVuSans-35"/>
     <use xlink:href="#DejaVuSans-34" transform="translate(63.623047 0)"/>
    </g>
   </g>
   <g id="text_65">
    <!-- 7 -->
    <g style="fill: #262626" transform="translate(1230.072396 110.149979) scale(0.11 -0.11)">
     <use xlink:href="#DejaVuSans-37"/>
    </g>
   </g>
   <g id="text_66">
    <!-- 23 -->
    <g style="fill: #262626" transform="translate(1040.106354 176.923312) scale(0.11 -0.11)">
     <use xlink:href="#DejaVuSans-32"/>
     <use xlink:href="#DejaVuSans-33" transform="translate(63.623047 0)"/>
    </g>
   </g>
   <g id="text_67">
    <!-- 28 -->
    <g style="fill: #262626" transform="translate(1133.339687 176.923312) scale(0.11 -0.11)">
     <use xlink:href="#DejaVuSans-32"/>
     <use xlink:href="#DejaVuSans-38" transform="translate(63.623047 0)"/>
    </g>
   </g>
   <g id="text_68">
    <!-- 33 -->
    <g style="fill: #262626" transform="translate(1226.573021 176.923312) scale(0.11 -0.11)">
     <use xlink:href="#DejaVuSans-33"/>
     <use xlink:href="#DejaVuSans-33" transform="translate(63.623047 0)"/>
    </g>
   </g>
   <g id="text_69">
    <!-- 0 -->
    <g style="fill: #262626" transform="translate(1043.605729 243.696646) scale(0.11 -0.11)">
     <use xlink:href="#DejaVuSans-30"/>
    </g>
   </g>
   <g id="text_70">
    <!-- 13 -->
    <g style="fill: #262626" transform="translate(1133.339687 243.696646) scale(0.11 -0.11)">
     <use xlink:href="#DejaVuSans-31"/>
     <use xlink:href="#DejaVuSans-33" transform="translate(63.623047 0)"/>
    </g>
   </g>
   <g id="text_71">
    <!-- 44 -->
    <g style="fill: #262626" transform="translate(1226.573021 243.696646) scale(0.11 -0.11)">
     <use xlink:href="#DejaVuSans-34"/>
     <use xlink:href="#DejaVuSans-34" transform="translate(63.623047 0)"/>
    </g>
   </g>
   <g id="text_72">
    <!-- labeling -->
    <g transform="translate(1117.713437 56.452062) scale(0.1 -0.1)">
     <use xlink:href="#DejaVuSans-Bold-6c"/>
     <use xlink:href="#DejaVuSans-Bold-61" transform="translate(34.277344 0)"/>
     <use xlink:href="#DejaVuSans-Bold-62" transform="translate(101.757812 0)"/>
     <use xlink:href="#DejaVuSans-Bold-65" transform="translate(173.339844 0)"/>
     <use xlink:href="#DejaVuSans-Bold-6c" transform="translate(241.162109 0)"/>
     <use xlink:href="#DejaVuSans-Bold-69" transform="translate(275.439453 0)"/>
     <use xlink:href="#DejaVuSans-Bold-6e" transform="translate(309.716797 0)"/>
     <use xlink:href="#DejaVuSans-Bold-67" transform="translate(380.908203 0)"/>
    </g>
    <!-- Exact=0.71  κ=0.445 -->
    <g transform="translate(1081.405625 67.728) scale(0.1 -0.1)">
     <defs>
      <path id="DejaVuSans-Bold-35" d="M 678 4666 
L 3669 4666 
L 3669 3781 
L 1638 3781 
L 1638 3059 
Q 1775 3097 1914 3117 
Q 2053 3138 2203 3138 
Q 3056 3138 3531 2711 
Q 4006 2284 4006 1522 
Q 4006 766 3489 337 
Q 2972 -91 2053 -91 
Q 1656 -91 1267 -14 
Q 878 63 494 219 
L 494 1166 
Q 875 947 1217 837 
Q 1559 728 1863 728 
Q 2300 728 2551 942 
Q 2803 1156 2803 1522 
Q 2803 1891 2551 2103 
Q 2300 2316 1863 2316 
Q 1603 2316 1309 2248 
Q 1016 2181 678 2041 
L 678 4666 
z
" transform="scale(0.015625)"/>
     </defs>
     <use xlink:href="#DejaVuSans-Bold-45"/>
     <use xlink:href="#DejaVuSans-Bold-78" transform="translate(68.310547 0)"/>
     <use xlink:href="#DejaVuSans-Bold-61" transform="translate(132.8125 0)"/>
     <use xlink:href="#DejaVuSans-Bold-63" transform="translate(200.292969 0)"/>
     <use xlink:href="#DejaVuSans-Bold-74" transform="translate(259.570312 0)"/>
     <use xlink:href="#DejaVuSans-Bold-3d" transform="translate(307.373047 0)"/>
     <use xlink:href="#DejaVuSans-Bold-30" transform="translate(391.162109 0)"/>
     <use xlink:href="#DejaVuSans-Bold-2e" transform="translate(460.742188 0)"/>
     <use xlink:href="#DejaVuSans-Bold-37" transform="translate(498.730469 0)"/>
     <use xlink:href="#DejaVuSans-Bold-31" transform="translate(568.310547 0)"/>
     <use xlink:href="#DejaVuSans-Bold-20" transform="translate(637.890625 0)"/>
     <use xlink:href="#DejaVuSans-Bold-20" transform="translate(672.705078 0)"/>
     <use xlink:href="#DejaVuSans-Bold-3ba" transform="translate(707.519531 0)"/>
     <use xlink:href="#DejaVuSans-Bold-3d" transform="translate(778.564453 0)"/>
     <use xlink:href="#DejaVuSans-Bold-30" transform="translate(862.353516 0)"/>
     <use xlink:href="#DejaVuSans-Bold-2e" transform="translate(931.933594 0)"/>
     <use xlink:href="#DejaVuSans-Bold-34" transform="translate(969.921875 0)"/>
     <use xlink:href="#DejaVuSans-Bold-34" transform="translate(1039.501953 0)"/>
     <use xlink:href="#DejaVuSans-Bold-35" transform="translate(1109.082031 0)"/>
    </g>
   </g>
  </g>
  <g id="text_73">
   <!-- Confusion Matrix per Dimension — Ensemble Majority vs Human Consensus -->
   <g transform="translate(366.311875 17.077969) scale(0.13 -0.13)">
    <defs>
     <path id="DejaVuSans-Bold-43" d="M 4288 256 
Q 3956 84 3597 -3 
Q 3238 -91 2847 -91 
Q 1681 -91 1000 561 
Q 319 1213 319 2328 
Q 319 3447 1000 4098 
Q 1681 4750 2847 4750 
Q 3238 4750 3597 4662 
Q 3956 4575 4288 4403 
L 4288 3438 
Q 3953 3666 3628 3772 
Q 3303 3878 2944 3878 
Q 2300 3878 1931 3465 
Q 1563 3053 1563 2328 
Q 1563 1606 1931 1193 
Q 2300 781 2944 781 
Q 3303 781 3628 887 
Q 3953 994 4288 1222 
L 4288 256 
z
" transform="scale(0.015625)"/>
     <path id="DejaVuSans-Bold-66" d="M 2841 4863 
L 2841 4128 
L 2222 4128 
Q 1984 4128 1890 4042 
Q 1797 3956 1797 3744 
L 1797 3500 
L 2753 3500 
L 2753 2700 
L 1797 2700 
L 1797 0 
L 678 0 
L 678 2700 
L 122 2700 
L 122 3500 
L 678 3500 
L 678 3744 
Q 678 4316 997 4589 
Q 1316 4863 1984 4863 
L 2841 4863 
z
" transform="scale(0.015625)"/>
     <path id="DejaVuSans-Bold-4d" d="M 588 4666 
L 2119 4666 
L 3181 2169 
L 4250 4666 
L 5778 4666 
L 5778 0 
L 4641 0 
L 4641 3413 
L 3566 897 
L 2803 897 
L 1728 3413 
L 1728 0 
L 588 0 
L 588 4666 
z
" transform="scale(0.015625)"/>
     <path id="DejaVuSans-Bold-70" d="M 1656 506 
L 1656 -1331 
L 538 -1331 
L 538 3500 
L 1656 3500 
L 1656 2988 
Q 1888 3294 2169 3439 
Q 2450 3584 2816 3584 
Q 3463 3584 3878 3070 
Q 4294 2556 4294 1747 
Q 4294 938 3878 423 
Q 3463 -91 2816 -91 
Q 2450 -91 2169 54 
Q 1888 200 1656 506 
z
M 2400 2772 
Q 2041 2772 1848 2508 
Q 1656 2244 1656 1747 
Q 1656 1250 1848 986 
Q 2041 722 2400 722 
Q 2759 722 2948 984 
Q 3138 1247 3138 1747 
Q 3138 2247 2948 2509 
Q 2759 2772 2400 2772 
z
" transform="scale(0.015625)"/>
     <path id="DejaVuSans-Bold-44" d="M 1791 3756 
L 1791 909 
L 2222 909 
Q 2959 909 3348 1275 
Q 3738 1641 3738 2338 
Q 3738 3031 3350 3393 
Q 2963 3756 2222 3756 
L 1791 3756 
z
M 588 4666 
L 1856 4666 
Q 2919 4666 3439 4514 
Q 3959 4363 4331 4000 
Q 4659 3684 4818 3271 
Q 4978 2859 4978 2338 
Q 4978 1809 4818 1395 
Q 4659 981 4331 666 
Q 3956 303 3431 151 
Q 2906 0 1856 0 
L 588 0 
L 588 4666 
z
" transform="scale(0.015625)"/>
     <path id="DejaVuSans-Bold-6d" d="M 3781 2919 
Q 3994 3244 4286 3414 
Q 4578 3584 4928 3584 
Q 5531 3584 5847 3212 
Q 6163 2841 6163 2131 
L 6163 0 
L 5038 0 
L 5038 1825 
Q 5041 1866 5042 1909 
Q 5044 1953 5044 2034 
Q 5044 2406 4934 2573 
Q 4825 2741 4581 2741 
Q 4263 2741 4089 2478 
Q 3916 2216 3909 1719 
L 3909 0 
L 2784 0 
L 2784 1825 
Q 2784 2406 2684 2573 
Q 2584 2741 2328 2741 
Q 2006 2741 1831 2477 
Q 1656 2213 1656 1722 
L 1656 0 
L 531 0 
L 531 3500 
L 1656 3500 
L 1656 2988 
Q 1863 3284 2130 3434 
Q 2397 3584 2719 3584 
Q 3081 3584 3359 3409 
Q 3638 3234 3781 2919 
z
" transform="scale(0.015625)"/>
     <path id="DejaVuSans-Bold-2014" d="M 344 2156 
L 6056 2156 
L 6056 1350 
L 344 1350 
L 344 2156 
z
" transform="scale(0.015625)"/>
     <path id="DejaVuSans-Bold-6a" d="M 538 3500 
L 1656 3500 
L 1656 63 
Q 1656 -641 1318 -1011 
Q 981 -1381 341 -1381 
L -213 -1381 
L -213 -647 
L -19 -647 
Q 300 -647 419 -503 
Q 538 -359 538 63 
L 538 3500 
z
M 538 4863 
L 1656 4863 
L 1656 3950 
L 538 3950 
L 538 4863 
z
" transform="scale(0.015625)"/>
     <path id="DejaVuSans-Bold-76" d="M 97 3500 
L 1216 3500 
L 2088 1081 
L 2956 3500 
L 4078 3500 
L 2700 0 
L 1472 0 
L 97 3500 
z
" transform="scale(0.015625)"/>
     <path id="DejaVuSans-Bold-48" d="M 588 4666 
L 1791 4666 
L 1791 2888 
L 3566 2888 
L 3566 4666 
L 4769 4666 
L 4769 0 
L 3566 0 
L 3566 1978 
L 1791 1978 
L 1791 0 
L 588 0 
L 588 4666 
z
" transform="scale(0.015625)"/>
    </defs>
    <use xlink:href="#DejaVuSans-Bold-43"/>
    <use xlink:href="#DejaVuSans-Bold-6f" transform="translate(73.388672 0)"/>
    <use xlink:href="#DejaVuSans-Bold-6e" transform="translate(142.089844 0)"/>
    <use xlink:href="#DejaVuSans-Bold-66" transform="translate(213.28125 0)"/>
    <use xlink:href="#DejaVuSans-Bold-75" transform="translate(256.787109 0)"/>
    <use xlink:href="#DejaVuSans-Bold-73" transform="translate(327.978516 0)"/>
    <use xlink:href="#DejaVuSans-Bold-69" transform="translate(387.5 0)"/>
    <use xlink:href="#DejaVuSans-Bold-6f" transform="translate(421.777344 0)"/>
    <use xlink:href="#DejaVuSans-Bold-6e" transform="translate(490.478516 0)"/>
    <use xlink:href="#DejaVuSans-Bold-20" transform="translate(561.669922 0)"/>
    <use xlink:href="#DejaVuSans-Bold-4d" transform="translate(596.484375 0)"/>
    <use xlink:href="#DejaVuSans-Bold-61" transform="translate(695.996094 0)"/>
    <use xlink:href="#DejaVuSans-Bold-74" transform="translate(763.476562 0)"/>
    <use xlink:href="#DejaVuSans-Bold-72" transform="translate(811.279297 0)"/>
    <use xlink:href="#DejaVuSans-Bold-69" transform="translate(860.595703 0)"/>
    <use xlink:href="#DejaVuSans-Bold-78" transform="translate(894.873047 0)"/>
    <use xlink:href="#DejaVuSans-Bold-20" transform="translate(959.375 0)"/>
    <use xlink:href="#DejaVuSans-Bold-70" transform="translate(994.189453 0)"/>
    <use xlink:href="#DejaVuSans-Bold-65" transform="translate(1065.771484 0)"/>
    <use xlink:href="#DejaVuSans-Bold-72" transform="translate(1133.59375 0)"/>
    <use xlink:href="#DejaVuSans-Bold-20" transform="translate(1182.910156 0)"/>
    <use xlink:href="#DejaVuSans-Bold-44" transform="translate(1217.724609 0)"/>
    <use xlink:href="#DejaVuSans-Bold-69" transform="translate(1300.732422 0)"/>
    <use xlink:href="#DejaVuSans-Bold-6d" transform="translate(1335.009766 0)"/>
    <use xlink:href="#DejaVuSans-Bold-65" transform="translate(1439.208984 0)"/>
    <use xlink:href="#DejaVuSans-Bold-6e" transform="translate(1507.03125 0)"/>
    <use xlink:href="#DejaVuSans-Bold-73" transform="translate(1578.222656 0)"/>
    <use xlink:href="#DejaVuSans-Bold-69" transform="translate(1637.744141 0)"/>
    <use xlink:href="#DejaVuSans-Bold-6f" transform="translate(1672.021484 0)"/>
    <use xlink:href="#DejaVuSans-Bold-6e" transform="translate(1740.722656 0)"/>
    <use xlink:href="#DejaVuSans-Bold-20" transform="translate(1811.914062 0)"/>
    <use xlink:href="#DejaVuSans-Bold-2014" transform="translate(1846.728516 0)"/>
    <use xlink:href="#DejaVuSans-Bold-20" transform="translate(1946.728516 0)"/>
    <use xlink:href="#DejaVuSans-Bold-45" transform="translate(1981.542969 0)"/>
    <use xlink:href="#DejaVuSans-Bold-6e" transform="translate(2049.853516 0)"/>
    <use xlink:href="#DejaVuSans-Bold-73" transform="translate(2121.044922 0)"/>
    <use xlink:href="#DejaVuSans-Bold-65" transform="translate(2180.566406 0)"/>
    <use xlink:href="#DejaVuSans-Bold-6d" transform="translate(2248.388672 0)"/>
    <use xlink:href="#DejaVuSans-Bold-62" transform="translate(2352.587891 0)"/>
    <use xlink:href="#DejaVuSans-Bold-6c" transform="translate(2424.169922 0)"/>
    <use xlink:href="#DejaVuSans-Bold-65" transform="translate(2458.447266 0)"/>
    <use xlink:href="#DejaVuSans-Bold-20" transform="translate(2526.269531 0)"/>
    <use xlink:href="#DejaVuSans-Bold-4d" transform="translate(2561.083984 0)"/>
    <use xlink:href="#DejaVuSans-Bold-61" transform="translate(2660.595703 0)"/>
    <use xlink:href="#DejaVuSans-Bold-6a" transform="translate(2728.076172 0)"/>
    <use xlink:href="#DejaVuSans-Bold-6f" transform="translate(2762.353516 0)"/>
    <use xlink:href="#DejaVuSans-Bold-72" transform="translate(2831.054688 0)"/>
    <use xlink:href="#DejaVuSans-Bold-69" transform="translate(2880.371094 0)"/>
    <use xlink:href="#DejaVuSans-Bold-74" transform="translate(2914.648438 0)"/>
    <use xlink:href="#DejaVuSans-Bold-79" transform="translate(2962.451172 0)"/>
    <use xlink:href="#DejaVuSans-Bold-20" transform="translate(3027.636719 0)"/>
    <use xlink:href="#DejaVuSans-Bold-76" transform="translate(3062.451172 0)"/>
    <use xlink:href="#DejaVuSans-Bold-73" transform="translate(3127.636719 0)"/>
    <use xlink:href="#DejaVuSans-Bold-20" transform="translate(3187.158203 0)"/>
    <use xlink:href="#DejaVuSans-Bold-48" transform="translate(3221.972656 0)"/>
    <use xlink:href="#DejaVuSans-Bold-75" transform="translate(3305.664062 0)"/>
    <use xlink:href="#DejaVuSans-Bold-6d" transform="translate(3376.855469 0)"/>
    <use xlink:href="#DejaVuSans-Bold-61" transform="translate(3481.054688 0)"/>
    <use xlink:href="#DejaVuSans-Bold-6e" transform="translate(3548.535156 0)"/>
    <use xlink:href="#DejaVuSans-Bold-20" transform="translate(3619.726562 0)"/>
    <use xlink:href="#DejaVuSans-Bold-43" transform="translate(3654.541016 0)"/>
    <use xlink:href="#DejaVuSans-Bold-6f" transform="translate(3727.929688 0)"/>
    <use xlink:href="#DejaVuSans-Bold-6e" transform="translate(3796.630859 0)"/>
    <use xlink:href="#DejaVuSans-Bold-73" transform="translate(3867.822266 0)"/>
    <use xlink:href="#DejaVuSans-Bold-65" transform="translate(3927.34375 0)"/>
    <use xlink:href="#DejaVuSans-Bold-6e" transform="translate(3995.166016 0)"/>
    <use xlink:href="#DejaVuSans-Bold-73" transform="translate(4066.357422 0)"/>
    <use xlink:href="#DejaVuSans-Bold-75" transform="translate(4125.878906 0)"/>
    <use xlink:href="#DejaVuSans-Bold-73" transform="translate(4197.070312 0)"/>
   </g>
  </g>
 </g>
 <defs>
  <clipPath id="pa5cb2d3533">
   <rect x="36.588438" y="73.728" width="279.7" height="200.32"/>
  </clipPath>
  <clipPath id="pc4cd07f98e">
   <rect x="357.888438" y="73.728" width="279.7" height="200.32"/>
  </clipPath>
  <clipPath id="pb6212062f7">
   <rect x="679.188438" y="73.728" width="279.7" height="200.32"/>
  </clipPath>
  <clipPath id="p245f15146d">
   <rect x="1000.488438" y="73.728" width="279.7" height="200.32"/>
  </clipPath>
 </defs>
</svg>
