<?xml version="1.0" encoding="utf-8" standalone="no"?>
<!DOCTYPE svg PUBLIC "-//W3C//DTD SVG 1.1//EN"
  "http://www.w3.org/Graphics/SVG/1.1/DTD/svg11.dtd">
<svg xmlns:xlink="http://www.w3.org/1999/xlink" width="1375.159687pt" height="309.80425pt" viewBox="0 0 1375.159687 309.80425" xmlns="http://www.w3.org/2000/svg" version="1.1">
 <metadata>
  <rdf:RDF xmlns:dc="http://purl.org/dc/elements/1.1/" xmlns:cc="http://creativecommons.org/ns#" xmlns:rdf="http://www.w3.org/1999/02/22-rdf-syntax-ns#">
   <cc:Work>
    <dc:type rdf:resource="http://purl.org/dc/dcmitype/StillImage"/>
    <dc:date>2026-03-17T09:21:30.485439</dc:date>
    <dc:format>image/svg+xml</dc:format>
    <dc:creator>
     <cc:Agent>
      <dc:title>Matplotlib v3.10.7, https://matplotlib.org/</dc:title>
     </cc:Agent>
    </dc:creator>
   </cc:Work>
  </rdf:RDF>
 </metadata>
 <defs>
  <style type="text/css">*{stroke-linejoin: round; stroke-linecap: butt}</style>
 </defs>
 <g id="figure_1">
  <g id="patch_1">
   <path d="M 0 309.80425 
L 1375.159687 309.80425 
L 1375.159687 0 
L 0 0 
z
" style="fill: #ffffff"/>
  </g>
  <g id="axes_1">
   <g id="patch_2">
    <path d="M 33.659688 272.248 
L 356.509687 272.248 
L 356.509687 61.248 
L 33.659688 61.248 
z
" style="fill: #ffffff"/>
   </g>
   <g id="matplotlib.axis_1">
    <g id="xtick_1">
     <g id="line2d_1">
      <path d="M 45.617095 272.248 
L 45.617095 61.248 
" clip-path="url(#p7241e6d26f)" style="fill: none; stroke: #eeeeee; stroke-width: 0.7; stroke-linecap: square"/>
     </g>
     <g id="line2d_2">
      <defs>
       <path id="m565447fe9e" d="M 0 0 
L 0 3.5 
" style="stroke: #000000; stroke-width: 0.8"/>
      </defs>
      <g>
       <use xlink:href="#m565447fe9e" x="45.617095" y="272.248" style="stroke: #000000; stroke-width: 0.8"/>
      </g>
     </g>
     <g id="text_1">
      <!-- 0.0 -->
      <g transform="translate(37.665532 286.846438) scale(0.1 -0.1)">
       <defs>
        <path id="DejaVuSans-30" d="M 2034 4250 
Q 1547 4250 1301 3770 
Q 1056 3291 1056 2328 
Q 1056 1369 1301 889 
Q 1547 409 2034 409 
Q 2525 409 2770 889 
Q 3016 1369 3016 2328 
Q 3016 3291 2770 3770 
Q 2525 4250 2034 4250 
z
M 2034 4750 
Q 2819 4750 3233 4129 
Q 3647 3509 3647 2328 
Q 3647 1150 3233 529 
Q 2819 -91 2034 -91 
Q 1250 -91 836 529 
Q 422 1150 422 2328 
Q 422 3509 836 4129 
Q 1250 4750 2034 4750 
z
" transform="scale(0.015625)"/>
        <path id="DejaVuSans-2e" d="M 684 794 
L 1344 794 
L 1344 0 
L 684 0 
L 684 794 
z
" transform="scale(0.015625)"/>
       </defs>
       <use xlink:href="#DejaVuSans-30"/>
       <use xlink:href="#DejaVuSans-2e" transform="translate(63.623047 0)"/>
       <use xlink:href="#DejaVuSans-30" transform="translate(95.410156 0)"/>
      </g>
     </g>
    </g>
    <g id="xtick_2">
     <g id="line2d_3">
      <path d="M 105.404132 272.248 
L 105.404132 61.248 
" clip-path="url(#p7241e6d26f)" style="fill: none; stroke: #eeeeee; stroke-width: 0.7; stroke-linecap: square"/>
     </g>
     <g id="line2d_4">
      <g>
       <use xlink:href="#m565447fe9e" x="105.404132" y="272.248" style="stroke: #000000; stroke-width: 0.8"/>
      </g>
     </g>
     <g id="text_2">
      <!-- 0.2 -->
      <g transform="translate(97.452569 286.846438) scale(0.1 -0.1)">
       <defs>
        <path id="DejaVuSans-32" d="M 1228 531 
L 3431 531 
L 3431 0 
L 469 0 
L 469 531 
Q 828 903 1448 1529 
Q 2069 2156 2228 2338 
Q 2531 2678 2651 2914 
Q 2772 3150 2772 3378 
Q 2772 3750 2511 3984 
Q 2250 4219 1831 4219 
Q 1534 4219 1204 4116 
Q 875 4013 500 3803 
L 500 4441 
Q 881 4594 1212 4672 
Q 1544 4750 1819 4750 
Q 2544 4750 2975 4387 
Q 3406 4025 3406 3419 
Q 3406 3131 3298 2873 
Q 3191 2616 2906 2266 
Q 2828 2175 2409 1742 
Q 1991 1309 1228 531 
z
" transform="scale(0.015625)"/>
       </defs>
       <use xlink:href="#DejaVuSans-30"/>
       <use xlink:href="#DejaVuSans-2e" transform="translate(63.623047 0)"/>
       <use xlink:href="#DejaVuSans-32" transform="translate(95.410156 0)"/>
      </g>
     </g>
    </g>
    <g id="xtick_3">
     <g id="line2d_5">
      <path d="M 165.191169 272.248 
L 165.191169 61.248 
" clip-path="url(#p7241e6d26f)" style="fill: none; stroke: #eeeeee; stroke-width: 0.7; stroke-linecap: square"/>
     </g>
     <g id="line2d_6">
      <g>
       <use xlink:href="#m565447fe9e" x="165.191169" y="272.248" style="stroke: #000000; stroke-width: 0.8"/>
      </g>
     </g>
     <g id="text_3">
      <!-- 0.4 -->
      <g transform="translate(157.239606 286.846438) scale(0.1 -0.1)">
       <defs>
        <path id="DejaVuSans-34" d="M 2419 4116 
L 825 1625 
L 2419 1625 
L 2419 4116 
z
M 2253 4666 
L 3047 4666 
L 3047 1625 
L 3713 1625 
L 3713 1100 
L 3047 1100 
L 3047 0 
L 2419 0 
L 2419 1100 
L 313 1100 
L 313 1709 
L 2253 4666 
z
" transform="scale(0.015625)"/>
       </defs>
       <use xlink:href="#DejaVuSans-30"/>
       <use xlink:href="#DejaVuSans-2e" transform="translate(63.623047 0)"/>
       <use xlink:href="#DejaVuSans-34" transform="translate(95.410156 0)"/>
      </g>
     </g>
    </g>
    <g id="xtick_4">
     <g id="line2d_7">
      <path d="M 224.978206 272.248 
L 224.978206 61.248 
" clip-path="url(#p7241e6d26f)" style="fill: none; stroke: #eeeeee; stroke-width: 0.7; stroke-linecap: square"/>
     </g>
     <g id="line2d_8">
      <g>
       <use xlink:href="#m565447fe9e" x="224.978206" y="272.248" style="stroke: #000000; stroke-width: 0.8"/>
      </g>
     </g>
     <g id="text_4">
      <!-- 0.6 -->
      <g transform="translate(217.026644 286.846438) scale(0.1 -0.1)">
       <defs>
        <path id="DejaVuSans-36" d="M 2113 2584 
Q 1688 2584 1439 2293 
Q 1191 2003 1191 1497 
Q 1191 994 1439 701 
Q 1688 409 2113 409 
Q 2538 409 2786 701 
Q 3034 994 3034 1497 
Q 3034 2003 2786 2293 
Q 2538 2584 2113 2584 
z
M 3366 4563 
L 3366 3988 
Q 3128 4100 2886 4159 
Q 2644 4219 2406 4219 
Q 1781 4219 1451 3797 
Q 1122 3375 1075 2522 
Q 1259 2794 1537 2939 
Q 1816 3084 2150 3084 
Q 2853 3084 3261 2657 
Q 3669 2231 3669 1497 
Q 3669 778 3244 343 
Q 2819 -91 2113 -91 
Q 1303 -91 875 529 
Q 447 1150 447 2328 
Q 447 3434 972 4092 
Q 1497 4750 2381 4750 
Q 2619 4750 2861 4703 
Q 3103 4656 3366 4563 
z
" transform="scale(0.015625)"/>
       </defs>
       <use xlink:href="#DejaVuSans-30"/>
       <use xlink:href="#DejaVuSans-2e" transform="translate(63.623047 0)"/>
       <use xlink:href="#DejaVuSans-36" transform="translate(95.410156 0)"/>
      </g>
     </g>
    </g>
    <g id="xtick_5">
     <g id="line2d_9">
      <path d="M 284.765243 272.248 
L 284.765243 61.248 
" clip-path="url(#p7241e6d26f)" style="fill: none; stroke: #eeeeee; stroke-width: 0.7; stroke-linecap: square"/>
     </g>
     <g id="line2d_10">
      <g>
       <use xlink:href="#m565447fe9e" x="284.765243" y="272.248" style="stroke: #000000; stroke-width: 0.8"/>
      </g>
     </g>
     <g id="text_5">
      <!-- 0.8 -->
      <g transform="translate(276.813681 286.846438) scale(0.1 -0.1)">
       <defs>
        <path id="DejaVuSans-38" d="M 2034 2216 
Q 1584 2216 1326 1975 
Q 1069 1734 1069 1313 
Q 1069 891 1326 650 
Q 1584 409 2034 409 
Q 2484 409 2743 651 
Q 3003 894 3003 1313 
Q 3003 1734 2745 1975 
Q 2488 2216 2034 2216 
z
M 1403 2484 
Q 997 2584 770 2862 
Q 544 3141 544 3541 
Q 544 4100 942 4425 
Q 1341 4750 2034 4750 
Q 2731 4750 3128 4425 
Q 3525 4100 3525 3541 
Q 3525 3141 3298 2862 
Q 3072 2584 2669 2484 
Q 3125 2378 3379 2068 
Q 3634 1759 3634 1313 
Q 3634 634 3220 271 
Q 2806 -91 2034 -91 
Q 1263 -91 848 271 
Q 434 634 434 1313 
Q 434 1759 690 2068 
Q 947 2378 1403 2484 
z
M 1172 3481 
Q 1172 3119 1398 2916 
Q 1625 2713 2034 2713 
Q 2441 2713 2670 2916 
Q 2900 3119 2900 3481 
Q 2900 3844 2670 4047 
Q 2441 4250 2034 4250 
Q 1625 4250 1398 4047 
Q 1172 3844 1172 3481 
z
" transform="scale(0.015625)"/>
       </defs>
       <use xlink:href="#DejaVuSans-30"/>
       <use xlink:href="#DejaVuSans-2e" transform="translate(63.623047 0)"/>
       <use xlink:href="#DejaVuSans-38" transform="translate(95.410156 0)"/>
      </g>
     </g>
    </g>
    <g id="xtick_6">
     <g id="line2d_11">
      <path d="M 344.55228 272.248 
L 344.55228 61.248 
" clip-path="url(#p7241e6d26f)" style="fill: none; stroke: #eeeeee; stroke-width: 0.7; stroke-linecap: square"/>
     </g>
     <g id="line2d_12">
      <g>
       <use xlink:href="#m565447fe9e" x="344.55228" y="272.248" style="stroke: #000000; stroke-width: 0.8"/>
      </g>
     </g>
     <g id="text_6">
      <!-- 1.0 -->
      <g transform="translate(336.600718 286.846438) scale(0.1 -0.1)">
       <defs>
        <path id="DejaVuSans-31" d="M 794 531 
L 1825 531 
L 1825 4091 
L 703 3866 
L 703 4441 
L 1819 4666 
L 2450 4666 
L 2450 531 
L 3481 531 
L 3481 0 
L 794 0 
L 794 531 
z
" transform="scale(0.015625)"/>
       </defs>
       <use xlink:href="#DejaVuSans-31"/>
       <use xlink:href="#DejaVuSans-2e" transform="translate(63.623047 0)"/>
       <use xlink:href="#DejaVuSans-30" transform="translate(95.410156 0)"/>
      </g>
     </g>
    </g>
    <g id="text_7">
     <!-- Proportion -->
     <g transform="translate(169.288594 300.524563) scale(0.1 -0.1)">
      <defs>
       <path id="DejaVuSans-50" d="M 1259 4147 
L 1259 2394 
L 2053 2394 
Q 2494 2394 2734 2622 
Q 2975 2850 2975 3272 
Q 2975 3691 2734 3919 
Q 2494 4147 2053 4147 
L 1259 4147 
z
M 628 4666 
L 2053 4666 
Q 2838 4666 3239 4311 
Q 3641 3956 3641 3272 
Q 3641 2581 3239 2228 
Q 2838 1875 2053 1875 
L 1259 1875 
L 1259 0 
L 628 0 
L 628 4666 
z
" transform="scale(0.015625)"/>
       <path id="DejaVuSans-72" d="M 2631 2963 
Q 2534 3019 2420 3045 
Q 2306 3072 2169 3072 
Q 1681 3072 1420 2755 
Q 1159 2438 1159 1844 
L 1159 0 
L 581 0 
L 581 3500 
L 1159 3500 
L 1159 2956 
Q 1341 3275 1631 3429 
Q 1922 3584 2338 3584 
Q 2397 3584 2469 3576 
Q 2541 3569 2628 3553 
L 2631 2963 
z
" transform="scale(0.015625)"/>
       <path id="DejaVuSans-6f" d="M 1959 3097 
Q 1497 3097 1228 2736 
Q 959 2375 959 1747 
Q 959 1119 1226 758 
Q 1494 397 1959 397 
Q 2419 397 2687 759 
Q 2956 1122 2956 1747 
Q 2956 2369 2687 2733 
Q 2419 3097 1959 3097 
z
M 1959 3584 
Q 2709 3584 3137 3096 
Q 3566 2609 3566 1747 
Q 3566 888 3137 398 
Q 2709 -91 1959 -91 
Q 1206 -91 779 398 
Q 353 888 353 1747 
Q 353 2609 779 3096 
Q 1206 3584 1959 3584 
z
" transform="scale(0.015625)"/>
       <path id="DejaVuSans-70" d="M 1159 525 
L 1159 -1331 
L 581 -1331 
L 581 3500 
L 1159 3500 
L 1159 2969 
Q 1341 3281 1617 3432 
Q 1894 3584 2278 3584 
Q 2916 3584 3314 3078 
Q 3713 2572 3713 1747 
Q 3713 922 3314 415 
Q 2916 -91 2278 -91 
Q 1894 -91 1617 61 
Q 1341 213 1159 525 
z
M 3116 1747 
Q 3116 2381 2855 2742 
Q 2594 3103 2138 3103 
Q 1681 3103 1420 2742 
Q 1159 2381 1159 1747 
Q 1159 1113 1420 752 
Q 1681 391 2138 391 
Q 2594 391 2855 752 
Q 3116 1113 3116 1747 
z
" transform="scale(0.015625)"/>
       <path id="DejaVuSans-74" d="M 1172 4494 
L 1172 3500 
L 2356 3500 
L 2356 3053 
L 1172 3053 
L 1172 1153 
Q 1172 725 1289 603 
Q 1406 481 1766 481 
L 2356 481 
L 2356 0 
L 1766 0 
Q 1100 0 847 248 
Q 594 497 594 1153 
L 594 3053 
L 172 3053 
L 172 3500 
L 594 3500 
L 594 4494 
L 1172 4494 
z
" transform="scale(0.015625)"/>
       <path id="DejaVuSans-69" d="M 603 3500 
L 1178 3500 
L 1178 0 
L 603 0 
L 603 3500 
z
M 603 4863 
L 1178 4863 
L 1178 4134 
L 603 4134 
L 603 4863 
z
" transform="scale(0.015625)"/>
       <path id="DejaVuSans-6e" d="M 3513 2113 
L 3513 0 
L 2938 0 
L 2938 2094 
Q 2938 2591 2744 2837 
Q 2550 3084 2163 3084 
Q 1697 3084 1428 2787 
Q 1159 2491 1159 1978 
L 1159 0 
L 581 0 
L 581 3500 
L 1159 3500 
L 1159 2956 
Q 1366 3272 1645 3428 
Q 1925 3584 2291 3584 
Q 2894 3584 3203 3211 
Q 3513 2838 3513 2113 
z
" transform="scale(0.015625)"/>
      </defs>
      <use xlink:href="#DejaVuSans-50"/>
      <use xlink:href="#DejaVuSans-72" transform="translate(58.552734 0)"/>
      <use xlink:href="#DejaVuSans-6f" transform="translate(97.416016 0)"/>
      <use xlink:href="#DejaVuSans-70" transform="translate(158.597656 0)"/>
      <use xlink:href="#DejaVuSans-6f" transform="translate(222.074219 0)"/>
      <use xlink:href="#DejaVuSans-72" transform="translate(283.255859 0)"/>
      <use xlink:href="#DejaVuSans-74" transform="translate(324.369141 0)"/>
      <use xlink:href="#DejaVuSans-69" transform="translate(363.578125 0)"/>
      <use xlink:href="#DejaVuSans-6f" transform="translate(391.361328 0)"/>
      <use xlink:href="#DejaVuSans-6e" transform="translate(452.542969 0)"/>
     </g>
    </g>
   </g>
   <g id="matplotlib.axis_2">
    <g id="ytick_1">
     <g id="line2d_13">
      <defs>
       <path id="med86cade98" d="M 0 0 
L -3.5 0 
" style="stroke: #000000; stroke-width: 0.8"/>
      </defs>
      <g>
       <use xlink:href="#med86cade98" x="33.659688" y="252.381117" style="stroke: #000000; stroke-width: 0.8"/>
      </g>
     </g>
     <g id="text_8">
      <!-- Yes -->
      <g transform="translate(8.899844 256.560258) scale(0.11 -0.11)">
       <defs>
        <path id="DejaVuSans-59" d="M -13 4666 
L 666 4666 
L 1959 2747 
L 3244 4666 
L 3922 4666 
L 2272 2222 
L 2272 0 
L 1638 0 
L 1638 2222 
L -13 4666 
z
" transform="scale(0.015625)"/>
        <path id="DejaVuSans-65" d="M 3597 1894 
L 3597 1613 
L 953 1613 
Q 991 1019 1311 708 
Q 1631 397 2203 397 
Q 2534 397 2845 478 
Q 3156 559 3463 722 
L 3463 178 
Q 3153 47 2828 -22 
Q 2503 -91 2169 -91 
Q 1331 -91 842 396 
Q 353 884 353 1716 
Q 353 2575 817 3079 
Q 1281 3584 2069 3584 
Q 2775 3584 3186 3129 
Q 3597 2675 3597 1894 
z
M 3022 2063 
Q 3016 2534 2758 2815 
Q 2500 3097 2075 3097 
Q 1594 3097 1305 2825 
Q 1016 2553 972 2059 
L 3022 2063 
z
" transform="scale(0.015625)"/>
        <path id="DejaVuSans-73" d="M 2834 3397 
L 2834 2853 
Q 2591 2978 2328 3040 
Q 2066 3103 1784 3103 
Q 1356 3103 1142 2972 
Q 928 2841 928 2578 
Q 928 2378 1081 2264 
Q 1234 2150 1697 2047 
L 1894 2003 
Q 2506 1872 2764 1633 
Q 3022 1394 3022 966 
Q 3022 478 2636 193 
Q 2250 -91 1575 -91 
Q 1294 -91 989 -36 
Q 684 19 347 128 
L 347 722 
Q 666 556 975 473 
Q 1284 391 1588 391 
Q 1994 391 2212 530 
Q 2431 669 2431 922 
Q 2431 1156 2273 1281 
Q 2116 1406 1581 1522 
L 1381 1569 
Q 847 1681 609 1914 
Q 372 2147 372 2553 
Q 372 3047 722 3315 
Q 1072 3584 1716 3584 
Q 2034 3584 2315 3537 
Q 2597 3491 2834 3397 
z
" transform="scale(0.015625)"/>
       </defs>
       <use xlink:href="#DejaVuSans-59"/>
       <use xlink:href="#DejaVuSans-65" transform="translate(47.833984 0)"/>
       <use xlink:href="#DejaVuSans-73" transform="translate(109.357422 0)"/>
      </g>
     </g>
    </g>
    <g id="ytick_2">
     <g id="line2d_14">
      <g>
       <use xlink:href="#med86cade98" x="33.659688" y="166.748" style="stroke: #000000; stroke-width: 0.8"/>
      </g>
     </g>
     <g id="text_9">
      <!-- No -->
      <g transform="translate(11.699688 170.927141) scale(0.11 -0.11)">
       <defs>
        <path id="DejaVuSans-4e" d="M 628 4666 
L 1478 4666 
L 3547 763 
L 3547 4666 
L 4159 4666 
L 4159 0 
L 3309 0 
L 1241 3903 
L 1241 0 
L 628 0 
L 628 4666 
z
" transform="scale(0.015625)"/>
       </defs>
       <use xlink:href="#DejaVuSans-4e"/>
       <use xlink:href="#DejaVuSans-6f" transform="translate(74.804688 0)"/>
      </g>
     </g>
    </g>
    <g id="ytick_3">
     <g id="line2d_15">
      <g>
       <use xlink:href="#med86cade98" x="33.659688" y="81.114883" style="stroke: #000000; stroke-width: 0.8"/>
      </g>
     </g>
     <g id="text_10">
      <!-- N/A -->
      <g transform="translate(7.2 85.294024) scale(0.11 -0.11)">
       <defs>
        <path id="DejaVuSans-2f" d="M 1625 4666 
L 2156 4666 
L 531 -594 
L 0 -594 
L 1625 4666 
z
" transform="scale(0.015625)"/>
        <path id="DejaVuSans-41" d="M 2188 4044 
L 1331 1722 
L 3047 1722 
L 2188 4044 
z
M 1831 4666 
L 2547 4666 
L 4325 0 
L 3669 0 
L 3244 1197 
L 1141 1197 
L 716 0 
L 50 0 
L 1831 4666 
z
" transform="scale(0.015625)"/>
       </defs>
       <use xlink:href="#DejaVuSans-4e"/>
       <use xlink:href="#DejaVuSans-2f" transform="translate(74.804688 0)"/>
       <use xlink:href="#DejaVuSans-41" transform="translate(108.496094 0)"/>
      </g>
     </g>
    </g>
   </g>
   <g id="line2d_16">
    <path d="M 195.084687 272.248 
L 195.084687 61.248 
" clip-path="url(#p7241e6d26f)" style="fill: none; stroke-dasharray: 0.8,1.32; stroke-dashoffset: 0; stroke: #cccccc; stroke-width: 0.8"/>
   </g>
   <g id="patch_3">
    <path d="M 33.659688 272.248 
L 33.659688 61.248 
" style="fill: none; stroke: #000000; stroke-width: 0.8; stroke-linejoin: miter; stroke-linecap: square"/>
   </g>
   <g id="patch_4">
    <path d="M 33.659688 272.248 
L 356.509687 272.248 
" style="fill: none; stroke: #000000; stroke-width: 0.8; stroke-linejoin: miter; stroke-linecap: square"/>
   </g>
   <g id="LineCollection_1">
    <path d="M 316.452373 262.657091 
L 330.502326 262.657091 
" clip-path="url(#p7241e6d26f)" style="fill: none; stroke: #1f77b4; stroke-width: 1.4"/>
    <path d="M 59.667049 177.023974 
L 73.717002 177.023974 
" clip-path="url(#p7241e6d26f)" style="fill: none; stroke: #1f77b4; stroke-width: 1.4"/>
    <path d="M 45.617095 91.390857 
L 48.008576 91.390857 
" clip-path="url(#p7241e6d26f)" style="fill: none; stroke: #1f77b4; stroke-width: 1.4"/>
   </g>
   <g id="line2d_17">
    <defs>
     <path id="mecfd75d15e" d="M 0 4 
L 0 -4 
" style="stroke: #1f77b4; stroke-width: 1.4"/>
    </defs>
    <g clip-path="url(#p7241e6d26f)">
     <use xlink:href="#mecfd75d15e" x="316.452373" y="262.657091" style="fill: #1f77b4; stroke: #1f77b4; stroke-width: 1.4"/>
     <use xlink:href="#mecfd75d15e" x="59.667049" y="177.023974" style="fill: #1f77b4; stroke: #1f77b4; stroke-width: 1.4"/>
     <use xlink:href="#mecfd75d15e" x="45.617095" y="91.390857" style="fill: #1f77b4; stroke: #1f77b4; stroke-width: 1.4"/>
    </g>
   </g>
   <g id="line2d_18">
    <g clip-path="url(#p7241e6d26f)">
     <use xlink:href="#mecfd75d15e" x="330.502326" y="262.657091" style="fill: #1f77b4; stroke: #1f77b4; stroke-width: 1.4"/>
     <use xlink:href="#mecfd75d15e" x="73.717002" y="177.023974" style="fill: #1f77b4; stroke: #1f77b4; stroke-width: 1.4"/>
     <use xlink:href="#mecfd75d15e" x="48.008576" y="91.390857" style="fill: #1f77b4; stroke: #1f77b4; stroke-width: 1.4"/>
    </g>
   </g>
   <g id="LineCollection_2">
    <path d="M 279.683345 242.105143 
L 300.907743 242.105143 
" clip-path="url(#p7241e6d26f)" style="fill: none; stroke: #d62728; stroke-width: 1.4"/>
    <path d="M 89.261632 156.472026 
L 110.48603 156.472026 
" clip-path="url(#p7241e6d26f)" style="fill: none; stroke: #d62728; stroke-width: 1.4"/>
    <path d="M 45.617095 70.838909 
L 48.307512 70.838909 
" clip-path="url(#p7241e6d26f)" style="fill: none; stroke: #d62728; stroke-width: 1.4"/>
   </g>
   <g id="line2d_19">
    <defs>
     <path id="m29d6982a4d" d="M 0 4 
L 0 -4 
" style="stroke: #d62728; stroke-width: 1.4"/>
    </defs>
    <g clip-path="url(#p7241e6d26f)">
     <use xlink:href="#m29d6982a4d" x="279.683345" y="242.105143" style="fill: #ff7f0e; stroke: #d62728; stroke-width: 1.4"/>
     <use xlink:href="#m29d6982a4d" x="89.261632" y="156.472026" style="fill: #ff7f0e; stroke: #d62728; stroke-width: 1.4"/>
     <use xlink:href="#m29d6982a4d" x="45.617095" y="70.838909" style="fill: #ff7f0e; stroke: #d62728; stroke-width: 1.4"/>
    </g>
   </g>
   <g id="line2d_20">
    <g clip-path="url(#p7241e6d26f)">
     <use xlink:href="#m29d6982a4d" x="300.907743" y="242.105143" style="fill: #ff7f0e; stroke: #d62728; stroke-width: 1.4"/>
     <use xlink:href="#m29d6982a4d" x="110.48603" y="156.472026" style="fill: #ff7f0e; stroke: #d62728; stroke-width: 1.4"/>
     <use xlink:href="#m29d6982a4d" x="48.307512" y="70.838909" style="fill: #ff7f0e; stroke: #d62728; stroke-width: 1.4"/>
    </g>
   </g>
   <g id="text_11">
    <!-- coherence -->
    <g transform="translate(163.050625 55.248) scale(0.11 -0.11)">
     <defs>
      <path id="DejaVuSans-Bold-63" d="M 3366 3391 
L 3366 2478 
Q 3138 2634 2908 2709 
Q 2678 2784 2431 2784 
Q 1963 2784 1702 2511 
Q 1441 2238 1441 1747 
Q 1441 1256 1702 982 
Q 1963 709 2431 709 
Q 2694 709 2930 787 
Q 3166 866 3366 1019 
L 3366 103 
Q 3103 6 2833 -42 
Q 2563 -91 2291 -91 
Q 1344 -91 809 395 
Q 275 881 275 1747 
Q 275 2613 809 3098 
Q 1344 3584 2291 3584 
Q 2566 3584 2833 3536 
Q 3100 3488 3366 3391 
z
" transform="scale(0.015625)"/>
      <path id="DejaVuSans-Bold-6f" d="M 2203 2784 
Q 1831 2784 1636 2517 
Q 1441 2250 1441 1747 
Q 1441 1244 1636 976 
Q 1831 709 2203 709 
Q 2569 709 2762 976 
Q 2956 1244 2956 1747 
Q 2956 2250 2762 2517 
Q 2569 2784 2203 2784 
z
M 2203 3584 
Q 3106 3584 3614 3096 
Q 4122 2609 4122 1747 
Q 4122 884 3614 396 
Q 3106 -91 2203 -91 
Q 1297 -91 786 396 
Q 275 884 275 1747 
Q 275 2609 786 3096 
Q 1297 3584 2203 3584 
z
" transform="scale(0.015625)"/>
      <path id="DejaVuSans-Bold-68" d="M 4056 2131 
L 4056 0 
L 2931 0 
L 2931 347 
L 2931 1625 
Q 2931 2084 2911 2256 
Q 2891 2428 2841 2509 
Q 2775 2619 2662 2680 
Q 2550 2741 2406 2741 
Q 2056 2741 1856 2470 
Q 1656 2200 1656 1722 
L 1656 0 
L 538 0 
L 538 4863 
L 1656 4863 
L 1656 2988 
Q 1909 3294 2193 3439 
Q 2478 3584 2822 3584 
Q 3428 3584 3742 3212 
Q 4056 2841 4056 2131 
z
" transform="scale(0.015625)"/>
      <path id="DejaVuSans-Bold-65" d="M 4031 1759 
L 4031 1441 
L 1416 1441 
Q 1456 1047 1700 850 
Q 1944 653 2381 653 
Q 2734 653 3104 758 
Q 3475 863 3866 1075 
L 3866 213 
Q 3469 63 3072 -14 
Q 2675 -91 2278 -91 
Q 1328 -91 801 392 
Q 275 875 275 1747 
Q 275 2603 792 3093 
Q 1309 3584 2216 3584 
Q 3041 3584 3536 3087 
Q 4031 2591 4031 1759 
z
M 2881 2131 
Q 2881 2450 2695 2645 
Q 2509 2841 2209 2841 
Q 1884 2841 1681 2658 
Q 1478 2475 1428 2131 
L 2881 2131 
z
" transform="scale(0.015625)"/>
      <path id="DejaVuSans-Bold-72" d="M 3138 2547 
Q 2991 2616 2845 2648 
Q 2700 2681 2553 2681 
Q 2122 2681 1889 2404 
Q 1656 2128 1656 1613 
L 1656 0 
L 538 0 
L 538 3500 
L 1656 3500 
L 1656 2925 
Q 1872 3269 2151 3426 
Q 2431 3584 2822 3584 
Q 2878 3584 2943 3579 
Q 3009 3575 3134 3559 
L 3138 2547 
z
" transform="scale(0.015625)"/>
      <path id="DejaVuSans-Bold-6e" d="M 4056 2131 
L 4056 0 
L 2931 0 
L 2931 347 
L 2931 1631 
Q 2931 2084 2911 2256 
Q 2891 2428 2841 2509 
Q 2775 2619 2662 2680 
Q 2550 2741 2406 2741 
Q 2056 2741 1856 2470 
Q 1656 2200 1656 1722 
L 1656 0 
L 538 0 
L 538 3500 
L 1656 3500 
L 1656 2988 
Q 1909 3294 2193 3439 
Q 2478 3584 2822 3584 
Q 3428 3584 3742 3212 
Q 4056 2841 4056 2131 
z
" transform="scale(0.015625)"/>
     </defs>
     <use xlink:href="#DejaVuSans-Bold-63"/>
     <use xlink:href="#DejaVuSans-Bold-6f" transform="translate(59.277344 0)"/>
     <use xlink:href="#DejaVuSans-Bold-68" transform="translate(127.978516 0)"/>
     <use xlink:href="#DejaVuSans-Bold-65" transform="translate(199.169922 0)"/>
     <use xlink:href="#DejaVuSans-Bold-72" transform="translate(266.992188 0)"/>
     <use xlink:href="#DejaVuSans-Bold-65" transform="translate(316.308594 0)"/>
     <use xlink:href="#DejaVuSans-Bold-6e" transform="translate(384.130859 0)"/>
     <use xlink:href="#DejaVuSans-Bold-63" transform="translate(455.322266 0)"/>
     <use xlink:href="#DejaVuSans-Bold-65" transform="translate(514.599609 0)"/>
    </g>
   </g>
   <g id="line2d_21">
    <defs>
     <path id="m7c85a8ed83" d="M 0 4 
C 1.060812 4 2.078319 3.578535 2.828427 2.828427 
C 3.578535 2.078319 4 1.060812 4 0 
C 4 -1.060812 3.578535 -2.078319 2.828427 -2.828427 
C 2.078319 -3.578535 1.060812 -4 0 -4 
C -1.060812 -4 -2.078319 -3.578535 -2.828427 -2.828427 
C -3.578535 -2.078319 -4 -1.060812 -4 0 
C -4 1.060812 -3.578535 2.078319 -2.828427 2.828427 
C -2.078319 3.578535 -1.060812 4 0 4 
z
" style="stroke: #1f77b4"/>
    </defs>
    <g clip-path="url(#p7241e6d26f)">
     <use xlink:href="#m7c85a8ed83" x="324.523623" y="262.657091" style="fill: #1f77b4; stroke: #1f77b4"/>
     <use xlink:href="#m7c85a8ed83" x="65.645752" y="177.023974" style="fill: #1f77b4; stroke: #1f77b4"/>
     <use xlink:href="#m7c85a8ed83" x="45.617095" y="91.390857" style="fill: #1f77b4; stroke: #1f77b4"/>
    </g>
   </g>
   <g id="line2d_22">
    <defs>
     <path id="m6ddea70892" d="M -0 4.949747 
L 4.949747 0 
L 0 -4.949747 
L -4.949747 -0 
z
" style="stroke: #d62728; stroke-linejoin: miter"/>
    </defs>
    <g clip-path="url(#p7241e6d26f)">
     <use xlink:href="#m6ddea70892" x="291.042882" y="242.105143" style="fill-opacity: 0; stroke: #d62728; stroke-linejoin: miter"/>
     <use xlink:href="#m6ddea70892" x="99.126493" y="156.472026" style="fill-opacity: 0; stroke: #d62728; stroke-linejoin: miter"/>
     <use xlink:href="#m6ddea70892" x="45.617095" y="70.838909" style="fill-opacity: 0; stroke: #d62728; stroke-linejoin: miter"/>
    </g>
   </g>
   <g id="legend_1">
    <g id="patch_5">
     <path d="M 237.585937 267.748 
L 350.209687 267.748 
Q 352.009687 267.748 352.009687 265.948 
L 352.009687 240.427375 
Q 352.009687 238.627375 350.209687 238.627375 
L 237.585937 238.627375 
Q 235.785937 238.627375 235.785937 240.427375 
L 235.785937 265.948 
Q 235.785937 267.748 237.585937 267.748 
z
" style="fill: #ffffff; opacity: 0.9; stroke: #cccccc; stroke-linejoin: miter"/>
    </g>
    <g id="LineCollection_3">
     <path d="M 243.885937 245.915969 
L 252.885937 245.915969 
" style="fill: none; stroke: #1f77b4; stroke-width: 1.4"/>
    </g>
    <g id="line2d_23">
     <g>
      <use xlink:href="#mecfd75d15e" x="243.885937" y="245.915969" style="fill: #1f77b4; stroke: #1f77b4; stroke-width: 1.4"/>
     </g>
    </g>
    <g id="line2d_24">
     <g>
      <use xlink:href="#mecfd75d15e" x="252.885937" y="245.915969" style="fill: #1f77b4; stroke: #1f77b4; stroke-width: 1.4"/>
     </g>
    </g>
    <g id="line2d_25"/>
    <g id="line2d_26">
     <g>
      <use xlink:href="#m7c85a8ed83" x="248.385937" y="245.915969" style="fill: #1f77b4; stroke: #1f77b4"/>
     </g>
    </g>
    <g id="text_12">
     <!-- Human Consensus -->
     <g transform="translate(264.585937 249.065969) scale(0.09 -0.09)">
      <defs>
       <path id="DejaVuSans-48" d="M 628 4666 
L 1259 4666 
L 1259 2753 
L 3553 2753 
L 3553 4666 
L 4184 4666 
L 4184 0 
L 3553 0 
L 3553 2222 
L 1259 2222 
L 1259 0 
L 628 0 
L 628 4666 
z
" transform="scale(0.015625)"/>
       <path id="DejaVuSans-75" d="M 544 1381 
L 544 3500 
L 1119 3500 
L 1119 1403 
Q 1119 906 1312 657 
Q 1506 409 1894 409 
Q 2359 409 2629 706 
Q 2900 1003 2900 1516 
L 2900 3500 
L 3475 3500 
L 3475 0 
L 2900 0 
L 2900 538 
Q 2691 219 2414 64 
Q 2138 -91 1772 -91 
Q 1169 -91 856 284 
Q 544 659 544 1381 
z
M 1991 3584 
L 1991 3584 
z
" transform="scale(0.015625)"/>
       <path id="DejaVuSans-6d" d="M 3328 2828 
Q 3544 3216 3844 3400 
Q 4144 3584 4550 3584 
Q 5097 3584 5394 3201 
Q 5691 2819 5691 2113 
L 5691 0 
L 5113 0 
L 5113 2094 
Q 5113 2597 4934 2840 
Q 4756 3084 4391 3084 
Q 3944 3084 3684 2787 
Q 3425 2491 3425 1978 
L 3425 0 
L 2847 0 
L 2847 2094 
Q 2847 2600 2669 2842 
Q 2491 3084 2119 3084 
Q 1678 3084 1418 2786 
Q 1159 2488 1159 1978 
L 1159 0 
L 581 0 
L 581 3500 
L 1159 3500 
L 1159 2956 
Q 1356 3278 1631 3431 
Q 1906 3584 2284 3584 
Q 2666 3584 2933 3390 
Q 3200 3197 3328 2828 
z
" transform="scale(0.015625)"/>
       <path id="DejaVuSans-61" d="M 2194 1759 
Q 1497 1759 1228 1600 
Q 959 1441 959 1056 
Q 959 750 1161 570 
Q 1363 391 1709 391 
Q 2188 391 2477 730 
Q 2766 1069 2766 1631 
L 2766 1759 
L 2194 1759 
z
M 3341 1997 
L 3341 0 
L 2766 0 
L 2766 531 
Q 2569 213 2275 61 
Q 1981 -91 1556 -91 
Q 1019 -91 701 211 
Q 384 513 384 1019 
Q 384 1609 779 1909 
Q 1175 2209 1959 2209 
L 2766 2209 
L 2766 2266 
Q 2766 2663 2505 2880 
Q 2244 3097 1772 3097 
Q 1472 3097 1187 3025 
Q 903 2953 641 2809 
L 641 3341 
Q 956 3463 1253 3523 
Q 1550 3584 1831 3584 
Q 2591 3584 2966 3190 
Q 3341 2797 3341 1997 
z
" transform="scale(0.015625)"/>
       <path id="DejaVuSans-20" transform="scale(0.015625)"/>
       <path id="DejaVuSans-43" d="M 4122 4306 
L 4122 3641 
Q 3803 3938 3442 4084 
Q 3081 4231 2675 4231 
Q 1875 4231 1450 3742 
Q 1025 3253 1025 2328 
Q 1025 1406 1450 917 
Q 1875 428 2675 428 
Q 3081 428 3442 575 
Q 3803 722 4122 1019 
L 4122 359 
Q 3791 134 3420 21 
Q 3050 -91 2638 -91 
Q 1578 -91 968 557 
Q 359 1206 359 2328 
Q 359 3453 968 4101 
Q 1578 4750 2638 4750 
Q 3056 4750 3426 4639 
Q 3797 4528 4122 4306 
z
" transform="scale(0.015625)"/>
      </defs>
      <use xlink:href="#DejaVuSans-48"/>
      <use xlink:href="#DejaVuSans-75" transform="translate(75.195312 0)"/>
      <use xlink:href="#DejaVuSans-6d" transform="translate(138.574219 0)"/>
      <use xlink:href="#DejaVuSans-61" transform="translate(235.986328 0)"/>
      <use xlink:href="#DejaVuSans-6e" transform="translate(297.265625 0)"/>
      <use xlink:href="#DejaVuSans-20" transform="translate(360.644531 0)"/>
      <use xlink:href="#DejaVuSans-43" transform="translate(392.431641 0)"/>
      <use xlink:href="#DejaVuSans-6f" transform="translate(462.255859 0)"/>
      <use xlink:href="#DejaVuSans-6e" transform="translate(523.4375 0)"/>
      <use xlink:href="#DejaVuSans-73" transform="translate(586.816406 0)"/>
      <use xlink:href="#DejaVuSans-65" transform="translate(638.916016 0)"/>
      <use xlink:href="#DejaVuSans-6e" transform="translate(700.439453 0)"/>
      <use xlink:href="#DejaVuSans-73" transform="translate(763.818359 0)"/>
      <use xlink:href="#DejaVuSans-75" transform="translate(815.917969 0)"/>
      <use xlink:href="#DejaVuSans-73" transform="translate(879.296875 0)"/>
     </g>
    </g>
    <g id="LineCollection_4">
     <path d="M 243.885937 259.126281 
L 252.885937 259.126281 
" style="fill: none; stroke: #d62728; stroke-width: 1.4"/>
    </g>
    <g id="line2d_27">
     <g>
      <use xlink:href="#m29d6982a4d" x="243.885937" y="259.126281" style="fill: #ff7f0e; stroke: #d62728; stroke-width: 1.4"/>
     </g>
    </g>
    <g id="line2d_28">
     <g>
      <use xlink:href="#m29d6982a4d" x="252.885937" y="259.126281" style="fill: #ff7f0e; stroke: #d62728; stroke-width: 1.4"/>
     </g>
    </g>
    <g id="line2d_29"/>
    <g id="line2d_30">
     <g>
      <use xlink:href="#m6ddea70892" x="248.385937" y="259.126281" style="fill-opacity: 0; stroke: #d62728; stroke-linejoin: miter"/>
     </g>
    </g>
    <g id="text_13">
     <!-- Ensemble Majority -->
     <g transform="translate(264.585937 262.276281) scale(0.09 -0.09)">
      <defs>
       <path id="DejaVuSans-45" d="M 628 4666 
L 3578 4666 
L 3578 4134 
L 1259 4134 
L 1259 2753 
L 3481 2753 
L 3481 2222 
L 1259 2222 
L 1259 531 
L 3634 531 
L 3634 0 
L 628 0 
L 628 4666 
z
" transform="scale(0.015625)"/>
       <path id="DejaVuSans-62" d="M 3116 1747 
Q 3116 2381 2855 2742 
Q 2594 3103 2138 3103 
Q 1681 3103 1420 2742 
Q 1159 2381 1159 1747 
Q 1159 1113 1420 752 
Q 1681 391 2138 391 
Q 2594 391 2855 752 
Q 3116 1113 3116 1747 
z
M 1159 2969 
Q 1341 3281 1617 3432 
Q 1894 3584 2278 3584 
Q 2916 3584 3314 3078 
Q 3713 2572 3713 1747 
Q 3713 922 3314 415 
Q 2916 -91 2278 -91 
Q 1894 -91 1617 61 
Q 1341 213 1159 525 
L 1159 0 
L 581 0 
L 581 4863 
L 1159 4863 
L 1159 2969 
z
" transform="scale(0.015625)"/>
       <path id="DejaVuSans-6c" d="M 603 4863 
L 1178 4863 
L 1178 0 
L 603 0 
L 603 4863 
z
" transform="scale(0.015625)"/>
       <path id="DejaVuSans-4d" d="M 628 4666 
L 1569 4666 
L 2759 1491 
L 3956 4666 
L 4897 4666 
L 4897 0 
L 4281 0 
L 4281 4097 
L 3078 897 
L 2444 897 
L 1241 4097 
L 1241 0 
L 628 0 
L 628 4666 
z
" transform="scale(0.015625)"/>
       <path id="DejaVuSans-6a" d="M 603 3500 
L 1178 3500 
L 1178 -63 
Q 1178 -731 923 -1031 
Q 669 -1331 103 -1331 
L -116 -1331 
L -116 -844 
L 38 -844 
Q 366 -844 484 -692 
Q 603 -541 603 -63 
L 603 3500 
z
M 603 4863 
L 1178 4863 
L 1178 4134 
L 603 4134 
L 603 4863 
z
" transform="scale(0.015625)"/>
       <path id="DejaVuSans-79" d="M 2059 -325 
Q 1816 -950 1584 -1140 
Q 1353 -1331 966 -1331 
L 506 -1331 
L 506 -850 
L 844 -850 
Q 1081 -850 1212 -737 
Q 1344 -625 1503 -206 
L 1606 56 
L 191 3500 
L 800 3500 
L 1894 763 
L 2988 3500 
L 3597 3500 
L 2059 -325 
z
" transform="scale(0.015625)"/>
      </defs>
      <use xlink:href="#DejaVuSans-45"/>
      <use xlink:href="#DejaVuSans-6e" transform="translate(63.183594 0)"/>
      <use xlink:href="#DejaVuSans-73" transform="translate(126.5625 0)"/>
      <use xlink:href="#DejaVuSans-65" transform="translate(178.662109 0)"/>
      <use xlink:href="#DejaVuSans-6d" transform="translate(240.185547 0)"/>
      <use xlink:href="#DejaVuSans-62" transform="translate(337.597656 0)"/>
      <use xlink:href="#DejaVuSans-6c" transform="translate(401.074219 0)"/>
      <use xlink:href="#DejaVuSans-65" transform="translate(428.857422 0)"/>
      <use xlink:href="#DejaVuSans-20" transform="translate(490.380859 0)"/>
      <use xlink:href="#DejaVuSans-4d" transform="translate(522.167969 0)"/>
      <use xlink:href="#DejaVuSans-61" transform="translate(608.447266 0)"/>
      <use xlink:href="#DejaVuSans-6a" transform="translate(669.726562 0)"/>
      <use xlink:href="#DejaVuSans-6f" transform="translate(697.509766 0)"/>
      <use xlink:href="#DejaVuSans-72" transform="translate(758.691406 0)"/>
      <use xlink:href="#DejaVuSans-69" transform="translate(799.804688 0)"/>
      <use xlink:href="#DejaVuSans-74" transform="translate(827.587891 0)"/>
      <use xlink:href="#DejaVuSans-79" transform="translate(866.796875 0)"/>
     </g>
    </g>
   </g>
  </g>
  <g id="axes_2">
   <g id="patch_6">
    <path d="M 370.809687 272.248 
L 693.659687 272.248 
L 693.659687 61.248 
L 370.809687 61.248 
z
" style="fill: #ffffff"/>
   </g>
   <g id="matplotlib.axis_3">
    <g id="xtick_7">
     <g id="line2d_31">
      <path d="M 382.767095 272.248 
L 382.767095 61.248 
" clip-path="url(#p3ffc3141af)" style="fill: none; stroke: #eeeeee; stroke-width: 0.7; stroke-linecap: square"/>
     </g>
     <g id="line2d_32">
      <g>
       <use xlink:href="#m565447fe9e" x="382.767095" y="272.248" style="stroke: #000000; stroke-width: 0.8"/>
      </g>
     </g>
     <g id="text_14">
      <!-- 0.0 -->
      <g transform="translate(374.815532 286.846438) scale(0.1 -0.1)">
       <use xlink:href="#DejaVuSans-30"/>
       <use xlink:href="#DejaVuSans-2e" transform="translate(63.623047 0)"/>
       <use xlink:href="#DejaVuSans-30" transform="translate(95.410156 0)"/>
      </g>
     </g>
    </g>
    <g id="xtick_8">
     <g id="line2d_33">
      <path d="M 442.554132 272.248 
L 442.554132 61.248 
" clip-path="url(#p3ffc3141af)" style="fill: none; stroke: #eeeeee; stroke-width: 0.7; stroke-linecap: square"/>
     </g>
     <g id="line2d_34">
      <g>
       <use xlink:href="#m565447fe9e" x="442.554132" y="272.248" style="stroke: #000000; stroke-width: 0.8"/>
      </g>
     </g>
     <g id="text_15">
      <!-- 0.2 -->
      <g transform="translate(434.602569 286.846438) scale(0.1 -0.1)">
       <use xlink:href="#DejaVuSans-30"/>
       <use xlink:href="#DejaVuSans-2e" transform="translate(63.623047 0)"/>
       <use xlink:href="#DejaVuSans-32" transform="translate(95.410156 0)"/>
      </g>
     </g>
    </g>
    <g id="xtick_9">
     <g id="line2d_35">
      <path d="M 502.341169 272.248 
L 502.341169 61.248 
" clip-path="url(#p3ffc3141af)" style="fill: none; stroke: #eeeeee; stroke-width: 0.7; stroke-linecap: square"/>
     </g>
     <g id="line2d_36">
      <g>
       <use xlink:href="#m565447fe9e" x="502.341169" y="272.248" style="stroke: #000000; stroke-width: 0.8"/>
      </g>
     </g>
     <g id="text_16">
      <!-- 0.4 -->
      <g transform="translate(494.389606 286.846438) scale(0.1 -0.1)">
       <use xlink:href="#DejaVuSans-30"/>
       <use xlink:href="#DejaVuSans-2e" transform="translate(63.623047 0)"/>
       <use xlink:href="#DejaVuSans-34" transform="translate(95.410156 0)"/>
      </g>
     </g>
    </g>
    <g id="xtick_10">
     <g id="line2d_37">
      <path d="M 562.128206 272.248 
L 562.128206 61.248 
" clip-path="url(#p3ffc3141af)" style="fill: none; stroke: #eeeeee; stroke-width: 0.7; stroke-linecap: square"/>
     </g>
     <g id="line2d_38">
      <g>
       <use xlink:href="#m565447fe9e" x="562.128206" y="272.248" style="stroke: #000000; stroke-width: 0.8"/>
      </g>
     </g>
     <g id="text_17">
      <!-- 0.6 -->
      <g transform="translate(554.176644 286.846438) scale(0.1 -0.1)">
       <use xlink:href="#DejaVuSans-30"/>
       <use xlink:href="#DejaVuSans-2e" transform="translate(63.623047 0)"/>
       <use xlink:href="#DejaVuSans-36" transform="translate(95.410156 0)"/>
      </g>
     </g>
    </g>
    <g id="xtick_11">
     <g id="line2d_39">
      <path d="M 621.915243 272.248 
L 621.915243 61.248 
" clip-path="url(#p3ffc3141af)" style="fill: none; stroke: #eeeeee; stroke-width: 0.7; stroke-linecap: square"/>
     </g>
     <g id="line2d_40">
      <g>
       <use xlink:href="#m565447fe9e" x="621.915243" y="272.248" style="stroke: #000000; stroke-width: 0.8"/>
      </g>
     </g>
     <g id="text_18">
      <!-- 0.8 -->
      <g transform="translate(613.963681 286.846438) scale(0.1 -0.1)">
       <use xlink:href="#DejaVuSans-30"/>
       <use xlink:href="#DejaVuSans-2e" transform="translate(63.623047 0)"/>
       <use xlink:href="#DejaVuSans-38" transform="translate(95.410156 0)"/>
      </g>
     </g>
    </g>
    <g id="xtick_12">
     <g id="line2d_41">
      <path d="M 681.70228 272.248 
L 681.70228 61.248 
" clip-path="url(#p3ffc3141af)" style="fill: none; stroke: #eeeeee; stroke-width: 0.7; stroke-linecap: square"/>
     </g>
     <g id="line2d_42">
      <g>
       <use xlink:href="#m565447fe9e" x="681.70228" y="272.248" style="stroke: #000000; stroke-width: 0.8"/>
      </g>
     </g>
     <g id="text_19">
      <!-- 1.0 -->
      <g transform="translate(673.750718 286.846438) scale(0.1 -0.1)">
       <use xlink:href="#DejaVuSans-31"/>
       <use xlink:href="#DejaVuSans-2e" transform="translate(63.623047 0)"/>
       <use xlink:href="#DejaVuSans-30" transform="translate(95.410156 0)"/>
      </g>
     </g>
    </g>
    <g id="text_20">
     <!-- Proportion -->
     <g transform="translate(506.438594 300.524563) scale(0.1 -0.1)">
      <use xlink:href="#DejaVuSans-50"/>
      <use xlink:href="#DejaVuSans-72" transform="translate(58.552734 0)"/>
      <use xlink:href="#DejaVuSans-6f" transform="translate(97.416016 0)"/>
      <use xlink:href="#DejaVuSans-70" transform="translate(158.597656 0)"/>
      <use xlink:href="#DejaVuSans-6f" transform="translate(222.074219 0)"/>
      <use xlink:href="#DejaVuSans-72" transform="translate(283.255859 0)"/>
      <use xlink:href="#DejaVuSans-74" transform="translate(324.369141 0)"/>
      <use xlink:href="#DejaVuSans-69" transform="translate(363.578125 0)"/>
      <use xlink:href="#DejaVuSans-6f" transform="translate(391.361328 0)"/>
      <use xlink:href="#DejaVuSans-6e" transform="translate(452.542969 0)"/>
     </g>
    </g>
   </g>
   <g id="matplotlib.axis_4">
    <g id="ytick_4">
     <g id="line2d_43">
      <g>
       <use xlink:href="#med86cade98" x="370.809687" y="252.381117" style="stroke: #000000; stroke-width: 0.8"/>
      </g>
     </g>
    </g>
    <g id="ytick_5">
     <g id="line2d_44">
      <g>
       <use xlink:href="#med86cade98" x="370.809687" y="166.748" style="stroke: #000000; stroke-width: 0.8"/>
      </g>
     </g>
    </g>
    <g id="ytick_6">
     <g id="line2d_45">
      <g>
       <use xlink:href="#med86cade98" x="370.809687" y="81.114883" style="stroke: #000000; stroke-width: 0.8"/>
      </g>
     </g>
    </g>
   </g>
   <g id="line2d_46">
    <path d="M 532.234687 272.248 
L 532.234687 61.248 
" clip-path="url(#p3ffc3141af)" style="fill: none; stroke-dasharray: 0.8,1.32; stroke-dashoffset: 0; stroke: #cccccc; stroke-width: 0.8"/>
   </g>
   <g id="patch_7">
    <path d="M 370.809687 272.248 
L 370.809687 61.248 
" style="fill: none; stroke: #000000; stroke-width: 0.8; stroke-linejoin: miter; stroke-linecap: square"/>
   </g>
   <g id="patch_8">
    <path d="M 370.809687 272.248 
L 693.659687 272.248 
" style="fill: none; stroke: #000000; stroke-width: 0.8; stroke-linejoin: miter; stroke-linecap: square"/>
   </g>
   <g id="LineCollection_5">
    <path d="M 497.558206 262.657091 
L 524.761308 262.657091 
" clip-path="url(#p3ffc3141af)" style="fill: none; stroke: #1f77b4; stroke-width: 1.4"/>
    <path d="M 516.391123 177.023974 
L 543.89316 177.023974 
" clip-path="url(#p3ffc3141af)" style="fill: none; stroke: #1f77b4; stroke-width: 1.4"/>
    <path d="M 399.507465 91.390857 
L 414.454225 91.390857 
" clip-path="url(#p3ffc3141af)" style="fill: none; stroke: #1f77b4; stroke-width: 1.4"/>
   </g>
   <g id="line2d_47">
    <g clip-path="url(#p3ffc3141af)">
     <use xlink:href="#mecfd75d15e" x="497.558206" y="262.657091" style="fill: #1f77b4; stroke: #1f77b4; stroke-width: 1.4"/>
     <use xlink:href="#mecfd75d15e" x="516.391123" y="177.023974" style="fill: #1f77b4; stroke: #1f77b4; stroke-width: 1.4"/>
     <use xlink:href="#mecfd75d15e" x="399.507465" y="91.390857" style="fill: #1f77b4; stroke: #1f77b4; stroke-width: 1.4"/>
    </g>
   </g>
   <g id="line2d_48">
    <g clip-path="url(#p3ffc3141af)">
     <use xlink:href="#mecfd75d15e" x="524.761308" y="262.657091" style="fill: #1f77b4; stroke: #1f77b4; stroke-width: 1.4"/>
     <use xlink:href="#mecfd75d15e" x="543.89316" y="177.023974" style="fill: #1f77b4; stroke: #1f77b4; stroke-width: 1.4"/>
     <use xlink:href="#mecfd75d15e" x="414.454225" y="91.390857" style="fill: #1f77b4; stroke: #1f77b4; stroke-width: 1.4"/>
    </g>
   </g>
   <g id="LineCollection_6">
    <path d="M 500.248623 242.105143 
L 528.34853 242.105143 
" clip-path="url(#p3ffc3141af)" style="fill: none; stroke: #d62728; stroke-width: 1.4"/>
    <path d="M 427.009502 156.472026 
L 449.130706 156.472026 
" clip-path="url(#p3ffc3141af)" style="fill: none; stroke: #d62728; stroke-width: 1.4"/>
    <path d="M 482.312512 70.838909 
L 509.814549 70.838909 
" clip-path="url(#p3ffc3141af)" style="fill: none; stroke: #d62728; stroke-width: 1.4"/>
   </g>
   <g id="line2d_49">
    <g clip-path="url(#p3ffc3141af)">
     <use xlink:href="#m29d6982a4d" x="500.248623" y="242.105143" style="fill: #ff7f0e; stroke: #d62728; stroke-width: 1.4"/>
     <use xlink:href="#m29d6982a4d" x="427.009502" y="156.472026" style="fill: #ff7f0e; stroke: #d62728; stroke-width: 1.4"/>
     <use xlink:href="#m29d6982a4d" x="482.312512" y="70.838909" style="fill: #ff7f0e; stroke: #d62728; stroke-width: 1.4"/>
    </g>
   </g>
   <g id="line2d_50">
    <g clip-path="url(#p3ffc3141af)">
     <use xlink:href="#m29d6982a4d" x="528.34853" y="242.105143" style="fill: #ff7f0e; stroke: #d62728; stroke-width: 1.4"/>
     <use xlink:href="#m29d6982a4d" x="449.130706" y="156.472026" style="fill: #ff7f0e; stroke: #d62728; stroke-width: 1.4"/>
     <use xlink:href="#m29d6982a4d" x="509.814549" y="70.838909" style="fill: #ff7f0e; stroke: #d62728; stroke-width: 1.4"/>
    </g>
   </g>
   <g id="text_21">
    <!-- signaling -->
    <g transform="translate(503.889062 55.248) scale(0.11 -0.11)">
     <defs>
      <path id="DejaVuSans-Bold-73" d="M 3272 3391 
L 3272 2541 
Q 2913 2691 2578 2766 
Q 2244 2841 1947 2841 
Q 1628 2841 1473 2761 
Q 1319 2681 1319 2516 
Q 1319 2381 1436 2309 
Q 1553 2238 1856 2203 
L 2053 2175 
Q 2913 2066 3209 1816 
Q 3506 1566 3506 1031 
Q 3506 472 3093 190 
Q 2681 -91 1863 -91 
Q 1516 -91 1145 -36 
Q 775 19 384 128 
L 384 978 
Q 719 816 1070 734 
Q 1422 653 1784 653 
Q 2113 653 2278 743 
Q 2444 834 2444 1013 
Q 2444 1163 2330 1236 
Q 2216 1309 1875 1350 
L 1678 1375 
Q 931 1469 631 1722 
Q 331 1975 331 2491 
Q 331 3047 712 3315 
Q 1094 3584 1881 3584 
Q 2191 3584 2531 3537 
Q 2872 3491 3272 3391 
z
" transform="scale(0.015625)"/>
      <path id="DejaVuSans-Bold-69" d="M 538 3500 
L 1656 3500 
L 1656 0 
L 538 0 
L 538 3500 
z
M 538 4863 
L 1656 4863 
L 1656 3950 
L 538 3950 
L 538 4863 
z
" transform="scale(0.015625)"/>
      <path id="DejaVuSans-Bold-67" d="M 2919 594 
Q 2688 288 2409 144 
Q 2131 0 1766 0 
Q 1125 0 706 504 
Q 288 1009 288 1791 
Q 288 2575 706 3076 
Q 1125 3578 1766 3578 
Q 2131 3578 2409 3434 
Q 2688 3291 2919 2981 
L 2919 3500 
L 4044 3500 
L 4044 353 
Q 4044 -491 3511 -936 
Q 2978 -1381 1966 -1381 
Q 1638 -1381 1331 -1331 
Q 1025 -1281 716 -1178 
L 716 -306 
Q 1009 -475 1290 -558 
Q 1572 -641 1856 -641 
Q 2406 -641 2662 -400 
Q 2919 -159 2919 353 
L 2919 594 
z
M 2181 2772 
Q 1834 2772 1640 2515 
Q 1447 2259 1447 1791 
Q 1447 1309 1634 1061 
Q 1822 813 2181 813 
Q 2531 813 2725 1069 
Q 2919 1325 2919 1791 
Q 2919 2259 2725 2515 
Q 2531 2772 2181 2772 
z
" transform="scale(0.015625)"/>
      <path id="DejaVuSans-Bold-61" d="M 2106 1575 
Q 1756 1575 1579 1456 
Q 1403 1338 1403 1106 
Q 1403 894 1545 773 
Q 1688 653 1941 653 
Q 2256 653 2472 879 
Q 2688 1106 2688 1447 
L 2688 1575 
L 2106 1575 
z
M 3816 1997 
L 3816 0 
L 2688 0 
L 2688 519 
Q 2463 200 2181 54 
Q 1900 -91 1497 -91 
Q 953 -91 614 226 
Q 275 544 275 1050 
Q 275 1666 698 1953 
Q 1122 2241 2028 2241 
L 2688 2241 
L 2688 2328 
Q 2688 2594 2478 2717 
Q 2269 2841 1825 2841 
Q 1466 2841 1156 2769 
Q 847 2697 581 2553 
L 581 3406 
Q 941 3494 1303 3539 
Q 1666 3584 2028 3584 
Q 2975 3584 3395 3211 
Q 3816 2838 3816 1997 
z
" transform="scale(0.015625)"/>
      <path id="DejaVuSans-Bold-6c" d="M 538 4863 
L 1656 4863 
L 1656 0 
L 538 0 
L 538 4863 
z
" transform="scale(0.015625)"/>
     </defs>
     <use xlink:href="#DejaVuSans-Bold-73"/>
     <use xlink:href="#DejaVuSans-Bold-69" transform="translate(59.521484 0)"/>
     <use xlink:href="#DejaVuSans-Bold-67" transform="translate(93.798828 0)"/>
     <use xlink:href="#DejaVuSans-Bold-6e" transform="translate(165.380859 0)"/>
     <use xlink:href="#DejaVuSans-Bold-61" transform="translate(236.572266 0)"/>
     <use xlink:href="#DejaVuSans-Bold-6c" transform="translate(304.052734 0)"/>
     <use xlink:href="#DejaVuSans-Bold-69" transform="translate(338.330078 0)"/>
     <use xlink:href="#DejaVuSans-Bold-6e" transform="translate(372.607422 0)"/>
     <use xlink:href="#DejaVuSans-Bold-67" transform="translate(443.798828 0)"/>
    </g>
   </g>
   <g id="line2d_51">
    <g clip-path="url(#p3ffc3141af)">
     <use xlink:href="#m7c85a8ed83" x="511.010289" y="262.657091" style="fill: #1f77b4; stroke: #1f77b4"/>
     <use xlink:href="#m7c85a8ed83" x="530.142141" y="177.023974" style="fill: #1f77b4; stroke: #1f77b4"/>
     <use xlink:href="#m7c85a8ed83" x="406.084039" y="91.390857" style="fill: #1f77b4; stroke: #1f77b4"/>
    </g>
   </g>
   <g id="line2d_52">
    <g clip-path="url(#p3ffc3141af)">
     <use xlink:href="#m6ddea70892" x="514.298576" y="242.105143" style="fill-opacity: 0; stroke: #d62728; stroke-linejoin: miter"/>
     <use xlink:href="#m6ddea70892" x="437.173299" y="156.472026" style="fill-opacity: 0; stroke: #d62728; stroke-linejoin: miter"/>
     <use xlink:href="#m6ddea70892" x="495.764595" y="70.838909" style="fill-opacity: 0; stroke: #d62728; stroke-linejoin: miter"/>
    </g>
   </g>
  </g>
  <g id="axes_3">
   <g id="patch_9">
    <path d="M 707.959687 272.248 
L 1030.809687 272.248 
L 1030.809687 61.248 
L 707.959687 61.248 
z
" style="fill: #ffffff"/>
   </g>
   <g id="matplotlib.axis_5">
    <g id="xtick_13">
     <g id="line2d_53">
      <path d="M 719.917095 272.248 
L 719.917095 61.248 
" clip-path="url(#pc355c51eaf)" style="fill: none; stroke: #eeeeee; stroke-width: 0.7; stroke-linecap: square"/>
     </g>
     <g id="line2d_54">
      <g>
       <use xlink:href="#m565447fe9e" x="719.917095" y="272.248" style="stroke: #000000; stroke-width: 0.8"/>
      </g>
     </g>
     <g id="text_22">
      <!-- 0.0 -->
      <g transform="translate(711.965532 286.846438) scale(0.1 -0.1)">
       <use xlink:href="#DejaVuSans-30"/>
       <use xlink:href="#DejaVuSans-2e" transform="translate(63.623047 0)"/>
       <use xlink:href="#DejaVuSans-30" transform="translate(95.410156 0)"/>
      </g>
     </g>
    </g>
    <g id="xtick_14">
     <g id="line2d_55">
      <path d="M 779.704132 272.248 
L 779.704132 61.248 
" clip-path="url(#pc355c51eaf)" style="fill: none; stroke: #eeeeee; stroke-width: 0.7; stroke-linecap: square"/>
     </g>
     <g id="line2d_56">
      <g>
       <use xlink:href="#m565447fe9e" x="779.704132" y="272.248" style="stroke: #000000; stroke-width: 0.8"/>
      </g>
     </g>
     <g id="text_23">
      <!-- 0.2 -->
      <g transform="translate(771.752569 286.846438) scale(0.1 -0.1)">
       <use xlink:href="#DejaVuSans-30"/>
       <use xlink:href="#DejaVuSans-2e" transform="translate(63.623047 0)"/>
       <use xlink:href="#DejaVuSans-32" transform="translate(95.410156 0)"/>
      </g>
     </g>
    </g>
    <g id="xtick_15">
     <g id="line2d_57">
      <path d="M 839.491169 272.248 
L 839.491169 61.248 
" clip-path="url(#pc355c51eaf)" style="fill: none; stroke: #eeeeee; stroke-width: 0.7; stroke-linecap: square"/>
     </g>
     <g id="line2d_58">
      <g>
       <use xlink:href="#m565447fe9e" x="839.491169" y="272.248" style="stroke: #000000; stroke-width: 0.8"/>
      </g>
     </g>
     <g id="text_24">
      <!-- 0.4 -->
      <g transform="translate(831.539606 286.846438) scale(0.1 -0.1)">
       <use xlink:href="#DejaVuSans-30"/>
       <use xlink:href="#DejaVuSans-2e" transform="translate(63.623047 0)"/>
       <use xlink:href="#DejaVuSans-34" transform="translate(95.410156 0)"/>
      </g>
     </g>
    </g>
    <g id="xtick_16">
     <g id="line2d_59">
      <path d="M 899.278206 272.248 
L 899.278206 61.248 
" clip-path="url(#pc355c51eaf)" style="fill: none; stroke: #eeeeee; stroke-width: 0.7; stroke-linecap: square"/>
     </g>
     <g id="line2d_60">
      <g>
       <use xlink:href="#m565447fe9e" x="899.278206" y="272.248" style="stroke: #000000; stroke-width: 0.8"/>
      </g>
     </g>
     <g id="text_25">
      <!-- 0.6 -->
      <g transform="translate(891.326644 286.846438) scale(0.1 -0.1)">
       <use xlink:href="#DejaVuSans-30"/>
       <use xlink:href="#DejaVuSans-2e" transform="translate(63.623047 0)"/>
       <use xlink:href="#DejaVuSans-36" transform="translate(95.410156 0)"/>
      </g>
     </g>
    </g>
    <g id="xtick_17">
     <g id="line2d_61">
      <path d="M 959.065243 272.248 
L 959.065243 61.248 
" clip-path="url(#pc355c51eaf)" style="fill: none; stroke: #eeeeee; stroke-width: 0.7; stroke-linecap: square"/>
     </g>
     <g id="line2d_62">
      <g>
       <use xlink:href="#m565447fe9e" x="959.065243" y="272.248" style="stroke: #000000; stroke-width: 0.8"/>
      </g>
     </g>
     <g id="text_26">
      <!-- 0.8 -->
      <g transform="translate(951.113681 286.846438) scale(0.1 -0.1)">
       <use xlink:href="#DejaVuSans-30"/>
       <use xlink:href="#DejaVuSans-2e" transform="translate(63.623047 0)"/>
       <use xlink:href="#DejaVuSans-38" transform="translate(95.410156 0)"/>
      </g>
     </g>
    </g>
    <g id="xtick_18">
     <g id="line2d_63">
      <path d="M 1018.85228 272.248 
L 1018.85228 61.248 
" clip-path="url(#pc355c51eaf)" style="fill: none; stroke: #eeeeee; stroke-width: 0.7; stroke-linecap: square"/>
     </g>
     <g id="line2d_64">
      <g>
       <use xlink:href="#m565447fe9e" x="1018.85228" y="272.248" style="stroke: #000000; stroke-width: 0.8"/>
      </g>
     </g>
     <g id="text_27">
      <!-- 1.0 -->
      <g transform="translate(1010.900718 286.846438) scale(0.1 -0.1)">
       <use xlink:href="#DejaVuSans-31"/>
       <use xlink:href="#DejaVuSans-2e" transform="translate(63.623047 0)"/>
       <use xlink:href="#DejaVuSans-30" transform="translate(95.410156 0)"/>
      </g>
     </g>
    </g>
    <g id="text_28">
     <!-- Proportion -->
     <g transform="translate(843.588594 300.524563) scale(0.1 -0.1)">
      <use xlink:href="#DejaVuSans-50"/>
      <use xlink:href="#DejaVuSans-72" transform="translate(58.552734 0)"/>
      <use xlink:href="#DejaVuSans-6f" transform="translate(97.416016 0)"/>
      <use xlink:href="#DejaVuSans-70" transform="translate(158.597656 0)"/>
      <use xlink:href="#DejaVuSans-6f" transform="translate(222.074219 0)"/>
      <use xlink:href="#DejaVuSans-72" transform="translate(283.255859 0)"/>
      <use xlink:href="#DejaVuSans-74" transform="translate(324.369141 0)"/>
      <use xlink:href="#DejaVuSans-69" transform="translate(363.578125 0)"/>
      <use xlink:href="#DejaVuSans-6f" transform="translate(391.361328 0)"/>
      <use xlink:href="#DejaVuSans-6e" transform="translate(452.542969 0)"/>
     </g>
    </g>
   </g>
   <g id="matplotlib.axis_6">
    <g id="ytick_7">
     <g id="line2d_65">
      <g>
       <use xlink:href="#med86cade98" x="707.959687" y="252.381117" style="stroke: #000000; stroke-width: 0.8"/>
      </g>
     </g>
    </g>
    <g id="ytick_8">
     <g id="line2d_66">
      <g>
       <use xlink:href="#med86cade98" x="707.959687" y="166.748" style="stroke: #000000; stroke-width: 0.8"/>
      </g>
     </g>
    </g>
    <g id="ytick_9">
     <g id="line2d_67">
      <g>
       <use xlink:href="#med86cade98" x="707.959687" y="81.114883" style="stroke: #000000; stroke-width: 0.8"/>
      </g>
     </g>
    </g>
   </g>
   <g id="line2d_68">
    <path d="M 869.384687 272.248 
L 869.384687 61.248 
" clip-path="url(#pc355c51eaf)" style="fill: none; stroke-dasharray: 0.8,1.32; stroke-dashoffset: 0; stroke: #cccccc; stroke-width: 0.8"/>
   </g>
   <g id="patch_10">
    <path d="M 707.959687 272.248 
L 707.959687 61.248 
" style="fill: none; stroke: #000000; stroke-width: 0.8; stroke-linejoin: miter; stroke-linecap: square"/>
   </g>
   <g id="patch_11">
    <path d="M 707.959687 272.248 
L 1030.809687 272.248 
" style="fill: none; stroke: #000000; stroke-width: 0.8; stroke-linejoin: miter; stroke-linecap: square"/>
   </g>
   <g id="LineCollection_7">
    <path d="M 905.85478 262.657091 
L 931.862141 262.657091 
" clip-path="url(#pc355c51eaf)" style="fill: none; stroke: #1f77b4; stroke-width: 1.4"/>
    <path d="M 750.109549 177.023974 
L 768.64353 177.023974 
" clip-path="url(#pc355c51eaf)" style="fill: none; stroke: #1f77b4; stroke-width: 1.4"/>
    <path d="M 770.736076 91.390857 
L 792.85728 91.390857 
" clip-path="url(#pc355c51eaf)" style="fill: none; stroke: #1f77b4; stroke-width: 1.4"/>
   </g>
   <g id="line2d_69">
    <g clip-path="url(#pc355c51eaf)">
     <use xlink:href="#mecfd75d15e" x="905.85478" y="262.657091" style="fill: #1f77b4; stroke: #1f77b4; stroke-width: 1.4"/>
     <use xlink:href="#mecfd75d15e" x="750.109549" y="177.023974" style="fill: #1f77b4; stroke: #1f77b4; stroke-width: 1.4"/>
     <use xlink:href="#mecfd75d15e" x="770.736076" y="91.390857" style="fill: #1f77b4; stroke: #1f77b4; stroke-width: 1.4"/>
    </g>
   </g>
   <g id="line2d_70">
    <g clip-path="url(#pc355c51eaf)">
     <use xlink:href="#mecfd75d15e" x="931.862141" y="262.657091" style="fill: #1f77b4; stroke: #1f77b4; stroke-width: 1.4"/>
     <use xlink:href="#mecfd75d15e" x="768.64353" y="177.023974" style="fill: #1f77b4; stroke: #1f77b4; stroke-width: 1.4"/>
     <use xlink:href="#mecfd75d15e" x="792.85728" y="91.390857" style="fill: #1f77b4; stroke: #1f77b4; stroke-width: 1.4"/>
    </g>
   </g>
   <g id="LineCollection_8">
    <path d="M 883.135706 242.105143 
L 910.338808 242.105143 
" clip-path="url(#pc355c51eaf)" style="fill: none; stroke: #d62728; stroke-width: 1.4"/>
    <path d="M 748.315937 156.472026 
L 766.550984 156.472026 
" clip-path="url(#pc355c51eaf)" style="fill: none; stroke: #d62728; stroke-width: 1.4"/>
    <path d="M 793.156215 70.838909 
L 818.266771 70.838909 
" clip-path="url(#pc355c51eaf)" style="fill: none; stroke: #d62728; stroke-width: 1.4"/>
   </g>
   <g id="line2d_71">
    <g clip-path="url(#pc355c51eaf)">
     <use xlink:href="#m29d6982a4d" x="883.135706" y="242.105143" style="fill: #ff7f0e; stroke: #d62728; stroke-width: 1.4"/>
     <use xlink:href="#m29d6982a4d" x="748.315937" y="156.472026" style="fill: #ff7f0e; stroke: #d62728; stroke-width: 1.4"/>
     <use xlink:href="#m29d6982a4d" x="793.156215" y="70.838909" style="fill: #ff7f0e; stroke: #d62728; stroke-width: 1.4"/>
    </g>
   </g>
   <g id="line2d_72">
    <g clip-path="url(#pc355c51eaf)">
     <use xlink:href="#m29d6982a4d" x="910.338808" y="242.105143" style="fill: #ff7f0e; stroke: #d62728; stroke-width: 1.4"/>
     <use xlink:href="#m29d6982a4d" x="766.550984" y="156.472026" style="fill: #ff7f0e; stroke: #d62728; stroke-width: 1.4"/>
     <use xlink:href="#m29d6982a4d" x="818.266771" y="70.838909" style="fill: #ff7f0e; stroke: #d62728; stroke-width: 1.4"/>
    </g>
   </g>
   <g id="text_29">
    <!-- label_accuracy -->
    <g transform="translate(824.067266 55.248) scale(0.11 -0.11)">
     <defs>
      <path id="DejaVuSans-Bold-62" d="M 2400 722 
Q 2759 722 2948 984 
Q 3138 1247 3138 1747 
Q 3138 2247 2948 2509 
Q 2759 2772 2400 2772 
Q 2041 2772 1848 2508 
Q 1656 2244 1656 1747 
Q 1656 1250 1848 986 
Q 2041 722 2400 722 
z
M 1656 2988 
Q 1888 3294 2169 3439 
Q 2450 3584 2816 3584 
Q 3463 3584 3878 3070 
Q 4294 2556 4294 1747 
Q 4294 938 3878 423 
Q 3463 -91 2816 -91 
Q 2450 -91 2169 54 
Q 1888 200 1656 506 
L 1656 0 
L 538 0 
L 538 4863 
L 1656 4863 
L 1656 2988 
z
" transform="scale(0.015625)"/>
      <path id="DejaVuSans-Bold-5f" d="M 3200 -916 
L 3200 -1509 
L 0 -1509 
L 0 -916 
L 3200 -916 
z
" transform="scale(0.015625)"/>
      <path id="DejaVuSans-Bold-75" d="M 500 1363 
L 500 3500 
L 1625 3500 
L 1625 3150 
Q 1625 2866 1622 2436 
Q 1619 2006 1619 1863 
Q 1619 1441 1641 1255 
Q 1663 1069 1716 984 
Q 1784 875 1895 815 
Q 2006 756 2150 756 
Q 2500 756 2700 1025 
Q 2900 1294 2900 1772 
L 2900 3500 
L 4019 3500 
L 4019 0 
L 2900 0 
L 2900 506 
Q 2647 200 2364 54 
Q 2081 -91 1741 -91 
Q 1134 -91 817 281 
Q 500 653 500 1363 
z
" transform="scale(0.015625)"/>
      <path id="DejaVuSans-Bold-79" d="M 78 3500 
L 1197 3500 
L 2138 1125 
L 2938 3500 
L 4056 3500 
L 2584 -331 
Q 2363 -916 2067 -1148 
Q 1772 -1381 1288 -1381 
L 641 -1381 
L 641 -647 
L 991 -647 
Q 1275 -647 1404 -556 
Q 1534 -466 1606 -231 
L 1638 -134 
L 78 3500 
z
" transform="scale(0.015625)"/>
     </defs>
     <use xlink:href="#DejaVuSans-Bold-6c"/>
     <use xlink:href="#DejaVuSans-Bold-61" transform="translate(34.277344 0)"/>
     <use xlink:href="#DejaVuSans-Bold-62" transform="translate(101.757812 0)"/>
     <use xlink:href="#DejaVuSans-Bold-65" transform="translate(173.339844 0)"/>
     <use xlink:href="#DejaVuSans-Bold-6c" transform="translate(241.162109 0)"/>
     <use xlink:href="#DejaVuSans-Bold-5f" transform="translate(275.439453 0)"/>
     <use xlink:href="#DejaVuSans-Bold-61" transform="translate(325.439453 0)"/>
     <use xlink:href="#DejaVuSans-Bold-63" transform="translate(392.919922 0)"/>
     <use xlink:href="#DejaVuSans-Bold-63" transform="translate(452.197266 0)"/>
     <use xlink:href="#DejaVuSans-Bold-75" transform="translate(511.474609 0)"/>
     <use xlink:href="#DejaVuSans-Bold-72" transform="translate(582.666016 0)"/>
     <use xlink:href="#DejaVuSans-Bold-61" transform="translate(631.982422 0)"/>
     <use xlink:href="#DejaVuSans-Bold-63" transform="translate(699.462891 0)"/>
     <use xlink:href="#DejaVuSans-Bold-79" transform="translate(758.740234 0)"/>
    </g>
   </g>
   <g id="line2d_73">
    <g clip-path="url(#pc355c51eaf)">
     <use xlink:href="#m7c85a8ed83" x="919.306863" y="262.657091" style="fill: #1f77b4; stroke: #1f77b4"/>
     <use xlink:href="#m7c85a8ed83" x="758.479734" y="177.023974" style="fill: #1f77b4; stroke: #1f77b4"/>
     <use xlink:href="#m7c85a8ed83" x="780.899873" y="91.390857" style="fill: #1f77b4; stroke: #1f77b4"/>
    </g>
   </g>
   <g id="line2d_74">
    <g clip-path="url(#pc355c51eaf)">
     <use xlink:href="#m6ddea70892" x="896.886725" y="242.105143" style="fill-opacity: 0; stroke: #d62728; stroke-linejoin: miter"/>
     <use xlink:href="#m6ddea70892" x="756.387187" y="156.472026" style="fill-opacity: 0; stroke: #d62728; stroke-linejoin: miter"/>
     <use xlink:href="#m6ddea70892" x="805.113623" y="70.838909" style="fill-opacity: 0; stroke: #d62728; stroke-linejoin: miter"/>
    </g>
   </g>
  </g>
  <g id="axes_4">
   <g id="patch_12">
    <path d="M 1045.109688 272.248 
L 1367.959687 272.248 
L 1367.959687 61.248 
L 1045.109688 61.248 
z
" style="fill: #ffffff"/>
   </g>
   <g id="matplotlib.axis_7">
    <g id="xtick_19">
     <g id="line2d_75">
      <path d="M 1057.067095 272.248 
L 1057.067095 61.248 
" clip-path="url(#pfd028db372)" style="fill: none; stroke: #eeeeee; stroke-width: 0.7; stroke-linecap: square"/>
     </g>
     <g id="line2d_76">
      <g>
       <use xlink:href="#m565447fe9e" x="1057.067095" y="272.248" style="stroke: #000000; stroke-width: 0.8"/>
      </g>
     </g>
     <g id="text_30">
      <!-- 0.0 -->
      <g transform="translate(1049.115532 286.846438) scale(0.1 -0.1)">
       <use xlink:href="#DejaVuSans-30"/>
       <use xlink:href="#DejaVuSans-2e" transform="translate(63.623047 0)"/>
       <use xlink:href="#DejaVuSans-30" transform="translate(95.410156 0)"/>
      </g>
     </g>
    </g>
    <g id="xtick_20">
     <g id="line2d_77">
      <path d="M 1116.854132 272.248 
L 1116.854132 61.248 
" clip-path="url(#pfd028db372)" style="fill: none; stroke: #eeeeee; stroke-width: 0.7; stroke-linecap: square"/>
     </g>
     <g id="line2d_78">
      <g>
       <use xlink:href="#m565447fe9e" x="1116.854132" y="272.248" style="stroke: #000000; stroke-width: 0.8"/>
      </g>
     </g>
     <g id="text_31">
      <!-- 0.2 -->
      <g transform="translate(1108.902569 286.846438) scale(0.1 -0.1)">
       <use xlink:href="#DejaVuSans-30"/>
       <use xlink:href="#DejaVuSans-2e" transform="translate(63.623047 0)"/>
       <use xlink:href="#DejaVuSans-32" transform="translate(95.410156 0)"/>
      </g>
     </g>
    </g>
    <g id="xtick_21">
     <g id="line2d_79">
      <path d="M 1176.641169 272.248 
L 1176.641169 61.248 
" clip-path="url(#pfd028db372)" style="fill: none; stroke: #eeeeee; stroke-width: 0.7; stroke-linecap: square"/>
     </g>
     <g id="line2d_80">
      <g>
       <use xlink:href="#m565447fe9e" x="1176.641169" y="272.248" style="stroke: #000000; stroke-width: 0.8"/>
      </g>
     </g>
     <g id="text_32">
      <!-- 0.4 -->
      <g transform="translate(1168.689606 286.846438) scale(0.1 -0.1)">
       <use xlink:href="#DejaVuSans-30"/>
       <use xlink:href="#DejaVuSans-2e" transform="translate(63.623047 0)"/>
       <use xlink:href="#DejaVuSans-34" transform="translate(95.410156 0)"/>
      </g>
     </g>
    </g>
    <g id="xtick_22">
     <g id="line2d_81">
      <path d="M 1236.428206 272.248 
L 1236.428206 61.248 
" clip-path="url(#pfd028db372)" style="fill: none; stroke: #eeeeee; stroke-width: 0.7; stroke-linecap: square"/>
     </g>
     <g id="line2d_82">
      <g>
       <use xlink:href="#m565447fe9e" x="1236.428206" y="272.248" style="stroke: #000000; stroke-width: 0.8"/>
      </g>
     </g>
     <g id="text_33">
      <!-- 0.6 -->
      <g transform="translate(1228.476644 286.846438) scale(0.1 -0.1)">
       <use xlink:href="#DejaVuSans-30"/>
       <use xlink:href="#DejaVuSans-2e" transform="translate(63.623047 0)"/>
       <use xlink:href="#DejaVuSans-36" transform="translate(95.410156 0)"/>
      </g>
     </g>
    </g>
    <g id="xtick_23">
     <g id="line2d_83">
      <path d="M 1296.215243 272.248 
L 1296.215243 61.248 
" clip-path="url(#pfd028db372)" style="fill: none; stroke: #eeeeee; stroke-width: 0.7; stroke-linecap: square"/>
     </g>
     <g id="line2d_84">
      <g>
       <use xlink:href="#m565447fe9e" x="1296.215243" y="272.248" style="stroke: #000000; stroke-width: 0.8"/>
      </g>
     </g>
     <g id="text_34">
      <!-- 0.8 -->
      <g transform="translate(1288.263681 286.846438) scale(0.1 -0.1)">
       <use xlink:href="#DejaVuSans-30"/>
       <use xlink:href="#DejaVuSans-2e" transform="translate(63.623047 0)"/>
       <use xlink:href="#DejaVuSans-38" transform="translate(95.410156 0)"/>
      </g>
     </g>
    </g>
    <g id="xtick_24">
     <g id="line2d_85">
      <path d="M 1356.00228 272.248 
L 1356.00228 61.248 
" clip-path="url(#pfd028db372)" style="fill: none; stroke: #eeeeee; stroke-width: 0.7; stroke-linecap: square"/>
     </g>
     <g id="line2d_86">
      <g>
       <use xlink:href="#m565447fe9e" x="1356.00228" y="272.248" style="stroke: #000000; stroke-width: 0.8"/>
      </g>
     </g>
     <g id="text_35">
      <!-- 1.0 -->
      <g transform="translate(1348.050718 286.846438) scale(0.1 -0.1)">
       <use xlink:href="#DejaVuSans-31"/>
       <use xlink:href="#DejaVuSans-2e" transform="translate(63.623047 0)"/>
       <use xlink:href="#DejaVuSans-30" transform="translate(95.410156 0)"/>
      </g>
     </g>
    </g>
    <g id="text_36">
     <!-- Proportion -->
     <g transform="translate(1180.738594 300.524563) scale(0.1 -0.1)">
      <use xlink:href="#DejaVuSans-50"/>
      <use xlink:href="#DejaVuSans-72" transform="translate(58.552734 0)"/>
      <use xlink:href="#DejaVuSans-6f" transform="translate(97.416016 0)"/>
      <use xlink:href="#DejaVuSans-70" transform="translate(158.597656 0)"/>
      <use xlink:href="#DejaVuSans-6f" transform="translate(222.074219 0)"/>
      <use xlink:href="#DejaVuSans-72" transform="translate(283.255859 0)"/>
      <use xlink:href="#DejaVuSans-74" transform="translate(324.369141 0)"/>
      <use xlink:href="#DejaVuSans-69" transform="translate(363.578125 0)"/>
      <use xlink:href="#DejaVuSans-6f" transform="translate(391.361328 0)"/>
      <use xlink:href="#DejaVuSans-6e" transform="translate(452.542969 0)"/>
     </g>
    </g>
   </g>
   <g id="matplotlib.axis_8">
    <g id="ytick_10">
     <g id="line2d_87">
      <g>
       <use xlink:href="#med86cade98" x="1045.109688" y="252.381117" style="stroke: #000000; stroke-width: 0.8"/>
      </g>
     </g>
    </g>
    <g id="ytick_11">
     <g id="line2d_88">
      <g>
       <use xlink:href="#med86cade98" x="1045.109688" y="166.748" style="stroke: #000000; stroke-width: 0.8"/>
      </g>
     </g>
    </g>
    <g id="ytick_12">
     <g id="line2d_89">
      <g>
       <use xlink:href="#med86cade98" x="1045.109688" y="81.114883" style="stroke: #000000; stroke-width: 0.8"/>
      </g>
     </g>
    </g>
   </g>
   <g id="line2d_90">
    <path d="M 1206.534687 272.248 
L 1206.534687 61.248 
" clip-path="url(#pfd028db372)" style="fill: none; stroke-dasharray: 0.8,1.32; stroke-dashoffset: 0; stroke: #cccccc; stroke-width: 0.8"/>
   </g>
   <g id="patch_13">
    <path d="M 1045.109688 272.248 
L 1045.109688 61.248 
" style="fill: none; stroke: #000000; stroke-width: 0.8; stroke-linejoin: miter; stroke-linecap: square"/>
   </g>
   <g id="patch_14">
    <path d="M 1045.109688 272.248 
L 1367.959687 272.248 
" style="fill: none; stroke: #000000; stroke-width: 0.8; stroke-linejoin: miter; stroke-linecap: square"/>
   </g>
   <g id="LineCollection_9">
    <path d="M 1245.097326 262.657091 
L 1270.805752 262.657091 
" clip-path="url(#pfd028db372)" style="fill: none; stroke: #1f77b4; stroke-width: 1.4"/>
    <path d="M 1106.092465 177.023974 
L 1127.914734 177.023974 
" clip-path="url(#pfd028db372)" style="fill: none; stroke: #1f77b4; stroke-width: 1.4"/>
    <path d="M 1087.259549 91.390857 
L 1105.79353 91.390857 
" clip-path="url(#pfd028db372)" style="fill: none; stroke: #1f77b4; stroke-width: 1.4"/>
   </g>
   <g id="line2d_91">
    <g clip-path="url(#pfd028db372)">
     <use xlink:href="#mecfd75d15e" x="1245.097326" y="262.657091" style="fill: #1f77b4; stroke: #1f77b4; stroke-width: 1.4"/>
     <use xlink:href="#mecfd75d15e" x="1106.092465" y="177.023974" style="fill: #1f77b4; stroke: #1f77b4; stroke-width: 1.4"/>
     <use xlink:href="#mecfd75d15e" x="1087.259549" y="91.390857" style="fill: #1f77b4; stroke: #1f77b4; stroke-width: 1.4"/>
    </g>
   </g>
   <g id="line2d_92">
    <g clip-path="url(#pfd028db372)">
     <use xlink:href="#mecfd75d15e" x="1270.805752" y="262.657091" style="fill: #1f77b4; stroke: #1f77b4; stroke-width: 1.4"/>
     <use xlink:href="#mecfd75d15e" x="1127.914734" y="177.023974" style="fill: #1f77b4; stroke: #1f77b4; stroke-width: 1.4"/>
     <use xlink:href="#mecfd75d15e" x="1105.79353" y="91.390857" style="fill: #1f77b4; stroke: #1f77b4; stroke-width: 1.4"/>
    </g>
   </g>
   <g id="LineCollection_10">
    <path d="M 1221.481447 242.105143 
L 1248.684549 242.105143 
" clip-path="url(#pfd028db372)" style="fill: none; stroke: #d62728; stroke-width: 1.4"/>
    <path d="M 1110.576493 156.472026 
L 1133.295567 156.472026 
" clip-path="url(#pfd028db372)" style="fill: none; stroke: #d62728; stroke-width: 1.4"/>
    <path d="M 1103.700984 70.838909 
L 1125.523252 70.838909 
" clip-path="url(#pfd028db372)" style="fill: none; stroke: #d62728; stroke-width: 1.4"/>
   </g>
   <g id="line2d_93">
    <g clip-path="url(#pfd028db372)">
     <use xlink:href="#m29d6982a4d" x="1221.481447" y="242.105143" style="fill: #ff7f0e; stroke: #d62728; stroke-width: 1.4"/>
     <use xlink:href="#m29d6982a4d" x="1110.576493" y="156.472026" style="fill: #ff7f0e; stroke: #d62728; stroke-width: 1.4"/>
     <use xlink:href="#m29d6982a4d" x="1103.700984" y="70.838909" style="fill: #ff7f0e; stroke: #d62728; stroke-width: 1.4"/>
    </g>
   </g>
   <g id="line2d_94">
    <g clip-path="url(#pfd028db372)">
     <use xlink:href="#m29d6982a4d" x="1248.684549" y="242.105143" style="fill: #ff7f0e; stroke: #d62728; stroke-width: 1.4"/>
     <use xlink:href="#m29d6982a4d" x="1133.295567" y="156.472026" style="fill: #ff7f0e; stroke: #d62728; stroke-width: 1.4"/>
     <use xlink:href="#m29d6982a4d" x="1125.523252" y="70.838909" style="fill: #ff7f0e; stroke: #d62728; stroke-width: 1.4"/>
    </g>
   </g>
   <g id="text_37">
    <!-- labeling -->
    <g transform="translate(1181.647187 55.248) scale(0.11 -0.11)">
     <use xlink:href="#DejaVuSans-Bold-6c"/>
     <use xlink:href="#DejaVuSans-Bold-61" transform="translate(34.277344 0)"/>
     <use xlink:href="#DejaVuSans-Bold-62" transform="translate(101.757812 0)"/>
     <use xlink:href="#DejaVuSans-Bold-65" transform="translate(173.339844 0)"/>
     <use xlink:href="#DejaVuSans-Bold-6c" transform="translate(241.162109 0)"/>
     <use xlink:href="#DejaVuSans-Bold-69" transform="translate(275.439453 0)"/>
     <use xlink:href="#DejaVuSans-Bold-6e" transform="translate(309.716797 0)"/>
     <use xlink:href="#DejaVuSans-Bold-67" transform="translate(380.908203 0)"/>
    </g>
   </g>
   <g id="line2d_95">
    <g clip-path="url(#pfd028db372)">
     <use xlink:href="#m7c85a8ed83" x="1258.250475" y="262.657091" style="fill: #1f77b4; stroke: #1f77b4"/>
     <use xlink:href="#m7c85a8ed83" x="1116.256262" y="177.023974" style="fill: #1f77b4; stroke: #1f77b4"/>
     <use xlink:href="#m7c85a8ed83" x="1095.629734" y="91.390857" style="fill: #1f77b4; stroke: #1f77b4"/>
    </g>
   </g>
   <g id="line2d_96">
    <g clip-path="url(#pfd028db372)">
     <use xlink:href="#m6ddea70892" x="1235.232465" y="242.105143" style="fill-opacity: 0; stroke: #d62728; stroke-linejoin: miter"/>
     <use xlink:href="#m6ddea70892" x="1121.039225" y="156.472026" style="fill-opacity: 0; stroke: #d62728; stroke-linejoin: miter"/>
     <use xlink:href="#m6ddea70892" x="1113.86478" y="70.838909" style="fill-opacity: 0; stroke: #d62728; stroke-linejoin: miter"/>
    </g>
   </g>
  </g>
  <g id="text_38">
   <!-- Label Proportions with 95 % Wilson CIs — Human Consensus vs Ensemble Majority -->
   <g transform="translate(385.036484 17.077969) scale(0.13 -0.13)">
    <defs>
     <path id="DejaVuSans-Bold-4c" d="M 588 4666 
L 1791 4666 
L 1791 909 
L 3903 909 
L 3903 0 
L 588 0 
L 588 4666 
z
" transform="scale(0.015625)"/>
     <path id="DejaVuSans-Bold-20" transform="scale(0.015625)"/>
     <path id="DejaVuSans-Bold-50" d="M 588 4666 
L 2584 4666 
Q 3475 4666 3951 4270 
Q 4428 3875 4428 3144 
Q 4428 2409 3951 2014 
Q 3475 1619 2584 1619 
L 1791 1619 
L 1791 0 
L 588 0 
L 588 4666 
z
M 1791 3794 
L 1791 2491 
L 2456 2491 
Q 2806 2491 2997 2661 
Q 3188 2831 3188 3144 
Q 3188 3456 2997 3625 
Q 2806 3794 2456 3794 
L 1791 3794 
z
" transform="scale(0.015625)"/>
     <path id="DejaVuSans-Bold-70" d="M 1656 506 
L 1656 -1331 
L 538 -1331 
L 538 3500 
L 1656 3500 
L 1656 2988 
Q 1888 3294 2169 3439 
Q 2450 3584 2816 3584 
Q 3463 3584 3878 3070 
Q 4294 2556 4294 1747 
Q 4294 938 3878 423 
Q 3463 -91 2816 -91 
Q 2450 -91 2169 54 
Q 1888 200 1656 506 
z
M 2400 2772 
Q 2041 2772 1848 2508 
Q 1656 2244 1656 1747 
Q 1656 1250 1848 986 
Q 2041 722 2400 722 
Q 2759 722 2948 984 
Q 3138 1247 3138 1747 
Q 3138 2247 2948 2509 
Q 2759 2772 2400 2772 
z
" transform="scale(0.015625)"/>
     <path id="DejaVuSans-Bold-74" d="M 1759 4494 
L 1759 3500 
L 2913 3500 
L 2913 2700 
L 1759 2700 
L 1759 1216 
Q 1759 972 1856 886 
Q 1953 800 2241 800 
L 2816 800 
L 2816 0 
L 1856 0 
Q 1194 0 917 276 
Q 641 553 641 1216 
L 641 2700 
L 84 2700 
L 84 3500 
L 641 3500 
L 641 4494 
L 1759 4494 
z
" transform="scale(0.015625)"/>
     <path id="DejaVuSans-Bold-77" d="M 225 3500 
L 1313 3500 
L 1900 1088 
L 2491 3500 
L 3425 3500 
L 4013 1113 
L 4603 3500 
L 5691 3500 
L 4769 0 
L 3547 0 
L 2956 2406 
L 2369 0 
L 1147 0 
L 225 3500 
z
" transform="scale(0.015625)"/>
     <path id="DejaVuSans-Bold-39" d="M 641 103 
L 641 966 
Q 928 831 1190 764 
Q 1453 697 1709 697 
Q 2247 697 2547 995 
Q 2847 1294 2900 1881 
Q 2688 1725 2447 1647 
Q 2206 1569 1925 1569 
Q 1209 1569 770 1986 
Q 331 2403 331 3084 
Q 331 3838 820 4291 
Q 1309 4744 2131 4744 
Q 3044 4744 3544 4128 
Q 4044 3513 4044 2388 
Q 4044 1231 3459 570 
Q 2875 -91 1856 -91 
Q 1528 -91 1228 -42 
Q 928 6 641 103 
z
M 2125 2350 
Q 2441 2350 2600 2554 
Q 2759 2759 2759 3169 
Q 2759 3575 2600 3781 
Q 2441 3988 2125 3988 
Q 1809 3988 1650 3781 
Q 1491 3575 1491 3169 
Q 1491 2759 1650 2554 
Q 1809 2350 2125 2350 
z
" transform="scale(0.015625)"/>
     <path id="DejaVuSans-Bold-35" d="M 678 4666 
L 3669 4666 
L 3669 3781 
L 1638 3781 
L 1638 3059 
Q 1775 3097 1914 3117 
Q 2053 3138 2203 3138 
Q 3056 3138 3531 2711 
Q 4006 2284 4006 1522 
Q 4006 766 3489 337 
Q 2972 -91 2053 -91 
Q 1656 -91 1267 -14 
Q 878 63 494 219 
L 494 1166 
Q 875 947 1217 837 
Q 1559 728 1863 728 
Q 2300 728 2551 942 
Q 2803 1156 2803 1522 
Q 2803 1891 2551 2103 
Q 2300 2316 1863 2316 
Q 1603 2316 1309 2248 
Q 1016 2181 678 2041 
L 678 4666 
z
" transform="scale(0.015625)"/>
     <path id="DejaVuSans-Bold-25" d="M 4959 1925 
Q 4738 1925 4616 1733 
Q 4494 1541 4494 1184 
Q 4494 825 4614 633 
Q 4734 441 4959 441 
Q 5184 441 5303 633 
Q 5422 825 5422 1184 
Q 5422 1541 5301 1733 
Q 5181 1925 4959 1925 
z
M 4959 2450 
Q 5541 2450 5875 2112 
Q 6209 1775 6209 1184 
Q 6209 594 5875 251 
Q 5541 -91 4959 -91 
Q 4378 -91 4042 251 
Q 3706 594 3706 1184 
Q 3706 1772 4042 2111 
Q 4378 2450 4959 2450 
z
M 2094 -91 
L 1403 -91 
L 4319 4750 
L 5013 4750 
L 2094 -91 
z
M 1453 4750 
Q 2034 4750 2367 4411 
Q 2700 4072 2700 3481 
Q 2700 2891 2367 2550 
Q 2034 2209 1453 2209 
Q 872 2209 539 2550 
Q 206 2891 206 3481 
Q 206 4072 539 4411 
Q 872 4750 1453 4750 
z
M 1453 4225 
Q 1228 4225 1106 4031 
Q 984 3838 984 3481 
Q 984 3122 1106 2926 
Q 1228 2731 1453 2731 
Q 1678 2731 1798 2926 
Q 1919 3122 1919 3481 
Q 1919 3838 1797 4031 
Q 1675 4225 1453 4225 
z
" transform="scale(0.015625)"/>
     <path id="DejaVuSans-Bold-57" d="M 191 4666 
L 1344 4666 
L 2150 1275 
L 2950 4666 
L 4109 4666 
L 4909 1275 
L 5716 4666 
L 6859 4666 
L 5759 0 
L 4372 0 
L 3525 3547 
L 2688 0 
L 1300 0 
L 191 4666 
z
" transform="scale(0.015625)"/>
     <path id="DejaVuSans-Bold-43" d="M 4288 256 
Q 3956 84 3597 -3 
Q 3238 -91 2847 -91 
Q 1681 -91 1000 561 
Q 319 1213 319 2328 
Q 319 3447 1000 4098 
Q 1681 4750 2847 4750 
Q 3238 4750 3597 4662 
Q 3956 4575 4288 4403 
L 4288 3438 
Q 3953 3666 3628 3772 
Q 3303 3878 2944 3878 
Q 2300 3878 1931 3465 
Q 1563 3053 1563 2328 
Q 1563 1606 1931 1193 
Q 2300 781 2944 781 
Q 3303 781 3628 887 
Q 3953 994 4288 1222 
L 4288 256 
z
" transform="scale(0.015625)"/>
     <path id="DejaVuSans-Bold-49" d="M 588 4666 
L 1791 4666 
L 1791 0 
L 588 0 
L 588 4666 
z
" transform="scale(0.015625)"/>
     <path id="DejaVuSans-Bold-2014" d="M 344 2156 
L 6056 2156 
L 6056 1350 
L 344 1350 
L 344 2156 
z
" transform="scale(0.015625)"/>
     <path id="DejaVuSans-Bold-48" d="M 588 4666 
L 1791 4666 
L 1791 2888 
L 3566 2888 
L 3566 4666 
L 4769 4666 
L 4769 0 
L 3566 0 
L 3566 1978 
L 1791 1978 
L 1791 0 
L 588 0 
L 588 4666 
z
" transform="scale(0.015625)"/>
     <path id="DejaVuSans-Bold-6d" d="M 3781 2919 
Q 3994 3244 4286 3414 
Q 4578 3584 4928 3584 
Q 5531 3584 5847 3212 
Q 6163 2841 6163 2131 
L 6163 0 
L 5038 0 
L 5038 1825 
Q 5041 1866 5042 1909 
Q 5044 1953 5044 2034 
Q 5044 2406 4934 2573 
Q 4825 2741 4581 2741 
Q 4263 2741 4089 2478 
Q 3916 2216 3909 1719 
L 3909 0 
L 2784 0 
L 2784 1825 
Q 2784 2406 2684 2573 
Q 2584 2741 2328 2741 
Q 2006 2741 1831 2477 
Q 1656 2213 1656 1722 
L 1656 0 
L 531 0 
L 531 3500 
L 1656 3500 
L 1656 2988 
Q 1863 3284 2130 3434 
Q 2397 3584 2719 3584 
Q 3081 3584 3359 3409 
Q 3638 3234 3781 2919 
z
" transform="scale(0.015625)"/>
     <path id="DejaVuSans-Bold-76" d="M 97 3500 
L 1216 3500 
L 2088 1081 
L 2956 3500 
L 4078 3500 
L 2700 0 
L 1472 0 
L 97 3500 
z
" transform="scale(0.015625)"/>
     <path id="DejaVuSans-Bold-45" d="M 588 4666 
L 3834 4666 
L 3834 3756 
L 1791 3756 
L 1791 2888 
L 3713 2888 
L 3713 1978 
L 1791 1978 
L 1791 909 
L 3903 909 
L 3903 0 
L 588 0 
L 588 4666 
z
" transform="scale(0.015625)"/>
     <path id="DejaVuSans-Bold-4d" d="M 588 4666 
L 2119 4666 
L 3181 2169 
L 4250 4666 
L 5778 4666 
L 5778 0 
L 4641 0 
L 4641 3413 
L 3566 897 
L 2803 897 
L 1728 3413 
L 1728 0 
L 588 0 
L 588 4666 
z
" transform="scale(0.015625)"/>
     <path id="DejaVuSans-Bold-6a" d="M 538 3500 
L 1656 3500 
L 1656 63 
Q 1656 -641 1318 -1011 
Q 981 -1381 341 -1381 
L -213 -1381 
L -213 -647 
L -19 -647 
Q 300 -647 419 -503 
Q 538 -359 538 63 
L 538 3500 
z
M 538 4863 
L 1656 4863 
L 1656 3950 
L 538 3950 
L 538 4863 
z
" transform="scale(0.015625)"/>
    </defs>
    <use xlink:href="#DejaVuSans-Bold-4c"/>
    <use xlink:href="#DejaVuSans-Bold-61" transform="translate(63.720703 0)"/>
    <use xlink:href="#DejaVuSans-Bold-62" transform="translate(131.201172 0)"/>
    <use xlink:href="#DejaVuSans-Bold-65" transform="translate(202.783203 0)"/>
    <use xlink:href="#DejaVuSans-Bold-6c" transform="translate(270.605469 0)"/>
    <use xlink:href="#DejaVuSans-Bold-20" transform="translate(304.882812 0)"/>
    <use xlink:href="#DejaVuSans-Bold-50" transform="translate(339.697266 0)"/>
    <use xlink:href="#DejaVuSans-Bold-72" transform="translate(412.988281 0)"/>
    <use xlink:href="#DejaVuSans-Bold-6f" transform="translate(462.304688 0)"/>
    <use xlink:href="#DejaVuSans-Bold-70" transform="translate(531.005859 0)"/>
    <use xlink:href="#DejaVuSans-Bold-6f" transform="translate(602.587891 0)"/>
    <use xlink:href="#DejaVuSans-Bold-72" transform="translate(671.289062 0)"/>
    <use xlink:href="#DejaVuSans-Bold-74" transform="translate(720.605469 0)"/>
    <use xlink:href="#DejaVuSans-Bold-69" transform="translate(768.408203 0)"/>
    <use xlink:href="#DejaVuSans-Bold-6f" transform="translate(802.685547 0)"/>
    <use xlink:href="#DejaVuSans-Bold-6e" transform="translate(871.386719 0)"/>
    <use xlink:href="#DejaVuSans-Bold-73" transform="translate(942.578125 0)"/>
    <use xlink:href="#DejaVuSans-Bold-20" transform="translate(1002.099609 0)"/>
    <use xlink:href="#DejaVuSans-Bold-77" transform="translate(1036.914062 0)"/>
    <use xlink:href="#DejaVuSans-Bold-69" transform="translate(1129.296875 0)"/>
    <use xlink:href="#DejaVuSans-Bold-74" transform="translate(1163.574219 0)"/>
    <use xlink:href="#DejaVuSans-Bold-68" transform="translate(1211.376953 0)"/>
    <use xlink:href="#DejaVuSans-Bold-20" transform="translate(1282.568359 0)"/>
    <use xlink:href="#DejaVuSans-Bold-39" transform="translate(1317.382812 0)"/>
    <use xlink:href="#DejaVuSans-Bold-35" transform="translate(1386.962891 0)"/>
    <use xlink:href="#DejaVuSans-Bold-20" transform="translate(1456.542969 0)"/>
    <use xlink:href="#DejaVuSans-Bold-25" transform="translate(1491.357422 0)"/>
    <use xlink:href="#DejaVuSans-Bold-20" transform="translate(1591.552734 0)"/>
    <use xlink:href="#DejaVuSans-Bold-57" transform="translate(1626.367188 0)"/>
    <use xlink:href="#DejaVuSans-Bold-69" transform="translate(1736.669922 0)"/>
    <use xlink:href="#DejaVuSans-Bold-6c" transform="translate(1770.947266 0)"/>
    <use xlink:href="#DejaVuSans-Bold-73" transform="translate(1805.224609 0)"/>
    <use xlink:href="#DejaVuSans-Bold-6f" transform="translate(1864.746094 0)"/>
    <use xlink:href="#DejaVuSans-Bold-6e" transform="translate(1933.447266 0)"/>
    <use xlink:href="#DejaVuSans-Bold-20" transform="translate(2004.638672 0)"/>
    <use xlink:href="#DejaVuSans-Bold-43" transform="translate(2039.453125 0)"/>
    <use xlink:href="#DejaVuSans-Bold-49" transform="translate(2112.841797 0)"/>
    <use xlink:href="#DejaVuSans-Bold-73" transform="translate(2150.048828 0)"/>
    <use xlink:href="#DejaVuSans-Bold-20" transform="translate(2209.570312 0)"/>
    <use xlink:href="#DejaVuSans-Bold-2014" transform="translate(2244.384766 0)"/>
    <use xlink:href="#DejaVuSans-Bold-20" transform="translate(2344.384766 0)"/>
    <use xlink:href="#DejaVuSans-Bold-48" transform="translate(2379.199219 0)"/>
    <use xlink:href="#DejaVuSans-Bold-75" transform="translate(2462.890625 0)"/>
    <use xlink:href="#DejaVuSans-Bold-6d" transform="translate(2534.082031 0)"/>
    <use xlink:href="#DejaVuSans-Bold-61" transform="translate(2638.28125 0)"/>
    <use xlink:href="#DejaVuSans-Bold-6e" transform="translate(2705.761719 0)"/>
    <use xlink:href="#DejaVuSans-Bold-20" transform="translate(2776.953125 0)"/>
    <use xlink:href="#DejaVuSans-Bold-43" transform="translate(2811.767578 0)"/>
    <use xlink:href="#DejaVuSans-Bold-6f" transform="translate(2885.15625 0)"/>
    <use xlink:href="#DejaVuSans-Bold-6e" transform="translate(2953.857422 0)"/>
    <use xlink:href="#DejaVuSans-Bold-73" transform="translate(3025.048828 0)"/>
    <use xlink:href="#DejaVuSans-Bold-65" transform="translate(3084.570312 0)"/>
    <use xlink:href="#DejaVuSans-Bold-6e" transform="translate(3152.392578 0)"/>
    <use xlink:href="#DejaVuSans-Bold-73" transform="translate(3223.583984 0)"/>
    <use xlink:href="#DejaVuSans-Bold-75" transform="translate(3283.105469 0)"/>
    <use xlink:href="#DejaVuSans-Bold-73" transform="translate(3354.296875 0)"/>
    <use xlink:href="#DejaVuSans-Bold-20" transform="translate(3413.818359 0)"/>
    <use xlink:href="#DejaVuSans-Bold-76" transform="translate(3448.632812 0)"/>
    <use xlink:href="#DejaVuSans-Bold-73" transform="translate(3513.818359 0)"/>
    <use xlink:href="#DejaVuSans-Bold-20" transform="translate(3573.339844 0)"/>
    <use xlink:href="#DejaVuSans-Bold-45" transform="translate(3608.154297 0)"/>
    <use xlink:href="#DejaVuSans-Bold-6e" transform="translate(3676.464844 0)"/>
    <use xlink:href="#DejaVuSans-Bold-73" transform="translate(3747.65625 0)"/>
    <use xlink:href="#DejaVuSans-Bold-65" transform="translate(3807.177734 0)"/>
    <use xlink:href="#DejaVuSans-Bold-6d" transform="translate(3875 0)"/>
    <use xlink:href="#DejaVuSans-Bold-62" transform="translate(3979.199219 0)"/>
    <use xlink:href="#DejaVuSans-Bold-6c" transform="translate(4050.78125 0)"/>
    <use xlink:href="#DejaVuSans-Bold-65" transform="translate(4085.058594 0)"/>
    <use xlink:href="#DejaVuSans-Bold-20" transform="translate(4152.880859 0)"/>
    <use xlink:href="#DejaVuSans-Bold-4d" transform="translate(4187.695312 0)"/>
    <use xlink:href="#DejaVuSans-Bold-61" transform="translate(4287.207031 0)"/>
    <use xlink:href="#DejaVuSans-Bold-6a" transform="translate(4354.6875 0)"/>
    <use xlink:href="#DejaVuSans-Bold-6f" transform="translate(4388.964844 0)"/>
    <use xlink:href="#DejaVuSans-Bold-72" transform="translate(4457.666016 0)"/>
    <use xlink:href="#DejaVuSans-Bold-69" transform="translate(4506.982422 0)"/>
    <use xlink:href="#DejaVuSans-Bold-74" transform="translate(4541.259766 0)"/>
    <use xlink:href="#DejaVuSans-Bold-79" transform="translate(4589.0625 0)"/>
   </g>
  </g>
 </g>
 <defs>
  <clipPath id="p7241e6d26f">
   <rect x="33.659688" y="61.248" width="322.85" height="211"/>
  </clipPath>
  <clipPath id="p3ffc3141af">
   <rect x="370.809687" y="61.248" width="322.85" height="211"/>
  </clipPath>
  <clipPath id="pc355c51eaf">
   <rect x="707.959687" y="61.248" width="322.85" height="211"/>
  </clipPath>
  <clipPath id="pfd028db372">
   <rect x="1045.109688" y="61.248" width="322.85" height="211"/>
  </clipPath>
 </defs>
</svg>
