<svg xmlns="http://www.w3.org/2000/svg" width="920" height="420">
<rect x="0" y="0" width="100%" height="100%" fill="white"/>
<text x="460.0" y="32" text-anchor="middle" font-size="20" font-family="Arial">Exact Agreement (Human vs LLM)</text>
<text x="170" y="122.3" text-anchor="end" font-size="12" font-family="Arial">claude-sonnet-4-6</text>
<rect x="180.0" y="70.0" width="177.5" height="96.7" fill="#2f5183" stroke="white" stroke-width="1"/>
<text x="268.8" y="122.3" text-anchor="middle" font-size="12" font-family="Arial" fill="#111">0.83</text>
<rect x="357.5" y="70.0" width="177.5" height="96.7" fill="#748cae" stroke="white" stroke-width="1"/>
<text x="446.2" y="122.3" text-anchor="middle" font-size="12" font-family="Arial" fill="#111">0.55</text>
<rect x="535.0" y="70.0" width="177.5" height="96.7" fill="#385988" stroke="white" stroke-width="1"/>
<text x="623.8" y="122.3" text-anchor="middle" font-size="12" font-family="Arial" fill="#111">0.80</text>
<rect x="712.5" y="70.0" width="177.5" height="96.7" fill="#5c789f" stroke="white" stroke-width="1"/>
<text x="801.2" y="122.3" text-anchor="middle" font-size="12" font-family="Arial" fill="#111">0.64</text>
<text x="170" y="219.0" text-anchor="end" font-size="12" font-family="Arial">gemini-3.1-pro-preview</text>
<rect x="180.0" y="166.7" width="177.5" height="96.7" fill="#3c5c8b" stroke="white" stroke-width="1"/>
<text x="268.8" y="219.0" text-anchor="middle" font-size="12" font-family="Arial" fill="#111">0.78</text>
<rect x="357.5" y="166.7" width="177.5" height="96.7" fill="#98aac4" stroke="white" stroke-width="1"/>
<text x="446.2" y="219.0" text-anchor="middle" font-size="12" font-family="Arial" fill="#111">0.40</text>
<rect x="535.0" y="166.7" width="177.5" height="96.7" fill="#42628f" stroke="white" stroke-width="1"/>
<text x="623.8" y="219.0" text-anchor="middle" font-size="12" font-family="Arial" fill="#111">0.75</text>
<rect x="712.5" y="166.7" width="177.5" height="96.7" fill="#466591" stroke="white" stroke-width="1"/>
<text x="801.2" y="219.0" text-anchor="middle" font-size="12" font-family="Arial" fill="#111">0.74</text>
<text x="170" y="315.7" text-anchor="end" font-size="12" font-family="Arial">gpt-5.4</text>
<rect x="180.0" y="263.3" width="177.5" height="96.7" fill="#3e5e8c" stroke="white" stroke-width="1"/>
<text x="268.8" y="315.7" text-anchor="middle" font-size="12" font-family="Arial" fill="#111">0.77</text>
<rect x="357.5" y="263.3" width="177.5" height="96.7" fill="#91a4bf" stroke="white" stroke-width="1"/>
<text x="446.2" y="315.7" text-anchor="middle" font-size="12" font-family="Arial" fill="#111">0.43</text>
<rect x="535.0" y="263.3" width="177.5" height="96.7" fill="#405f8d" stroke="white" stroke-width="1"/>
<text x="623.8" y="315.7" text-anchor="middle" font-size="12" font-family="Arial" fill="#111">0.76</text>
<rect x="712.5" y="263.3" width="177.5" height="96.7" fill="#56729b" stroke="white" stroke-width="1"/>
<text x="801.2" y="315.7" text-anchor="middle" font-size="12" font-family="Arial" fill="#111">0.67</text>
<text x="268.8" y="58.0" text-anchor="middle" font-size="12" font-family="Arial">coherence</text>
<text x="446.2" y="58.0" text-anchor="middle" font-size="12" font-family="Arial">signaling</text>
<text x="623.8" y="58.0" text-anchor="middle" font-size="12" font-family="Arial">label_accuracy</text>
<text x="801.2" y="58.0" text-anchor="middle" font-size="12" font-family="Arial">labeling</text>
</svg>