<svg xmlns="http://www.w3.org/2000/svg" width="920" height="420">
<rect x="0" y="0" width="100%" height="100%" fill="white"/>
<text x="460.0" y="32" text-anchor="middle" font-size="20" font-family="Arial">Cohen's Kappa (Human vs LLM)</text>
<text x="170" y="122.3" text-anchor="end" font-size="12" font-family="Arial">claude-sonnet-4-6</text>
<rect x="180.0" y="70.0" width="177.5" height="96.7" fill="#bdcadb" stroke="white" stroke-width="1"/>
<text x="268.8" y="122.3" text-anchor="middle" font-size="12" font-family="Arial" fill="#111">0.16</text>
<rect x="357.5" y="70.0" width="177.5" height="96.7" fill="#a7b7cd" stroke="white" stroke-width="1"/>
<text x="446.2" y="122.3" text-anchor="middle" font-size="12" font-family="Arial" fill="#111">0.27</text>
<rect x="535.0" y="70.0" width="177.5" height="96.7" fill="#5c779f" stroke="white" stroke-width="1"/>
<text x="623.8" y="122.3" text-anchor="middle" font-size="12" font-family="Arial" fill="#111">0.61</text>
<rect x="712.5" y="70.0" width="177.5" height="96.7" fill="#8ea1be" stroke="white" stroke-width="1"/>
<text x="801.2" y="122.3" text-anchor="middle" font-size="12" font-family="Arial" fill="#111">0.38</text>
<text x="170" y="219.0" text-anchor="end" font-size="12" font-family="Arial">gemini-3.1-pro-preview</text>
<rect x="180.0" y="166.7" width="177.5" height="96.7" fill="#c6d1e0" stroke="white" stroke-width="1"/>
<text x="268.8" y="219.0" text-anchor="middle" font-size="12" font-family="Arial" fill="#111">0.12</text>
<rect x="357.5" y="166.7" width="177.5" height="96.7" fill="#bdc9db" stroke="white" stroke-width="1"/>
<text x="446.2" y="219.0" text-anchor="middle" font-size="12" font-family="Arial" fill="#111">0.17</text>
<rect x="535.0" y="166.7" width="177.5" height="96.7" fill="#6882a6" stroke="white" stroke-width="1"/>
<text x="623.8" y="219.0" text-anchor="middle" font-size="12" font-family="Arial" fill="#111">0.55</text>
<rect x="712.5" y="166.7" width="177.5" height="96.7" fill="#778eaf" stroke="white" stroke-width="1"/>
<text x="801.2" y="219.0" text-anchor="middle" font-size="12" font-family="Arial" fill="#111">0.49</text>
<text x="170" y="315.7" text-anchor="end" font-size="12" font-family="Arial">gpt-5.4</text>
<rect x="180.0" y="263.3" width="177.5" height="96.7" fill="#c0cddd" stroke="white" stroke-width="1"/>
<text x="268.8" y="315.7" text-anchor="middle" font-size="12" font-family="Arial" fill="#111">0.15</text>
<rect x="357.5" y="263.3" width="177.5" height="96.7" fill="#b9c6d8" stroke="white" stroke-width="1"/>
<text x="446.2" y="315.7" text-anchor="middle" font-size="12" font-family="Arial" fill="#111">0.18</text>
<rect x="535.0" y="263.3" width="177.5" height="96.7" fill="#657fa4" stroke="white" stroke-width="1"/>
<text x="623.8" y="315.7" text-anchor="middle" font-size="12" font-family="Arial" fill="#111">0.57</text>
<rect x="712.5" y="263.3" width="177.5" height="96.7" fill="#8b9fbc" stroke="white" stroke-width="1"/>
<text x="801.2" y="315.7" text-anchor="middle" font-size="12" font-family="Arial" fill="#111">0.40</text>
<text x="268.8" y="58.0" text-anchor="middle" font-size="12" font-family="Arial">coherence</text>
<text x="446.2" y="58.0" text-anchor="middle" font-size="12" font-family="Arial">signaling</text>
<text x="623.8" y="58.0" text-anchor="middle" font-size="12" font-family="Arial">label_accuracy</text>
<text x="801.2" y="58.0" text-anchor="middle" font-size="12" font-family="Arial">labeling</text>
</svg>