<?xml version="1.0" encoding="utf-8" standalone="no"?>
<!DOCTYPE svg PUBLIC "-//W3C//DTD SVG 1.1//EN"
  "http://www.w3.org/Graphics/SVG/1.1/DTD/svg11.dtd">
<svg xmlns:xlink="http://www.w3.org/1999/xlink" width="403.20235pt" height="351.893703pt" viewBox="0 0 403.20235 351.893703" xmlns="http://www.w3.org/2000/svg" version="1.1">
 <metadata>
  <rdf:RDF xmlns:dc="http://purl.org/dc/elements/1.1/" xmlns:cc="http://creativecommons.org/ns#" xmlns:rdf="http://www.w3.org/1999/02/22-rdf-syntax-ns#">
   <cc:Work>
    <dc:type rdf:resource="http://purl.org/dc/dcmitype/StillImage"/>
    <dc:date>2026-03-17T09:21:19.646338</dc:date>
    <dc:format>image/svg+xml</dc:format>
    <dc:creator>
     <cc:Agent>
      <dc:title>Matplotlib v3.10.7, https://matplotlib.org/</dc:title>
     </cc:Agent>
    </dc:creator>
   </cc:Work>
  </rdf:RDF>
 </metadata>
 <defs>
  <style type="text/css">*{stroke-linejoin: round; stroke-linecap: butt}</style>
 </defs>
 <g id="figure_1">
  <g id="patch_1">
   <path d="M 0 351.893703 
L 403.20235 351.893703 
L 403.20235 0 
L 0 0 
z
" style="fill: #ffffff"/>
  </g>
  <g id="axes_1">
   <g id="patch_2">
    <path d="M 307.8185 192.965234 
C 307.8185 175.577903 304.393575 158.359642 297.739731 142.295843 
C 291.085888 126.232044 281.332527 111.635107 269.037827 99.340407 
C 256.743127 87.045708 242.14619 77.292346 226.082391 70.638503 
C 210.018592 63.984659 192.800331 60.559734 175.413 60.559734 
C 158.025669 60.559734 140.807408 63.984659 124.743609 70.638503 
C 108.67981 77.292346 94.082873 87.045708 81.788173 99.340407 
C 69.493473 111.635107 59.740112 126.232044 53.086269 142.295843 
C 46.432425 158.359642 43.0075 175.577903 43.0075 192.965234 
C 43.0075 210.352565 46.432425 227.570826 53.086269 243.634626 
C 59.740112 259.698425 69.493473 274.295362 81.788173 286.590061 
C 94.082873 298.884761 108.67981 308.638122 124.743609 315.291966 
C 140.807408 321.945809 158.025669 325.370734 175.413 325.370734 
C 192.800331 325.370734 210.018592 321.945809 226.082391 315.291966 
C 242.14619 308.638122 256.743127 298.884761 269.037827 286.590061 
C 281.332527 274.295362 291.085888 259.698425 297.739731 243.634626 
C 304.393575 227.570826 307.8185 210.352565 307.8185 192.965234 
M 175.413 192.965234 
C 175.413 192.965234 175.413 192.965234 175.413 192.965234 
C 175.413 192.965234 175.413 192.965234 175.413 192.965234 
C 175.413 192.965234 175.413 192.965234 175.413 192.965234 
C 175.413 192.965234 175.413 192.965234 175.413 192.965234 
C 175.413 192.965234 175.413 192.965234 175.413 192.965234 
C 175.413 192.965234 175.413 192.965234 175.413 192.965234 
C 175.413 192.965234 175.413 192.965234 175.413 192.965234 
C 175.413 192.965234 175.413 192.965234 175.413 192.965234 
C 175.413 192.965234 175.413 192.965234 175.413 192.965234 
C 175.413 192.965234 175.413 192.965234 175.413 192.965234 
C 175.413 192.965234 175.413 192.965234 175.413 192.965234 
C 175.413 192.965234 175.413 192.965234 175.413 192.965234 
C 175.413 192.965234 175.413 192.965234 175.413 192.965234 
C 175.413 192.965234 175.413 192.965234 175.413 192.965234 
C 175.413 192.965234 175.413 192.965234 175.413 192.965234 
C 175.413 192.965234 175.413 192.965234 175.413 192.965234 
z
" style="fill: #ffffff"/>
   </g>
   <g id="patch_3">
    <path d="M 194.955852 192.965234 
L 175.413 81.172233 
L 110.892259 192.965234 
L 175.413 233.515442 
z
" clip-path="url(#p27dcfb7c2a)" style="fill: #3182bd; opacity: 0.1; stroke: #3182bd; stroke-linejoin: miter"/>
   </g>
   <g id="patch_4">
    <path d="M 201.022918 192.965234 
L 175.413 82.498034 
L 98.130205 192.965234 
L 175.413 222.111927 
z
" clip-path="url(#p27dcfb7c2a)" style="fill: #111111; opacity: 0.1; stroke: #111111; stroke-linejoin: miter"/>
   </g>
   <g id="patch_5">
    <path d="M 186.744568 192.965234 
L 175.413 93.146841 
L 89.101613 192.965234 
L 175.413 212.689377 
z
" clip-path="url(#p27dcfb7c2a)" style="fill: #31a354; opacity: 0.1; stroke: #31a354; stroke-linejoin: miter"/>
   </g>
   <g id="patch_6">
    <path d="M 191.647472 192.965234 
L 175.413 89.738635 
L 108.140538 192.965234 
L 175.413 216.37192 
z
" clip-path="url(#p27dcfb7c2a)" style="fill: #e6550d; opacity: 0.1; stroke: #e6550d; stroke-linejoin: miter"/>
   </g>
   <g id="matplotlib.axis_1">
    <g id="xtick_1">
     <g id="line2d_1">
      <path d="M 175.413 192.965234 
L 307.8185 192.965234 
" clip-path="url(#p27dcfb7c2a)" style="fill: none; stroke: #b0b0b0; stroke-width: 0.8; stroke-linecap: square"/>
     </g>
     <g id="text_1">
      <!-- coherence -->
      <g transform="translate(293.143734 196.000547) scale(0.11 -0.11)">
       <defs>
        <path id="DejaVuSans-63" d="M 3122 3366 
L 3122 2828 
Q 2878 2963 2633 3030 
Q 2388 3097 2138 3097 
Q 1578 3097 1268 2742 
Q 959 2388 959 1747 
Q 959 1106 1268 751 
Q 1578 397 2138 397 
Q 2388 397 2633 464 
Q 2878 531 3122 666 
L 3122 134 
Q 2881 22 2623 -34 
Q 2366 -91 2075 -91 
Q 1284 -91 818 406 
Q 353 903 353 1747 
Q 353 2603 823 3093 
Q 1294 3584 2113 3584 
Q 2378 3584 2631 3529 
Q 2884 3475 3122 3366 
z
" transform="scale(0.015625)"/>
        <path id="DejaVuSans-6f" d="M 1959 3097 
Q 1497 3097 1228 2736 
Q 959 2375 959 1747 
Q 959 1119 1226 758 
Q 1494 397 1959 397 
Q 2419 397 2687 759 
Q 2956 1122 2956 1747 
Q 2956 2369 2687 2733 
Q 2419 3097 1959 3097 
z
M 1959 3584 
Q 2709 3584 3137 3096 
Q 3566 2609 3566 1747 
Q 3566 888 3137 398 
Q 2709 -91 1959 -91 
Q 1206 -91 779 398 
Q 353 888 353 1747 
Q 353 2609 779 3096 
Q 1206 3584 1959 3584 
z
" transform="scale(0.015625)"/>
        <path id="DejaVuSans-68" d="M 3513 2113 
L 3513 0 
L 2938 0 
L 2938 2094 
Q 2938 2591 2744 2837 
Q 2550 3084 2163 3084 
Q 1697 3084 1428 2787 
Q 1159 2491 1159 1978 
L 1159 0 
L 581 0 
L 581 4863 
L 1159 4863 
L 1159 2956 
Q 1366 3272 1645 3428 
Q 1925 3584 2291 3584 
Q 2894 3584 3203 3211 
Q 3513 2838 3513 2113 
z
" transform="scale(0.015625)"/>
        <path id="DejaVuSans-65" d="M 3597 1894 
L 3597 1613 
L 953 1613 
Q 991 1019 1311 708 
Q 1631 397 2203 397 
Q 2534 397 2845 478 
Q 3156 559 3463 722 
L 3463 178 
Q 3153 47 2828 -22 
Q 2503 -91 2169 -91 
Q 1331 -91 842 396 
Q 353 884 353 1716 
Q 353 2575 817 3079 
Q 1281 3584 2069 3584 
Q 2775 3584 3186 3129 
Q 3597 2675 3597 1894 
z
M 3022 2063 
Q 3016 2534 2758 2815 
Q 2500 3097 2075 3097 
Q 1594 3097 1305 2825 
Q 1016 2553 972 2059 
L 3022 2063 
z
" transform="scale(0.015625)"/>
        <path id="DejaVuSans-72" d="M 2631 2963 
Q 2534 3019 2420 3045 
Q 2306 3072 2169 3072 
Q 1681 3072 1420 2755 
Q 1159 2438 1159 1844 
L 1159 0 
L 581 0 
L 581 3500 
L 1159 3500 
L 1159 2956 
Q 1341 3275 1631 3429 
Q 1922 3584 2338 3584 
Q 2397 3584 2469 3576 
Q 2541 3569 2628 3553 
L 2631 2963 
z
" transform="scale(0.015625)"/>
        <path id="DejaVuSans-6e" d="M 3513 2113 
L 3513 0 
L 2938 0 
L 2938 2094 
Q 2938 2591 2744 2837 
Q 2550 3084 2163 3084 
Q 1697 3084 1428 2787 
Q 1159 2491 1159 1978 
L 1159 0 
L 581 0 
L 581 3500 
L 1159 3500 
L 1159 2956 
Q 1366 3272 1645 3428 
Q 1925 3584 2291 3584 
Q 2894 3584 3203 3211 
Q 3513 2838 3513 2113 
z
" transform="scale(0.015625)"/>
       </defs>
       <use xlink:href="#DejaVuSans-63"/>
       <use xlink:href="#DejaVuSans-6f" transform="translate(54.980469 0)"/>
       <use xlink:href="#DejaVuSans-68" transform="translate(116.162109 0)"/>
       <use xlink:href="#DejaVuSans-65" transform="translate(179.541016 0)"/>
       <use xlink:href="#DejaVuSans-72" transform="translate(241.064453 0)"/>
       <use xlink:href="#DejaVuSans-65" transform="translate(279.927734 0)"/>
       <use xlink:href="#DejaVuSans-6e" transform="translate(341.451172 0)"/>
       <use xlink:href="#DejaVuSans-63" transform="translate(404.830078 0)"/>
       <use xlink:href="#DejaVuSans-65" transform="translate(459.810547 0)"/>
      </g>
     </g>
    </g>
    <g id="xtick_2">
     <g id="line2d_2">
      <path d="M 175.413 192.965234 
L 175.413 60.559734 
" clip-path="url(#p27dcfb7c2a)" style="fill: none; stroke: #b0b0b0; stroke-width: 0.8; stroke-linecap: square"/>
     </g>
     <g id="text_2">
      <!-- label -->
      <g transform="translate(162.110734 43.43625) scale(0.11 -0.11)">
       <defs>
        <path id="DejaVuSans-6c" d="M 603 4863 
L 1178 4863 
L 1178 0 
L 603 0 
L 603 4863 
z
" transform="scale(0.015625)"/>
        <path id="DejaVuSans-61" d="M 2194 1759 
Q 1497 1759 1228 1600 
Q 959 1441 959 1056 
Q 959 750 1161 570 
Q 1363 391 1709 391 
Q 2188 391 2477 730 
Q 2766 1069 2766 1631 
L 2766 1759 
L 2194 1759 
z
M 3341 1997 
L 3341 0 
L 2766 0 
L 2766 531 
Q 2569 213 2275 61 
Q 1981 -91 1556 -91 
Q 1019 -91 701 211 
Q 384 513 384 1019 
Q 384 1609 779 1909 
Q 1175 2209 1959 2209 
L 2766 2209 
L 2766 2266 
Q 2766 2663 2505 2880 
Q 2244 3097 1772 3097 
Q 1472 3097 1187 3025 
Q 903 2953 641 2809 
L 641 3341 
Q 956 3463 1253 3523 
Q 1550 3584 1831 3584 
Q 2591 3584 2966 3190 
Q 3341 2797 3341 1997 
z
" transform="scale(0.015625)"/>
        <path id="DejaVuSans-62" d="M 3116 1747 
Q 3116 2381 2855 2742 
Q 2594 3103 2138 3103 
Q 1681 3103 1420 2742 
Q 1159 2381 1159 1747 
Q 1159 1113 1420 752 
Q 1681 391 2138 391 
Q 2594 391 2855 752 
Q 3116 1113 3116 1747 
z
M 1159 2969 
Q 1341 3281 1617 3432 
Q 1894 3584 2278 3584 
Q 2916 3584 3314 3078 
Q 3713 2572 3713 1747 
Q 3713 922 3314 415 
Q 2916 -91 2278 -91 
Q 1894 -91 1617 61 
Q 1341 213 1159 525 
L 1159 0 
L 581 0 
L 581 4863 
L 1159 4863 
L 1159 2969 
z
" transform="scale(0.015625)"/>
       </defs>
       <use xlink:href="#DejaVuSans-6c"/>
       <use xlink:href="#DejaVuSans-61" transform="translate(27.783203 0)"/>
       <use xlink:href="#DejaVuSans-62" transform="translate(89.0625 0)"/>
       <use xlink:href="#DejaVuSans-65" transform="translate(152.539062 0)"/>
       <use xlink:href="#DejaVuSans-6c" transform="translate(214.0625 0)"/>
      </g>
      <!-- accuracy -->
      <g transform="translate(150.597688 55.753844) scale(0.11 -0.11)">
       <defs>
        <path id="DejaVuSans-75" d="M 544 1381 
L 544 3500 
L 1119 3500 
L 1119 1403 
Q 1119 906 1312 657 
Q 1506 409 1894 409 
Q 2359 409 2629 706 
Q 2900 1003 2900 1516 
L 2900 3500 
L 3475 3500 
L 3475 0 
L 2900 0 
L 2900 538 
Q 2691 219 2414 64 
Q 2138 -91 1772 -91 
Q 1169 -91 856 284 
Q 544 659 544 1381 
z
M 1991 3584 
L 1991 3584 
z
" transform="scale(0.015625)"/>
        <path id="DejaVuSans-79" d="M 2059 -325 
Q 1816 -950 1584 -1140 
Q 1353 -1331 966 -1331 
L 506 -1331 
L 506 -850 
L 844 -850 
Q 1081 -850 1212 -737 
Q 1344 -625 1503 -206 
L 1606 56 
L 191 3500 
L 800 3500 
L 1894 763 
L 2988 3500 
L 3597 3500 
L 2059 -325 
z
" transform="scale(0.015625)"/>
       </defs>
       <use xlink:href="#DejaVuSans-61"/>
       <use xlink:href="#DejaVuSans-63" transform="translate(61.279297 0)"/>
       <use xlink:href="#DejaVuSans-63" transform="translate(116.259766 0)"/>
       <use xlink:href="#DejaVuSans-75" transform="translate(171.240234 0)"/>
       <use xlink:href="#DejaVuSans-72" transform="translate(234.619141 0)"/>
       <use xlink:href="#DejaVuSans-61" transform="translate(275.732422 0)"/>
       <use xlink:href="#DejaVuSans-63" transform="translate(337.011719 0)"/>
       <use xlink:href="#DejaVuSans-79" transform="translate(391.992188 0)"/>
      </g>
     </g>
    </g>
    <g id="xtick_3">
     <g id="line2d_3">
      <path d="M 175.413 192.965234 
L 43.0075 192.965234 
" clip-path="url(#p27dcfb7c2a)" style="fill: none; stroke: #b0b0b0; stroke-width: 0.8; stroke-linecap: square"/>
     </g>
     <g id="text_3">
      <!-- labeling -->
      <g transform="translate(7.2 196.000547) scale(0.11 -0.11)">
       <defs>
        <path id="DejaVuSans-69" d="M 603 3500 
L 1178 3500 
L 1178 0 
L 603 0 
L 603 3500 
z
M 603 4863 
L 1178 4863 
L 1178 4134 
L 603 4134 
L 603 4863 
z
" transform="scale(0.015625)"/>
        <path id="DejaVuSans-67" d="M 2906 1791 
Q 2906 2416 2648 2759 
Q 2391 3103 1925 3103 
Q 1463 3103 1205 2759 
Q 947 2416 947 1791 
Q 947 1169 1205 825 
Q 1463 481 1925 481 
Q 2391 481 2648 825 
Q 2906 1169 2906 1791 
z
M 3481 434 
Q 3481 -459 3084 -895 
Q 2688 -1331 1869 -1331 
Q 1566 -1331 1297 -1286 
Q 1028 -1241 775 -1147 
L 775 -588 
Q 1028 -725 1275 -790 
Q 1522 -856 1778 -856 
Q 2344 -856 2625 -561 
Q 2906 -266 2906 331 
L 2906 616 
Q 2728 306 2450 153 
Q 2172 0 1784 0 
Q 1141 0 747 490 
Q 353 981 353 1791 
Q 353 2603 747 3093 
Q 1141 3584 1784 3584 
Q 2172 3584 2450 3431 
Q 2728 3278 2906 2969 
L 2906 3500 
L 3481 3500 
L 3481 434 
z
" transform="scale(0.015625)"/>
       </defs>
       <use xlink:href="#DejaVuSans-6c"/>
       <use xlink:href="#DejaVuSans-61" transform="translate(27.783203 0)"/>
       <use xlink:href="#DejaVuSans-62" transform="translate(89.0625 0)"/>
       <use xlink:href="#DejaVuSans-65" transform="translate(152.539062 0)"/>
       <use xlink:href="#DejaVuSans-6c" transform="translate(214.0625 0)"/>
       <use xlink:href="#DejaVuSans-69" transform="translate(241.845703 0)"/>
       <use xlink:href="#DejaVuSans-6e" transform="translate(269.628906 0)"/>
       <use xlink:href="#DejaVuSans-67" transform="translate(333.007812 0)"/>
      </g>
     </g>
    </g>
    <g id="xtick_4">
     <g id="line2d_4">
      <path d="M 175.413 192.965234 
L 175.413 325.370734 
" clip-path="url(#p27dcfb7c2a)" style="fill: none; stroke: #b0b0b0; stroke-width: 0.8; stroke-linecap: square"/>
     </g>
     <g id="text_4">
      <!-- signaling -->
      <g transform="translate(150.638937 342.406047) scale(0.11 -0.11)">
       <defs>
        <path id="DejaVuSans-73" d="M 2834 3397 
L 2834 2853 
Q 2591 2978 2328 3040 
Q 2066 3103 1784 3103 
Q 1356 3103 1142 2972 
Q 928 2841 928 2578 
Q 928 2378 1081 2264 
Q 1234 2150 1697 2047 
L 1894 2003 
Q 2506 1872 2764 1633 
Q 3022 1394 3022 966 
Q 3022 478 2636 193 
Q 2250 -91 1575 -91 
Q 1294 -91 989 -36 
Q 684 19 347 128 
L 347 722 
Q 666 556 975 473 
Q 1284 391 1588 391 
Q 1994 391 2212 530 
Q 2431 669 2431 922 
Q 2431 1156 2273 1281 
Q 2116 1406 1581 1522 
L 1381 1569 
Q 847 1681 609 1914 
Q 372 2147 372 2553 
Q 372 3047 722 3315 
Q 1072 3584 1716 3584 
Q 2034 3584 2315 3537 
Q 2597 3491 2834 3397 
z
" transform="scale(0.015625)"/>
       </defs>
       <use xlink:href="#DejaVuSans-73"/>
       <use xlink:href="#DejaVuSans-69" transform="translate(52.099609 0)"/>
       <use xlink:href="#DejaVuSans-67" transform="translate(79.882812 0)"/>
       <use xlink:href="#DejaVuSans-6e" transform="translate(143.359375 0)"/>
       <use xlink:href="#DejaVuSans-61" transform="translate(206.738281 0)"/>
       <use xlink:href="#DejaVuSans-6c" transform="translate(268.017578 0)"/>
       <use xlink:href="#DejaVuSans-69" transform="translate(295.800781 0)"/>
       <use xlink:href="#DejaVuSans-6e" transform="translate(323.583984 0)"/>
       <use xlink:href="#DejaVuSans-67" transform="translate(386.962891 0)"/>
      </g>
     </g>
    </g>
   </g>
   <g id="matplotlib.axis_2">
    <g id="ytick_1">
     <g id="line2d_5">
      <path d="M 175.413 192.965234 
C 175.413 192.965234 175.413 192.965234 175.413 192.965234 
C 175.413 192.965234 175.413 192.965234 175.413 192.965234 
C 175.413 192.965234 175.413 192.965234 175.413 192.965234 
C 175.413 192.965234 175.413 192.965234 175.413 192.965234 
C 175.413 192.965234 175.413 192.965234 175.413 192.965234 
C 175.413 192.965234 175.413 192.965234 175.413 192.965234 
C 175.413 192.965234 175.413 192.965234 175.413 192.965234 
C 175.413 192.965234 175.413 192.965234 175.413 192.965234 
C 175.413 192.965234 175.413 192.965234 175.413 192.965234 
C 175.413 192.965234 175.413 192.965234 175.413 192.965234 
C 175.413 192.965234 175.413 192.965234 175.413 192.965234 
C 175.413 192.965234 175.413 192.965234 175.413 192.965234 
C 175.413 192.965234 175.413 192.965234 175.413 192.965234 
C 175.413 192.965234 175.413 192.965234 175.413 192.965234 
C 175.413 192.965234 175.413 192.965234 175.413 192.965234 
C 175.413 192.965234 175.413 192.965234 175.413 192.965234 
" clip-path="url(#p27dcfb7c2a)" style="fill: none; stroke: #b0b0b0; stroke-width: 0.8; stroke-linecap: square"/>
     </g>
     <g id="text_5">
      <!-- 0.07 -->
      <g transform="translate(175.413 191.301484) scale(0.08 -0.08)">
       <defs>
        <path id="DejaVuSans-30" d="M 2034 4250 
Q 1547 4250 1301 3770 
Q 1056 3291 1056 2328 
Q 1056 1369 1301 889 
Q 1547 409 2034 409 
Q 2525 409 2770 889 
Q 3016 1369 3016 2328 
Q 3016 3291 2770 3770 
Q 2525 4250 2034 4250 
z
M 2034 4750 
Q 2819 4750 3233 4129 
Q 3647 3509 3647 2328 
Q 3647 1150 3233 529 
Q 2819 -91 2034 -91 
Q 1250 -91 836 529 
Q 422 1150 422 2328 
Q 422 3509 836 4129 
Q 1250 4750 2034 4750 
z
" transform="scale(0.015625)"/>
        <path id="DejaVuSans-2e" d="M 684 794 
L 1344 794 
L 1344 0 
L 684 0 
L 684 794 
z
" transform="scale(0.015625)"/>
        <path id="DejaVuSans-37" d="M 525 4666 
L 3525 4666 
L 3525 4397 
L 1831 0 
L 1172 0 
L 2766 4134 
L 525 4134 
L 525 4666 
z
" transform="scale(0.015625)"/>
       </defs>
       <use xlink:href="#DejaVuSans-30"/>
       <use xlink:href="#DejaVuSans-2e" transform="translate(63.623047 0)"/>
       <use xlink:href="#DejaVuSans-30" transform="translate(95.410156 0)"/>
       <use xlink:href="#DejaVuSans-37" transform="translate(159.033203 0)"/>
      </g>
     </g>
    </g>
    <g id="ytick_2">
     <g id="line2d_6">
      <path d="M 208.392998 192.965234 
C 208.392998 188.634341 207.539907 184.34556 205.882545 180.344335 
C 204.225184 176.343111 201.795785 172.707258 198.73338 169.644854 
C 195.670976 166.58245 192.035123 164.15305 188.033899 162.495689 
C 184.032675 160.838328 179.743894 159.985236 175.413 159.985236 
C 171.082106 159.985236 166.793325 160.838328 162.792101 162.495689 
C 158.790877 164.15305 155.155024 166.58245 152.09262 169.644854 
C 149.030215 172.707258 146.600816 176.343111 144.943455 180.344335 
C 143.286093 184.34556 142.433002 188.634341 142.433002 192.965234 
C 142.433002 197.296128 143.286093 201.584909 144.943455 205.586133 
C 146.600816 209.587357 149.030215 213.22321 152.09262 216.285615 
C 155.155024 219.348019 158.790877 221.777418 162.792101 223.43478 
C 166.793325 225.092141 171.082106 225.945233 175.413 225.945233 
C 179.743894 225.945233 184.032675 225.092141 188.033899 223.43478 
C 192.035123 221.777418 195.670976 219.348019 198.73338 216.285615 
C 201.795785 213.22321 204.225184 209.587357 205.882545 205.586133 
C 207.539907 201.584909 208.392998 197.296128 208.392998 192.965234 
" clip-path="url(#p27dcfb7c2a)" style="fill: none; stroke: #b0b0b0; stroke-width: 0.8; stroke-linecap: square"/>
     </g>
     <g id="text_6">
      <!-- 0.23 -->
      <g transform="translate(205.882545 178.680585) scale(0.08 -0.08)">
       <defs>
        <path id="DejaVuSans-32" d="M 1228 531 
L 3431 531 
L 3431 0 
L 469 0 
L 469 531 
Q 828 903 1448 1529 
Q 2069 2156 2228 2338 
Q 2531 2678 2651 2914 
Q 2772 3150 2772 3378 
Q 2772 3750 2511 3984 
Q 2250 4219 1831 4219 
Q 1534 4219 1204 4116 
Q 875 4013 500 3803 
L 500 4441 
Q 881 4594 1212 4672 
Q 1544 4750 1819 4750 
Q 2544 4750 2975 4387 
Q 3406 4025 3406 3419 
Q 3406 3131 3298 2873 
Q 3191 2616 2906 2266 
Q 2828 2175 2409 1742 
Q 1991 1309 1228 531 
z
" transform="scale(0.015625)"/>
        <path id="DejaVuSans-33" d="M 2597 2516 
Q 3050 2419 3304 2112 
Q 3559 1806 3559 1356 
Q 3559 666 3084 287 
Q 2609 -91 1734 -91 
Q 1441 -91 1130 -33 
Q 819 25 488 141 
L 488 750 
Q 750 597 1062 519 
Q 1375 441 1716 441 
Q 2309 441 2620 675 
Q 2931 909 2931 1356 
Q 2931 1769 2642 2001 
Q 2353 2234 1838 2234 
L 1294 2234 
L 1294 2753 
L 1863 2753 
Q 2328 2753 2575 2939 
Q 2822 3125 2822 3475 
Q 2822 3834 2567 4026 
Q 2313 4219 1838 4219 
Q 1578 4219 1281 4162 
Q 984 4106 628 3988 
L 628 4550 
Q 988 4650 1302 4700 
Q 1616 4750 1894 4750 
Q 2613 4750 3031 4423 
Q 3450 4097 3450 3541 
Q 3450 3153 3228 2886 
Q 3006 2619 2597 2516 
z
" transform="scale(0.015625)"/>
       </defs>
       <use xlink:href="#DejaVuSans-30"/>
       <use xlink:href="#DejaVuSans-2e" transform="translate(63.623047 0)"/>
       <use xlink:href="#DejaVuSans-32" transform="translate(95.410156 0)"/>
       <use xlink:href="#DejaVuSans-33" transform="translate(159.033203 0)"/>
      </g>
     </g>
    </g>
    <g id="ytick_3">
     <g id="line2d_7">
      <path d="M 241.372996 192.965234 
C 241.372996 184.303447 239.666813 175.725885 236.352091 167.723437 
C 233.037368 159.720989 228.178569 152.449282 222.053761 146.324474 
C 215.928952 140.199665 208.657246 135.340866 200.654798 132.026144 
C 192.65235 128.711421 184.074787 127.005238 175.413 127.005238 
C 166.751213 127.005238 158.17365 128.711421 150.171202 132.026144 
C 142.168754 135.340866 134.897048 140.199665 128.772239 146.324474 
C 122.647431 152.449282 117.788632 159.720989 114.473909 167.723437 
C 111.159187 175.725885 109.453004 184.303447 109.453004 192.965234 
C 109.453004 201.627022 111.159187 210.204584 114.473909 218.207032 
C 117.788632 226.20948 122.647431 233.481187 128.772239 239.605995 
C 134.897048 245.730804 142.168754 250.589602 150.171202 253.904325 
C 158.17365 257.219047 166.751213 258.925231 175.413 258.925231 
C 184.074787 258.925231 192.65235 257.219047 200.654798 253.904325 
C 208.657246 250.589602 215.928952 245.730804 222.053761 239.605995 
C 228.178569 233.481187 233.037368 226.20948 236.352091 218.207032 
C 239.666813 210.204584 241.372996 201.627022 241.372996 192.965234 
" clip-path="url(#p27dcfb7c2a)" style="fill: none; stroke: #b0b0b0; stroke-width: 0.8; stroke-linecap: square"/>
     </g>
     <g id="text_7">
      <!-- 0.39 -->
      <g transform="translate(236.352091 166.059687) scale(0.08 -0.08)">
       <defs>
        <path id="DejaVuSans-39" d="M 703 97 
L 703 672 
Q 941 559 1184 500 
Q 1428 441 1663 441 
Q 2288 441 2617 861 
Q 2947 1281 2994 2138 
Q 2813 1869 2534 1725 
Q 2256 1581 1919 1581 
Q 1219 1581 811 2004 
Q 403 2428 403 3163 
Q 403 3881 828 4315 
Q 1253 4750 1959 4750 
Q 2769 4750 3195 4129 
Q 3622 3509 3622 2328 
Q 3622 1225 3098 567 
Q 2575 -91 1691 -91 
Q 1453 -91 1209 -44 
Q 966 3 703 97 
z
M 1959 2075 
Q 2384 2075 2632 2365 
Q 2881 2656 2881 3163 
Q 2881 3666 2632 3958 
Q 2384 4250 1959 4250 
Q 1534 4250 1286 3958 
Q 1038 3666 1038 3163 
Q 1038 2656 1286 2365 
Q 1534 2075 1959 2075 
z
" transform="scale(0.015625)"/>
       </defs>
       <use xlink:href="#DejaVuSans-30"/>
       <use xlink:href="#DejaVuSans-2e" transform="translate(63.623047 0)"/>
       <use xlink:href="#DejaVuSans-33" transform="translate(95.410156 0)"/>
       <use xlink:href="#DejaVuSans-39" transform="translate(159.033203 0)"/>
      </g>
     </g>
    </g>
    <g id="ytick_4">
     <g id="line2d_8">
      <path d="M 274.352995 192.965234 
C 274.352995 179.972553 271.79372 167.10621 266.821636 155.102538 
C 261.849552 143.098866 254.561354 132.191306 245.374141 123.004093 
C 236.186928 113.81688 225.279369 106.528682 213.275697 101.556598 
C 201.272025 96.584515 188.405681 94.02524 175.413 94.02524 
C 162.420319 94.02524 149.553975 96.584515 137.550303 101.556598 
C 125.546631 106.528682 114.639072 113.81688 105.451859 123.004093 
C 96.264646 132.191306 88.976448 143.098866 84.004364 155.102538 
C 79.03228 167.10621 76.473005 179.972553 76.473005 192.965234 
C 76.473005 205.957915 79.03228 218.824259 84.004364 230.827931 
C 88.976448 242.831603 96.264646 253.739163 105.451859 262.926375 
C 114.639072 272.113588 125.546631 279.401786 137.550303 284.37387 
C 149.553975 289.345954 162.420319 291.905229 175.413 291.905229 
C 188.405681 291.905229 201.272025 289.345954 213.275697 284.37387 
C 225.279369 279.401786 236.186928 272.113588 245.374141 262.926375 
C 254.561354 253.739163 261.849552 242.831603 266.821636 230.827931 
C 271.79372 218.824259 274.352995 205.957915 274.352995 192.965234 
" clip-path="url(#p27dcfb7c2a)" style="fill: none; stroke: #b0b0b0; stroke-width: 0.8; stroke-linecap: square"/>
     </g>
     <g id="text_8">
      <!-- 0.55 -->
      <g transform="translate(266.821636 153.438788) scale(0.08 -0.08)">
       <defs>
        <path id="DejaVuSans-35" d="M 691 4666 
L 3169 4666 
L 3169 4134 
L 1269 4134 
L 1269 2991 
Q 1406 3038 1543 3061 
Q 1681 3084 1819 3084 
Q 2600 3084 3056 2656 
Q 3513 2228 3513 1497 
Q 3513 744 3044 326 
Q 2575 -91 1722 -91 
Q 1428 -91 1123 -41 
Q 819 9 494 109 
L 494 744 
Q 775 591 1075 516 
Q 1375 441 1709 441 
Q 2250 441 2565 725 
Q 2881 1009 2881 1497 
Q 2881 1984 2565 2268 
Q 2250 2553 1709 2553 
Q 1456 2553 1204 2497 
Q 953 2441 691 2322 
L 691 4666 
z
" transform="scale(0.015625)"/>
       </defs>
       <use xlink:href="#DejaVuSans-30"/>
       <use xlink:href="#DejaVuSans-2e" transform="translate(63.623047 0)"/>
       <use xlink:href="#DejaVuSans-35" transform="translate(95.410156 0)"/>
       <use xlink:href="#DejaVuSans-35" transform="translate(159.033203 0)"/>
      </g>
     </g>
    </g>
    <g id="ytick_5">
     <g id="line2d_9">
      <path d="M 307.332993 192.965234 
C 307.332993 175.64166 303.920626 158.486535 297.291181 142.481639 
C 290.661736 126.476743 280.944139 111.93333 268.694521 99.683713 
C 256.444904 87.434096 241.901492 77.716498 225.896596 71.087053 
C 209.891699 64.457608 192.736575 61.045242 175.413 61.045242 
C 158.089425 61.045242 140.934301 64.457608 124.929404 71.087053 
C 108.924508 77.716498 94.381096 87.434096 82.131479 99.683713 
C 69.881861 111.93333 60.164264 126.476743 53.534819 142.481639 
C 46.905374 158.486535 43.493007 175.64166 43.493007 192.965234 
C 43.493007 210.288809 46.905374 227.443934 53.534819 243.44883 
C 60.164264 259.453726 69.881861 273.997139 82.131479 286.246756 
C 94.381096 298.496373 108.924508 308.213971 124.929404 314.843416 
C 140.934301 321.472861 158.089425 324.885227 175.413 324.885227 
C 192.736575 324.885227 209.891699 321.472861 225.896596 314.843416 
C 241.901492 308.213971 256.444904 298.496373 268.694521 286.246756 
C 280.944139 273.997139 290.661736 259.453726 297.291181 243.44883 
C 303.920626 227.443934 307.332993 210.288809 307.332993 192.965234 
" clip-path="url(#p27dcfb7c2a)" style="fill: none; stroke: #b0b0b0; stroke-width: 0.8; stroke-linecap: square"/>
     </g>
     <g id="text_9">
      <!-- 0.71 -->
      <g transform="translate(297.291181 140.817889) scale(0.08 -0.08)">
       <defs>
        <path id="DejaVuSans-31" d="M 794 531 
L 1825 531 
L 1825 4091 
L 703 3866 
L 703 4441 
L 1819 4666 
L 2450 4666 
L 2450 531 
L 3481 531 
L 3481 0 
L 794 0 
L 794 531 
z
" transform="scale(0.015625)"/>
       </defs>
       <use xlink:href="#DejaVuSans-30"/>
       <use xlink:href="#DejaVuSans-2e" transform="translate(63.623047 0)"/>
       <use xlink:href="#DejaVuSans-37" transform="translate(95.410156 0)"/>
       <use xlink:href="#DejaVuSans-31" transform="translate(159.033203 0)"/>
      </g>
     </g>
    </g>
   </g>
   <g id="line2d_10">
    <path d="M 194.955852 192.965234 
L 175.413 81.172233 
L 110.892259 192.965234 
L 175.413 233.515442 
L 194.955852 192.965234 
" clip-path="url(#p27dcfb7c2a)" style="fill: none; stroke: #3182bd; stroke-width: 2; stroke-linecap: square"/>
   </g>
   <g id="line2d_11">
    <path d="M 201.022918 192.965234 
L 175.413 82.498034 
L 98.130205 192.965234 
L 175.413 222.111927 
L 201.022918 192.965234 
" clip-path="url(#p27dcfb7c2a)" style="fill: none; stroke: #111111; stroke-width: 2; stroke-linecap: square"/>
   </g>
   <g id="line2d_12">
    <path d="M 186.744568 192.965234 
L 175.413 93.146841 
L 89.101613 192.965234 
L 175.413 212.689377 
L 186.744568 192.965234 
" clip-path="url(#p27dcfb7c2a)" style="fill: none; stroke: #31a354; stroke-width: 2; stroke-linecap: square"/>
   </g>
   <g id="line2d_13">
    <path d="M 191.647472 192.965234 
L 175.413 89.738635 
L 108.140538 192.965234 
L 175.413 216.37192 
L 191.647472 192.965234 
" clip-path="url(#p27dcfb7c2a)" style="fill: none; stroke: #e6550d; stroke-width: 2; stroke-linecap: square"/>
   </g>
   <g id="patch_7">
    <path d="M 307.8185 192.965234 
C 307.8185 175.577903 304.393575 158.359642 297.739731 142.295843 
C 291.085888 126.232044 281.332527 111.635107 269.037827 99.340407 
C 256.743127 87.045708 242.14619 77.292346 226.082391 70.638503 
C 210.018592 63.984659 192.800331 60.559734 175.413 60.559734 
C 158.025669 60.559734 140.807408 63.984659 124.743609 70.638503 
C 108.67981 77.292346 94.082873 87.045708 81.788173 99.340407 
C 69.493473 111.635107 59.740112 126.232044 53.086269 142.295843 
C 46.432425 158.359642 43.0075 175.577903 43.0075 192.965234 
C 43.0075 210.352565 46.432425 227.570826 53.086269 243.634626 
C 59.740112 259.698425 69.493473 274.295362 81.788173 286.590061 
C 94.082873 298.884761 108.67981 308.638122 124.743609 315.291966 
C 140.807408 321.945809 158.025669 325.370734 175.413 325.370734 
C 192.800331 325.370734 210.018592 321.945809 226.082391 315.291966 
C 242.14619 308.638122 256.743127 298.884761 269.037827 286.590061 
C 281.332527 274.295362 291.085888 259.698425 297.739731 243.634626 
C 304.393575 227.570826 307.8185 210.352565 307.8185 192.965234 
" style="fill: none; stroke: #000000; stroke-width: 0.8; stroke-linejoin: miter; stroke-linecap: square"/>
   </g>
   <g id="text_10">
    <!-- Cohen's κ by Dimension &amp; Model -->
    <g transform="translate(68.216828 17.077969) scale(0.13 -0.13)">
     <defs>
      <path id="DejaVuSans-43" d="M 4122 4306 
L 4122 3641 
Q 3803 3938 3442 4084 
Q 3081 4231 2675 4231 
Q 1875 4231 1450 3742 
Q 1025 3253 1025 2328 
Q 1025 1406 1450 917 
Q 1875 428 2675 428 
Q 3081 428 3442 575 
Q 3803 722 4122 1019 
L 4122 359 
Q 3791 134 3420 21 
Q 3050 -91 2638 -91 
Q 1578 -91 968 557 
Q 359 1206 359 2328 
Q 359 3453 968 4101 
Q 1578 4750 2638 4750 
Q 3056 4750 3426 4639 
Q 3797 4528 4122 4306 
z
" transform="scale(0.015625)"/>
      <path id="DejaVuSans-27" d="M 1147 4666 
L 1147 2931 
L 616 2931 
L 616 4666 
L 1147 4666 
z
" transform="scale(0.015625)"/>
      <path id="DejaVuSans-20" transform="scale(0.015625)"/>
      <path id="DejaVuSans-3ba" d="M 597 3500 
L 1191 3500 
L 1191 2047 
L 2700 3500 
L 3400 3500 
L 2022 2181 
L 3616 0 
L 2913 0 
L 1619 1806 
L 1191 1403 
L 1191 0 
L 597 0 
L 597 3500 
z
" transform="scale(0.015625)"/>
      <path id="DejaVuSans-44" d="M 1259 4147 
L 1259 519 
L 2022 519 
Q 2988 519 3436 956 
Q 3884 1394 3884 2338 
Q 3884 3275 3436 3711 
Q 2988 4147 2022 4147 
L 1259 4147 
z
M 628 4666 
L 1925 4666 
Q 3281 4666 3915 4102 
Q 4550 3538 4550 2338 
Q 4550 1131 3912 565 
Q 3275 0 1925 0 
L 628 0 
L 628 4666 
z
" transform="scale(0.015625)"/>
      <path id="DejaVuSans-6d" d="M 3328 2828 
Q 3544 3216 3844 3400 
Q 4144 3584 4550 3584 
Q 5097 3584 5394 3201 
Q 5691 2819 5691 2113 
L 5691 0 
L 5113 0 
L 5113 2094 
Q 5113 2597 4934 2840 
Q 4756 3084 4391 3084 
Q 3944 3084 3684 2787 
Q 3425 2491 3425 1978 
L 3425 0 
L 2847 0 
L 2847 2094 
Q 2847 2600 2669 2842 
Q 2491 3084 2119 3084 
Q 1678 3084 1418 2786 
Q 1159 2488 1159 1978 
L 1159 0 
L 581 0 
L 581 3500 
L 1159 3500 
L 1159 2956 
Q 1356 3278 1631 3431 
Q 1906 3584 2284 3584 
Q 2666 3584 2933 3390 
Q 3200 3197 3328 2828 
z
" transform="scale(0.015625)"/>
      <path id="DejaVuSans-26" d="M 1556 2509 
Q 1272 2256 1139 2004 
Q 1006 1753 1006 1478 
Q 1006 1022 1337 719 
Q 1669 416 2169 416 
Q 2466 416 2725 514 
Q 2984 613 3213 813 
L 1556 2509 
z
M 1997 2859 
L 3584 1234 
Q 3769 1513 3872 1830 
Q 3975 2147 3994 2503 
L 4575 2503 
Q 4538 2091 4375 1687 
Q 4213 1284 3922 891 
L 4794 0 
L 4006 0 
L 3559 459 
Q 3234 181 2878 45 
Q 2522 -91 2113 -91 
Q 1359 -91 881 339 
Q 403 769 403 1441 
Q 403 1841 612 2192 
Q 822 2544 1241 2853 
Q 1091 3050 1012 3245 
Q 934 3441 934 3628 
Q 934 4134 1281 4442 
Q 1628 4750 2203 4750 
Q 2463 4750 2720 4694 
Q 2978 4638 3244 4525 
L 3244 3956 
Q 2972 4103 2725 4179 
Q 2478 4256 2266 4256 
Q 1938 4256 1733 4082 
Q 1528 3909 1528 3634 
Q 1528 3475 1620 3314 
Q 1713 3153 1997 2859 
z
" transform="scale(0.015625)"/>
      <path id="DejaVuSans-4d" d="M 628 4666 
L 1569 4666 
L 2759 1491 
L 3956 4666 
L 4897 4666 
L 4897 0 
L 4281 0 
L 4281 4097 
L 3078 897 
L 2444 897 
L 1241 4097 
L 1241 0 
L 628 0 
L 628 4666 
z
" transform="scale(0.015625)"/>
      <path id="DejaVuSans-64" d="M 2906 2969 
L 2906 4863 
L 3481 4863 
L 3481 0 
L 2906 0 
L 2906 525 
Q 2725 213 2448 61 
Q 2172 -91 1784 -91 
Q 1150 -91 751 415 
Q 353 922 353 1747 
Q 353 2572 751 3078 
Q 1150 3584 1784 3584 
Q 2172 3584 2448 3432 
Q 2725 3281 2906 2969 
z
M 947 1747 
Q 947 1113 1208 752 
Q 1469 391 1925 391 
Q 2381 391 2643 752 
Q 2906 1113 2906 1747 
Q 2906 2381 2643 2742 
Q 2381 3103 1925 3103 
Q 1469 3103 1208 2742 
Q 947 2381 947 1747 
z
" transform="scale(0.015625)"/>
     </defs>
     <use xlink:href="#DejaVuSans-43"/>
     <use xlink:href="#DejaVuSans-6f" transform="translate(69.824219 0)"/>
     <use xlink:href="#DejaVuSans-68" transform="translate(131.005859 0)"/>
     <use xlink:href="#DejaVuSans-65" transform="translate(194.384766 0)"/>
     <use xlink:href="#DejaVuSans-6e" transform="translate(255.908203 0)"/>
     <use xlink:href="#DejaVuSans-27" transform="translate(319.287109 0)"/>
     <use xlink:href="#DejaVuSans-73" transform="translate(346.777344 0)"/>
     <use xlink:href="#DejaVuSans-20" transform="translate(398.876953 0)"/>
     <use xlink:href="#DejaVuSans-3ba" transform="translate(430.664062 0)"/>
     <use xlink:href="#DejaVuSans-20" transform="translate(489.599609 0)"/>
     <use xlink:href="#DejaVuSans-62" transform="translate(521.386719 0)"/>
     <use xlink:href="#DejaVuSans-79" transform="translate(584.863281 0)"/>
     <use xlink:href="#DejaVuSans-20" transform="translate(644.042969 0)"/>
     <use xlink:href="#DejaVuSans-44" transform="translate(675.830078 0)"/>
     <use xlink:href="#DejaVuSans-69" transform="translate(752.832031 0)"/>
     <use xlink:href="#DejaVuSans-6d" transform="translate(780.615234 0)"/>
     <use xlink:href="#DejaVuSans-65" transform="translate(878.027344 0)"/>
     <use xlink:href="#DejaVuSans-6e" transform="translate(939.550781 0)"/>
     <use xlink:href="#DejaVuSans-73" transform="translate(1002.929688 0)"/>
     <use xlink:href="#DejaVuSans-69" transform="translate(1055.029297 0)"/>
     <use xlink:href="#DejaVuSans-6f" transform="translate(1082.8125 0)"/>
     <use xlink:href="#DejaVuSans-6e" transform="translate(1143.994141 0)"/>
     <use xlink:href="#DejaVuSans-20" transform="translate(1207.373047 0)"/>
     <use xlink:href="#DejaVuSans-26" transform="translate(1239.160156 0)"/>
     <use xlink:href="#DejaVuSans-20" transform="translate(1317.138672 0)"/>
     <use xlink:href="#DejaVuSans-4d" transform="translate(1348.925781 0)"/>
     <use xlink:href="#DejaVuSans-6f" transform="translate(1435.205078 0)"/>
     <use xlink:href="#DejaVuSans-64" transform="translate(1496.386719 0)"/>
     <use xlink:href="#DejaVuSans-65" transform="translate(1559.863281 0)"/>
     <use xlink:href="#DejaVuSans-6c" transform="translate(1621.386719 0)"/>
    </g>
   </g>
   <g id="legend_1">
    <g id="patch_8">
     <path d="M 279.571881 81.129647 
L 394.20235 81.129647 
Q 396.00235 81.129647 396.00235 79.329647 
L 396.00235 27.138084 
Q 396.00235 25.338084 394.20235 25.338084 
L 279.571881 25.338084 
Q 277.771881 25.338084 277.771881 27.138084 
L 277.771881 79.329647 
Q 277.771881 81.129647 279.571881 81.129647 
z
" style="fill: #ffffff; opacity: 0.8; stroke: #cccccc; stroke-linejoin: miter"/>
    </g>
    <g id="line2d_14">
     <path d="M 281.371881 32.626678 
L 290.371881 32.626678 
L 299.371881 32.626678 
" style="fill: none; stroke: #3182bd; stroke-width: 2; stroke-linecap: square"/>
    </g>
    <g id="text_11">
     <!-- claude-sonnet-4-6 -->
     <g transform="translate(306.571881 35.776678) scale(0.09 -0.09)">
      <defs>
       <path id="DejaVuSans-2d" d="M 313 2009 
L 1997 2009 
L 1997 1497 
L 313 1497 
L 313 2009 
z
" transform="scale(0.015625)"/>
       <path id="DejaVuSans-74" d="M 1172 4494 
L 1172 3500 
L 2356 3500 
L 2356 3053 
L 1172 3053 
L 1172 1153 
Q 1172 725 1289 603 
Q 1406 481 1766 481 
L 2356 481 
L 2356 0 
L 1766 0 
Q 1100 0 847 248 
Q 594 497 594 1153 
L 594 3053 
L 172 3053 
L 172 3500 
L 594 3500 
L 594 4494 
L 1172 4494 
z
" transform="scale(0.015625)"/>
       <path id="DejaVuSans-34" d="M 2419 4116 
L 825 1625 
L 2419 1625 
L 2419 4116 
z
M 2253 4666 
L 3047 4666 
L 3047 1625 
L 3713 1625 
L 3713 1100 
L 3047 1100 
L 3047 0 
L 2419 0 
L 2419 1100 
L 313 1100 
L 313 1709 
L 2253 4666 
z
" transform="scale(0.015625)"/>
       <path id="DejaVuSans-36" d="M 2113 2584 
Q 1688 2584 1439 2293 
Q 1191 2003 1191 1497 
Q 1191 994 1439 701 
Q 1688 409 2113 409 
Q 2538 409 2786 701 
Q 3034 994 3034 1497 
Q 3034 2003 2786 2293 
Q 2538 2584 2113 2584 
z
M 3366 4563 
L 3366 3988 
Q 3128 4100 2886 4159 
Q 2644 4219 2406 4219 
Q 1781 4219 1451 3797 
Q 1122 3375 1075 2522 
Q 1259 2794 1537 2939 
Q 1816 3084 2150 3084 
Q 2853 3084 3261 2657 
Q 3669 2231 3669 1497 
Q 3669 778 3244 343 
Q 2819 -91 2113 -91 
Q 1303 -91 875 529 
Q 447 1150 447 2328 
Q 447 3434 972 4092 
Q 1497 4750 2381 4750 
Q 2619 4750 2861 4703 
Q 3103 4656 3366 4563 
z
" transform="scale(0.015625)"/>
      </defs>
      <use xlink:href="#DejaVuSans-63"/>
      <use xlink:href="#DejaVuSans-6c" transform="translate(54.980469 0)"/>
      <use xlink:href="#DejaVuSans-61" transform="translate(82.763672 0)"/>
      <use xlink:href="#DejaVuSans-75" transform="translate(144.042969 0)"/>
      <use xlink:href="#DejaVuSans-64" transform="translate(207.421875 0)"/>
      <use xlink:href="#DejaVuSans-65" transform="translate(270.898438 0)"/>
      <use xlink:href="#DejaVuSans-2d" transform="translate(332.421875 0)"/>
      <use xlink:href="#DejaVuSans-73" transform="translate(368.505859 0)"/>
      <use xlink:href="#DejaVuSans-6f" transform="translate(420.605469 0)"/>
      <use xlink:href="#DejaVuSans-6e" transform="translate(481.787109 0)"/>
      <use xlink:href="#DejaVuSans-6e" transform="translate(545.166016 0)"/>
      <use xlink:href="#DejaVuSans-65" transform="translate(608.544922 0)"/>
      <use xlink:href="#DejaVuSans-74" transform="translate(670.068359 0)"/>
      <use xlink:href="#DejaVuSans-2d" transform="translate(709.277344 0)"/>
      <use xlink:href="#DejaVuSans-34" transform="translate(745.361328 0)"/>
      <use xlink:href="#DejaVuSans-2d" transform="translate(808.984375 0)"/>
      <use xlink:href="#DejaVuSans-36" transform="translate(845.068359 0)"/>
     </g>
    </g>
    <g id="line2d_15">
     <path d="M 281.371881 45.836991 
L 290.371881 45.836991 
L 299.371881 45.836991 
" style="fill: none; stroke: #111111; stroke-width: 2; stroke-linecap: square"/>
    </g>
    <g id="text_12">
     <!-- ensemble_majority -->
     <g transform="translate(306.571881 48.986991) scale(0.09 -0.09)">
      <defs>
       <path id="DejaVuSans-5f" d="M 3263 -1063 
L 3263 -1509 
L -63 -1509 
L -63 -1063 
L 3263 -1063 
z
" transform="scale(0.015625)"/>
       <path id="DejaVuSans-6a" d="M 603 3500 
L 1178 3500 
L 1178 -63 
Q 1178 -731 923 -1031 
Q 669 -1331 103 -1331 
L -116 -1331 
L -116 -844 
L 38 -844 
Q 366 -844 484 -692 
Q 603 -541 603 -63 
L 603 3500 
z
M 603 4863 
L 1178 4863 
L 1178 4134 
L 603 4134 
L 603 4863 
z
" transform="scale(0.015625)"/>
      </defs>
      <use xlink:href="#DejaVuSans-65"/>
      <use xlink:href="#DejaVuSans-6e" transform="translate(61.523438 0)"/>
      <use xlink:href="#DejaVuSans-73" transform="translate(124.902344 0)"/>
      <use xlink:href="#DejaVuSans-65" transform="translate(177.001953 0)"/>
      <use xlink:href="#DejaVuSans-6d" transform="translate(238.525391 0)"/>
      <use xlink:href="#DejaVuSans-62" transform="translate(335.9375 0)"/>
      <use xlink:href="#DejaVuSans-6c" transform="translate(399.414062 0)"/>
      <use xlink:href="#DejaVuSans-65" transform="translate(427.197266 0)"/>
      <use xlink:href="#DejaVuSans-5f" transform="translate(488.720703 0)"/>
      <use xlink:href="#DejaVuSans-6d" transform="translate(538.720703 0)"/>
      <use xlink:href="#DejaVuSans-61" transform="translate(636.132812 0)"/>
      <use xlink:href="#DejaVuSans-6a" transform="translate(697.412109 0)"/>
      <use xlink:href="#DejaVuSans-6f" transform="translate(725.195312 0)"/>
      <use xlink:href="#DejaVuSans-72" transform="translate(786.376953 0)"/>
      <use xlink:href="#DejaVuSans-69" transform="translate(827.490234 0)"/>
      <use xlink:href="#DejaVuSans-74" transform="translate(855.273438 0)"/>
      <use xlink:href="#DejaVuSans-79" transform="translate(894.482422 0)"/>
     </g>
    </g>
    <g id="line2d_16">
     <path d="M 281.371881 59.297616 
L 290.371881 59.297616 
L 299.371881 59.297616 
" style="fill: none; stroke: #31a354; stroke-width: 2; stroke-linecap: square"/>
    </g>
    <g id="text_13">
     <!-- gemini-3.1-pro -->
     <g transform="translate(306.571881 62.447616) scale(0.09 -0.09)">
      <defs>
       <path id="DejaVuSans-70" d="M 1159 525 
L 1159 -1331 
L 581 -1331 
L 581 3500 
L 1159 3500 
L 1159 2969 
Q 1341 3281 1617 3432 
Q 1894 3584 2278 3584 
Q 2916 3584 3314 3078 
Q 3713 2572 3713 1747 
Q 3713 922 3314 415 
Q 2916 -91 2278 -91 
Q 1894 -91 1617 61 
Q 1341 213 1159 525 
z
M 3116 1747 
Q 3116 2381 2855 2742 
Q 2594 3103 2138 3103 
Q 1681 3103 1420 2742 
Q 1159 2381 1159 1747 
Q 1159 1113 1420 752 
Q 1681 391 2138 391 
Q 2594 391 2855 752 
Q 3116 1113 3116 1747 
z
" transform="scale(0.015625)"/>
      </defs>
      <use xlink:href="#DejaVuSans-67"/>
      <use xlink:href="#DejaVuSans-65" transform="translate(63.476562 0)"/>
      <use xlink:href="#DejaVuSans-6d" transform="translate(125 0)"/>
      <use xlink:href="#DejaVuSans-69" transform="translate(222.412109 0)"/>
      <use xlink:href="#DejaVuSans-6e" transform="translate(250.195312 0)"/>
      <use xlink:href="#DejaVuSans-69" transform="translate(313.574219 0)"/>
      <use xlink:href="#DejaVuSans-2d" transform="translate(341.357422 0)"/>
      <use xlink:href="#DejaVuSans-33" transform="translate(377.441406 0)"/>
      <use xlink:href="#DejaVuSans-2e" transform="translate(441.064453 0)"/>
      <use xlink:href="#DejaVuSans-31" transform="translate(472.851562 0)"/>
      <use xlink:href="#DejaVuSans-2d" transform="translate(536.474609 0)"/>
      <use xlink:href="#DejaVuSans-70" transform="translate(572.558594 0)"/>
      <use xlink:href="#DejaVuSans-72" transform="translate(636.035156 0)"/>
      <use xlink:href="#DejaVuSans-6f" transform="translate(674.898438 0)"/>
     </g>
    </g>
    <g id="line2d_17">
     <path d="M 281.371881 72.507928 
L 290.371881 72.507928 
L 299.371881 72.507928 
" style="fill: none; stroke: #e6550d; stroke-width: 2; stroke-linecap: square"/>
    </g>
    <g id="text_14">
     <!-- gpt-5.4 -->
     <g transform="translate(306.571881 75.657928) scale(0.09 -0.09)">
      <use xlink:href="#DejaVuSans-67"/>
      <use xlink:href="#DejaVuSans-70" transform="translate(63.476562 0)"/>
      <use xlink:href="#DejaVuSans-74" transform="translate(126.953125 0)"/>
      <use xlink:href="#DejaVuSans-2d" transform="translate(166.162109 0)"/>
      <use xlink:href="#DejaVuSans-35" transform="translate(202.246094 0)"/>
      <use xlink:href="#DejaVuSans-2e" transform="translate(265.869141 0)"/>
      <use xlink:href="#DejaVuSans-34" transform="translate(297.65625 0)"/>
     </g>
    </g>
   </g>
  </g>
 </g>
 <defs>
  <clipPath id="p27dcfb7c2a">
   <path d="M 307.8185 192.965234 
C 307.8185 175.577903 304.393575 158.359642 297.739731 142.295843 
C 291.085888 126.232044 281.332527 111.635107 269.037827 99.340407 
C 256.743127 87.045708 242.14619 77.292346 226.082391 70.638503 
C 210.018592 63.984659 192.800331 60.559734 175.413 60.559734 
C 158.025669 60.559734 140.807408 63.984659 124.743609 70.638503 
C 108.67981 77.292346 94.082873 87.045708 81.788173 99.340407 
C 69.493473 111.635107 59.740112 126.232044 53.086269 142.295843 
C 46.432425 158.359642 43.0075 175.577903 43.0075 192.965234 
C 43.0075 210.352565 46.432425 227.570826 53.086269 243.634626 
C 59.740112 259.698425 69.493473 274.295362 81.788173 286.590061 
C 94.082873 298.884761 108.67981 308.638122 124.743609 315.291966 
C 140.807408 321.945809 158.025669 325.370734 175.413 325.370734 
C 192.800331 325.370734 210.018592 321.945809 226.082391 315.291966 
C 242.14619 308.638122 256.743127 298.884761 269.037827 286.590061 
C 281.332527 274.295362 291.085888 259.698425 297.739731 243.634626 
C 304.393575 227.570826 307.8185 210.352565 307.8185 192.965234 
M 175.413 192.965234 
C 175.413 192.965234 175.413 192.965234 175.413 192.965234 
C 175.413 192.965234 175.413 192.965234 175.413 192.965234 
C 175.413 192.965234 175.413 192.965234 175.413 192.965234 
C 175.413 192.965234 175.413 192.965234 175.413 192.965234 
C 175.413 192.965234 175.413 192.965234 175.413 192.965234 
C 175.413 192.965234 175.413 192.965234 175.413 192.965234 
C 175.413 192.965234 175.413 192.965234 175.413 192.965234 
C 175.413 192.965234 175.413 192.965234 175.413 192.965234 
C 175.413 192.965234 175.413 192.965234 175.413 192.965234 
C 175.413 192.965234 175.413 192.965234 175.413 192.965234 
C 175.413 192.965234 175.413 192.965234 175.413 192.965234 
C 175.413 192.965234 175.413 192.965234 175.413 192.965234 
C 175.413 192.965234 175.413 192.965234 175.413 192.965234 
C 175.413 192.965234 175.413 192.965234 175.413 192.965234 
C 175.413 192.965234 175.413 192.965234 175.413 192.965234 
C 175.413 192.965234 175.413 192.965234 175.413 192.965234 
z
"/>
  </clipPath>
 </defs>
</svg>
